ISO-10303-21;
HEADER;
FILE_DESCRIPTION (( 'STEP AP214' ),
    '1' );
FILE_NAME ('25-degree-stand.STEP',
    '2026-09-06T14:34:56',
    ( '' ),
    ( '' ),
    'SwSTEP 2.0',
    'SolidWorks 2026',
    '' );
FILE_SCHEMA (( 'AUTOMOTIVE_DESIGN' ));
ENDSEC;

DATA;
#1 = ORIENTED_EDGE ( 'NONE', *, *, #229, .T. ) ;
#2 = AXIS2_PLACEMENT_3D ( 'NONE', #306, #487, #80 ) ;
#3 = DIRECTION ( 'NONE',  ( 0.4226182617407331366, -0.000000000000000000, 0.9063077870366341715 ) ) ;
#4 = ORIENTED_EDGE ( 'NONE', *, *, #383, .T. ) ;
#5 = CARTESIAN_POINT ( 'NONE',  ( -1.650150659199628000, 0.000000000000000000, 44.02189231282480364 ) ) ;
#6 = VERTEX_POINT ( 'NONE', #385 ) ;
#7 = VERTEX_POINT ( 'NONE', #525 ) ;
#8 = VECTOR ( 'NONE', #180, 1000.000000000000227 ) ;
#9 = DIRECTION ( 'NONE',  ( -0.000000000000000000, 1.000000000000000000, -0.000000000000000000 ) ) ;
#10 = VERTEX_POINT ( 'NONE', #572 ) ;
#11 = EDGE_CURVE ( 'NONE', #365, #6, #112, .T. ) ;
#12 = PLANE ( 'NONE',  #22 ) ;
#13 = VECTOR ( 'NONE', #218, 1000.000000000000227 ) ;
#14 = FACE_OUTER_BOUND ( 'NONE', #53, .T. ) ;
#15 = CARTESIAN_POINT ( 'NONE',  ( -17.79416825769562038, 60.00000000000000000, 9.400934848025363166 ) ) ;
#16 = EDGE_CURVE ( 'NONE', #347, #276, #292, .T. ) ;
#17 = CARTESIAN_POINT ( 'NONE',  ( -16.72678357400571159, 0.000000000000000000, -5.000000000000000000 ) ) ;
#18 = CARTESIAN_POINT ( 'NONE',  ( -0.3212246104222632459, 0.000000000000000000, 44.50558183812069757 ) ) ;
#19 = CLOSED_SHELL ( 'NONE', ( #305, #120, #542, #194, #260, #83, #535, #241, #95, #401, #67, #203, #438, #92, #75, #129, #509, #339 ) ) ;
#20 = ORIENTED_EDGE ( 'NONE', *, *, #581, .F. ) ;
#21 = CARTESIAN_POINT ( 'NONE',  ( 19.54332729393443913, 60.00000000000000000, 36.66756460140420160 ) ) ;
#22 = AXIS2_PLACEMENT_3D ( 'NONE', #428, #148, #465 ) ;
#23 = FACE_OUTER_BOUND ( 'NONE', #502, .T. ) ;
#24 = ORIENTED_EDGE ( 'NONE', *, *, #457, .T. ) ;
#25 = CARTESIAN_POINT ( 'NONE',  ( -1.650150659199628000, 60.00000000000000000, 44.02189231282480364 ) ) ;
#26 = ORIENTED_EDGE ( 'NONE', *, *, #391, .F. ) ;
#27 = VECTOR ( 'NONE', #469, 1000.000000000000000 ) ;
#28 = LINE ( 'NONE', #57, #508 ) ;
#29 = ORIENTED_EDGE ( 'NONE', *, *, #427, .F. ) ;
#30 = EDGE_CURVE ( 'NONE', #252, #518, #584, .T. ) ;
#31 = CARTESIAN_POINT ( 'NONE',  ( 0.000000000000000000, 0.000000000000000000, 0.000000000000000000 ) ) ;
#32 = PLANE ( 'NONE',  #233 ) ;
#33 = ORIENTED_EDGE ( 'NONE', *, *, #407, .T. ) ;
#34 = VERTEX_POINT ( 'NONE', #530 ) ;
#35 = DIRECTION ( 'NONE',  ( -0.000000000000000000, -1.000000000000000000, -0.000000000000000000 ) ) ;
#36 = EDGE_CURVE ( 'NONE', #232, #555, #116, .T. ) ;
#37 = FACE_OUTER_BOUND ( 'NONE', #127, .T. ) ;
#38 = ORIENTED_EDGE ( 'NONE', *, *, #140, .F. ) ;
#39 = VECTOR ( 'NONE', #400, 1000.000000000000000 ) ;
#40 = FACE_OUTER_BOUND ( 'NONE', #107, .T. ) ;
#41 = LINE ( 'NONE', #571, #189 ) ;
#42 = CARTESIAN_POINT ( 'NONE',  ( 13.64710621236064902, 60.00000000000000000, -5.000000000000000000 ) ) ;
#43 = DIRECTION ( 'NONE',  ( -0.000000000000000000, -1.000000000000000000, -0.000000000000000000 ) ) ;
#44 = LINE ( 'NONE', #225, #577 ) ;
#45 = ORIENTED_EDGE ( 'NONE', *, *, #240, .T. ) ;
#46 = PRODUCT_DEFINITION_SHAPE ( 'NONE', 'NONE',  #567 ) ;
#47 = CARTESIAN_POINT ( 'NONE',  ( 0.5240119130591879282, 60.00000000000000000, 46.31819741219403852 ) ) ;
#48 = ORIENTED_EDGE ( 'NONE', *, *, #511, .T. ) ;
#49 = CARTESIAN_POINT ( 'NONE',  ( 0.1013936513184976879, 0.000000000000000000, 45.41188962515738581 ) ) ;
#50 = ORIENTED_EDGE ( 'NONE', *, *, #410, .F. ) ;
#51 = CARTESIAN_POINT ( 'NONE',  ( 13.64710621236064902, 60.00000000000000000, -5.000000000000000000 ) ) ;
#52 = AXIS2_PLACEMENT_3D ( 'NONE', #102, #230, #466 ) ;
#53 = EDGE_LOOP ( 'NONE', ( #154, #417, #553, #94 ) ) ;
#54 = VECTOR ( 'NONE', #113, 1000.000000000000000 ) ;
#55 = CARTESIAN_POINT ( 'NONE',  ( -0.8049141357181365253, 60.00000000000000000, 45.83450788689812327 ) ) ;
#56 = SURFACE_SIDE_STYLE ('',( #277 ) ) ;
#57 = CARTESIAN_POINT ( 'NONE',  ( -18.72678357400570803, 60.00000000000000000, 7.400934848025364943 ) ) ;
#58 = CARTESIAN_POINT ( 'NONE',  ( -17.79416825769562038, 60.00000000000000000, 9.400934848025363166 ) ) ;
#59 = EDGE_LOOP ( 'NONE', ( #177, #106, #495, #297 ) ) ;
#60 = DIRECTION ( 'NONE',  ( 0.000000000000000000, 1.000000000000000000, 0.000000000000000000 ) ) ;
#61 = DIRECTION ( 'NONE',  ( -0.4226182617407309716, 0.000000000000000000, -0.9063077870366352817 ) ) ;
#62 = ORIENTED_EDGE ( 'NONE', *, *, #585, .F. ) ;
#63 = CARTESIAN_POINT ( 'NONE',  ( 13.64710621236064902, 0.000000000000000000, -5.000000000000000000 ) ) ;
#64 = DIRECTION ( 'NONE',  ( -0.000000000000000000, -1.000000000000000000, -0.000000000000000000 ) ) ;
#65 = DIRECTION ( 'NONE',  ( 0.9063077870366351707, 0.000000000000000000, -0.4226182617407309161 ) ) ;
#66 = CIRCLE ( 'NONE', #357, 0.9999999999999991118 ) ;
#67 = ADVANCED_FACE ( 'NONE', ( #432 ), #74, .F. ) ;
#68 = ORIENTED_EDGE ( 'NONE', *, *, #447, .F. ) ;
#69 = FACE_OUTER_BOUND ( 'NONE', #221, .T. ) ;
#70 = AXIS2_PLACEMENT_3D ( 'NONE', #172, #402, #506 ) ;
#71 = CARTESIAN_POINT ( 'NONE',  ( -0.3212246104222632459, 60.00000000000000000, 44.50558183812069757 ) ) ;
#72 = ORIENTED_EDGE ( 'NONE', *, *, #456, .T. ) ;
#73 = CARTESIAN_POINT ( 'NONE',  ( 0.5240119130591879282, 0.000000000000000000, 46.31819741219403852 ) ) ;
#74 = PLANE ( 'NONE',  #562 ) ;
#75 = ADVANCED_FACE ( 'NONE', ( #69 ), #437, .F. ) ;
#76 = LINE ( 'NONE', #215, #101 ) ;
#77 = EDGE_CURVE ( 'NONE', #287, #114, #245, .T. ) ;
#78 = SHAPE_DEFINITION_REPRESENTATION ( #46, #231 ) ;
#79 = ORIENTED_EDGE ( 'NONE', *, *, #222, .T. ) ;
#80 = DIRECTION ( 'NONE',  ( 1.040834085586083310E-14, 0.000000000000000000, 1.000000000000000000 ) ) ;
#81 = AXIS2_PLACEMENT_3D ( 'NONE', #25, #587, #478 ) ;
#82 = CARTESIAN_POINT ( 'NONE',  ( 0.1013936513184976879, 60.00000000000000000, 45.41188962515738581 ) ) ;
#83 = ADVANCED_FACE ( 'NONE', ( #14 ), #99, .F. ) ;
#84 = CARTESIAN_POINT ( 'NONE',  ( 16.98925412197745644, 60.00000000000000000, 36.43357303887270149 ) ) ;
#85 = UNCERTAINTY_MEASURE_WITH_UNIT (LENGTH_MEASURE( 1.000000000000000082E-05 ), #280, 'distance_accuracy_value', 'NONE');
#86 = CARTESIAN_POINT ( 'NONE',  ( -16.88786047065898543, 60.00000000000000000, 8.978316586284632805 ) ) ;
#87 = PRODUCT ( '25-degree-stand', '25-degree-stand', '', ( #485 ) ) ;
#88 = VERTEX_POINT ( 'NONE', #472 ) ;
#89 = AXIS2_PLACEMENT_3D ( 'NONE', #49, #314, #492 ) ;
#90 = DIRECTION ( 'NONE',  ( 0.9063077870366342825, 0.000000000000000000, -0.4226182617407328590 ) ) ;
#91 = ORIENTED_EDGE ( 'NONE', *, *, #301, .T. ) ;
#92 = ADVANCED_FACE ( 'NONE', ( #517 ), #12, .T. ) ;
#93 = CARTESIAN_POINT ( 'NONE',  ( -17.69061616664650316, 60.00000000000000000, 7.256801440761099897 ) ) ;
#94 = ORIENTED_EDGE ( 'NONE', *, *, #451, .T. ) ;
#95 = ADVANCED_FACE ( 'NONE', ( #503 ), #109, .F. ) ;
#96 = FILL_AREA_STYLE_COLOUR ( '', #378 ) ;
#97 = ORIENTED_EDGE ( 'NONE', *, *, #500, .T. ) ;
#98 = EDGE_CURVE ( 'NONE', #368, #347, #372, .T. ) ;
#99 = PLANE ( 'NONE',  #152 ) ;
#100 = VECTOR ( 'NONE', #289, 1000.000000000000000 ) ;
#101 = VECTOR ( 'NONE', #296, 999.9999999999998863 ) ;
#102 = CARTESIAN_POINT ( 'NONE',  ( 18.55319140955020885, 60.00000000000000000, 36.80767502376693301 ) ) ;
#103 = LINE ( 'NONE', #561, #541 ) ;
#104 = VECTOR ( 'NONE', #529, 1000.000000000000227 ) ;
#105 = VECTOR ( 'NONE', #546, 1000.000000000000000 ) ;
#106 = ORIENTED_EDGE ( 'NONE', *, *, #135, .F. ) ;
#107 = EDGE_LOOP ( 'NONE', ( #1, #197, #295, #246 ) ) ;
#108 = PLANE ( 'NONE',  #404 ) ;
#109 = PLANE ( 'NONE',  #249 ) ;
#110 = ORIENTED_EDGE ( 'NONE', *, *, #493, .F. ) ;
#111 = PLANE ( 'NONE',  #81 ) ;
#112 = LINE ( 'NONE', #398, #226 ) ;
#113 = DIRECTION ( 'NONE',  ( -0.4226182617407321374, 0.000000000000000000, -0.9063077870366347266 ) ) ;
#114 = VERTEX_POINT ( 'NONE', #55 ) ;
#115 = DIRECTION ( 'NONE',  ( -1.000000000000000000, 0.000000000000000000, 0.000000000000000000 ) ) ;
#116 = LINE ( 'NONE', #394, #195 ) ;
#117 = LINE ( 'NONE', #578, #278 ) ;
#118 = ORIENTED_EDGE ( 'NONE', *, *, #581, .T. ) ;
#119 = DIRECTION ( 'NONE',  ( -0.000000000000000000, -1.000000000000000000, -0.000000000000000000 ) ) ;
#120 = ADVANCED_FACE ( 'NONE', ( #23 ), #199, .F. ) ;
#121 = CYLINDRICAL_SURFACE ( 'NONE', #379, 1.000000000000000888 ) ;
#122 = ORIENTED_EDGE ( 'NONE', *, *, #427, .T. ) ;
#123 = CARTESIAN_POINT ( 'NONE',  ( -17.31047873239971935, 60.00000000000000000, 8.072008799247997857 ) ) ;
#124 = DIRECTION ( 'NONE',  ( -0.4226182617407321374, 0.000000000000000000, -0.9063077870366347266 ) ) ;
#125 = DIRECTION ( 'NONE',  ( 0.000000000000000000, 0.000000000000000000, 1.000000000000000000 ) ) ;
#126 = VECTOR ( 'NONE', #64, 1000.000000000000000 ) ;
#127 = EDGE_LOOP ( 'NONE', ( #528, #165, #370, #579 ) ) ;
#128 = CARTESIAN_POINT ( 'NONE',  ( -18.59692395368313811, 60.00000000000000000, 7.679419702501833811 ) ) ;
#129 = ADVANCED_FACE ( 'NONE', ( #143 ), #381, .T. ) ;
#130 = STYLED_ITEM ( 'NONE', ( #236 ), #151 ) ;
#131 = DIRECTION ( 'NONE',  ( 0.4226182617407329145, -0.000000000000000000, 0.9063077870366343936 ) ) ;
#132 = VECTOR ( 'NONE', #396, 1000.000000000000000 ) ;
#133 = LINE ( 'NONE', #47, #445 ) ;
#134 = ORIENTED_EDGE ( 'NONE', *, *, #419, .T. ) ;
#135 = EDGE_CURVE ( 'NONE', #442, #7, #275, .T. ) ;
#136 = CARTESIAN_POINT ( 'NONE',  ( -17.79416825769562038, 60.00000000000000000, 9.400934848025363166 ) ) ;
#137 = ORIENTED_EDGE ( 'NONE', *, *, #229, .F. ) ;
#138 = AXIS2_PLACEMENT_3D ( 'NONE', #206, #388, #216 ) ;
#139 = CYLINDRICAL_SURFACE ( 'NONE', #514, 1.000000000000000000 ) ;
#140 = EDGE_CURVE ( 'NONE', #34, #157, #66, .T. ) ;
#141 = VERTEX_POINT ( 'NONE', #185 ) ;
#142 = EDGE_CURVE ( 'NONE', #482, #207, #320, .T. ) ;
#143 = FACE_OUTER_BOUND ( 'NONE', #243, .T. ) ;
#144 = ORIENTED_EDGE ( 'NONE', *, *, #140, .T. ) ;
#145 = DIRECTION ( 'NONE',  ( -0.9063077870366351707, 0.000000000000000000, 0.4226182617407309161 ) ) ;
#146 = VECTOR ( 'NONE', #65, 1000.000000000000227 ) ;
#147 = VECTOR ( 'NONE', #293, 999.9999999999998863 ) ;
#148 = DIRECTION ( 'NONE',  ( 0.000000000000000000, 1.000000000000000000, 0.000000000000000000 ) ) ;
#149 = CARTESIAN_POINT ( 'NONE',  ( 19.64710621236065435, 60.00000000000000000, 37.40095209280980271 ) ) ;
#150 = DIRECTION ( 'NONE',  ( -0.4226182617406904485, 0.000000000000000000, -0.9063077870366541555 ) ) ;
#151 = MANIFOLD_SOLID_BREP ( 'Fillet1', #19 ) ;
#152 = AXIS2_PLACEMENT_3D ( 'NONE', #552, #554, #191 ) ;
#153 = CARTESIAN_POINT ( 'NONE',  ( -0.8049141357181365253, 0.000000000000000000, 45.83450788689812327 ) ) ;
#154 = ORIENTED_EDGE ( 'NONE', *, *, #585, .T. ) ;
#155 = VERTEX_POINT ( 'NONE', #510 ) ;
#156 = DIRECTION ( 'NONE',  ( -6.938893903907234689E-15, 0.000000000000000000, 1.000000000000000000 ) ) ;
#157 = VERTEX_POINT ( 'NONE', #424 ) ;
#158 = CARTESIAN_POINT ( 'NONE',  ( 19.54332729393443913, 0.000000000000000000, 36.66756460140420160 ) ) ;
#159 = DIRECTION ( 'NONE',  ( -0.9063077870366343936, 0.000000000000000000, 0.4226182617407328035 ) ) ;
#160 = LINE ( 'NONE', #285, #147 ) ;
#161 = ORIENTED_EDGE ( 'NONE', *, *, #290, .F. ) ;
#162 = VECTOR ( 'NONE', #3, 1000.000000000000227 ) ;
#163 = ORIENTED_EDGE ( 'NONE', *, *, #142, .T. ) ;
#164 = DIRECTION ( 'NONE',  ( -0.9063077870366343936, 0.000000000000000000, 0.4226182617407328590 ) ) ;
#165 = ORIENTED_EDGE ( 'NONE', *, *, #323, .T. ) ;
#166 = CARTESIAN_POINT ( 'NONE',  ( -1.650150659199628000, 60.00000000000000000, 44.02189231282480364 ) ) ;
#167 = ORIENTED_EDGE ( 'NONE', *, *, #559, .F. ) ;
#168 = UNCERTAINTY_MEASURE_WITH_UNIT (LENGTH_MEASURE( 1.000000000000000082E-05 ), #247, 'distance_accuracy_value', 'NONE');
#169 = LINE ( 'NONE', #449, #566 ) ;
#170 = CARTESIAN_POINT ( 'NONE',  ( -18.72678357400570803, 60.00000000000000000, 7.400934848025364943 ) ) ;
#171 = ORIENTED_EDGE ( 'NONE', *, *, #556, .F. ) ;
#172 = CARTESIAN_POINT ( 'NONE',  ( -16.88786047065898543, 60.00000000000000000, 8.978316586284632805 ) ) ;
#173 = LINE ( 'NONE', #298, #39 ) ;
#174 =( GEOMETRIC_REPRESENTATION_CONTEXT ( 3 ) GLOBAL_UNCERTAINTY_ASSIGNED_CONTEXT ( ( #85 ) ) GLOBAL_UNIT_ASSIGNED_CONTEXT ( ( #280, #476, #374 ) ) REPRESENTATION_CONTEXT ( 'NONE', 'WORKASPACE' ) );
#175 = DIRECTION ( 'NONE',  ( 0.000000000000000000, 0.000000000000000000, 1.000000000000000000 ) ) ;
#176 = CIRCLE ( 'NONE', #2, 1.000000000000000888 ) ;
#177 = ORIENTED_EDGE ( 'NONE', *, *, #349, .T. ) ;
#178 = LINE ( 'NONE', #358, #105 ) ;
#179 = EDGE_LOOP ( 'NONE', ( #171, #272, #38, #353 ) ) ;
#180 = DIRECTION ( 'NONE',  ( 0.4226182617407336917, 0.000000000000000000, 0.9063077870366339495 ) ) ;
#181 = EDGE_CURVE ( 'NONE', #564, #205, #103, .T. ) ;
#182 = ORIENTED_EDGE ( 'NONE', *, *, #36, .F. ) ;
#183 = CIRCLE ( 'NONE', #264, 0.9999999999999991118 ) ;
#184 = ORIENTED_EDGE ( 'NONE', *, *, #235, .T. ) ;
#185 = CARTESIAN_POINT ( 'NONE',  ( 16.98925412197745644, 0.000000000000000000, 36.43357303887270149 ) ) ;
#186 = EDGE_CURVE ( 'NONE', #576, #482, #281, .T. ) ;
#187 = EDGE_LOOP ( 'NONE', ( #4, #313, #68, #294 ) ) ;
#188 = CARTESIAN_POINT ( 'NONE',  ( -17.79416825769562038, 60.00000000000000000, 9.400934848025363166 ) ) ;
#189 = VECTOR ( 'NONE', #213, 1000.000000000000000 ) ;
#190 = VECTOR ( 'NONE', #267, 1000.000000000000000 ) ;
#191 = DIRECTION ( 'NONE',  ( 1.000000000000000000, 0.000000000000000000, -0.000000000000000000 ) ) ;
#192 = CARTESIAN_POINT ( 'NONE',  ( -17.79416825769562038, 60.00000000000000000, 9.400934848025363166 ) ) ;
#193 = DIRECTION ( 'NONE',  ( -0.1592207393636227153, -0.000000000000000000, 0.9872430076513589725 ) ) ;
#194 = ADVANCED_FACE ( 'NONE', ( #421 ), #250, .F. ) ;
#195 = VECTOR ( 'NONE', #119, 1000.000000000000000 ) ;
#196 = CARTESIAN_POINT ( 'NONE',  ( 0.000000000000000000, 60.00000000000000000, 0.000000000000000000 ) ) ;
#197 = ORIENTED_EDGE ( 'NONE', *, *, #30, .F. ) ;
#198 = CARTESIAN_POINT ( 'NONE',  ( 0.000000000000000000, 60.00000000000000000, 0.000000000000000000 ) ) ;
#199 = PLANE ( 'NONE',  #414 ) ;
#200 = ORIENTED_EDGE ( 'NONE', *, *, #375, .T. ) ;
#201 = DIRECTION ( 'NONE',  ( 0.000000000000000000, 0.000000000000000000, -1.000000000000000000 ) ) ;
#202 = ORIENTED_EDGE ( 'NONE', *, *, #181, .T. ) ;
#203 = ADVANCED_FACE ( 'NONE', ( #238 ), #108, .F. ) ;
#204 = DIRECTION ( 'NONE',  ( 0.9063077870366342825, 0.000000000000000000, -0.4226182617407331921 ) ) ;
#205 = VERTEX_POINT ( 'NONE', #288 ) ;
#206 = CARTESIAN_POINT ( 'NONE',  ( 0.000000000000000000, 0.000000000000000000, 0.000000000000000000 ) ) ;
#207 = VERTEX_POINT ( 'NONE', #283 ) ;
#208 = DIRECTION ( 'NONE',  ( -0.9063077870366342825, 0.000000000000000000, 0.4226182617407330810 ) ) ;
#209 = ORIENTED_EDGE ( 'NONE', *, *, #142, .F. ) ;
#210 = CARTESIAN_POINT ( 'NONE',  ( 16.98925412197745644, 60.00000000000000000, 36.43357303887270149 ) ) ;
#211 = ORIENTED_EDGE ( 'NONE', *, *, #279, .F. ) ;
#212 = FACE_OUTER_BOUND ( 'NONE', #473, .T. ) ;
#213 = DIRECTION ( 'NONE',  ( 0.9063077870366343936, 0.000000000000000000, -0.4226182617407328035 ) ) ;
#214 = DIRECTION ( 'NONE',  ( -0.000000000000000000, -1.000000000000000000, -0.000000000000000000 ) ) ;
#215 = CARTESIAN_POINT ( 'NONE',  ( -16.88786047065898543, 60.00000000000000000, 8.978316586284632805 ) ) ;
#216 = DIRECTION ( 'NONE',  ( 1.000000000000000000, 0.000000000000000000, 0.000000000000000000 ) ) ;
#217 = PLANE ( 'NONE',  #70 ) ;
#218 = DIRECTION ( 'NONE',  ( 0.4226182617407331366, -0.000000000000000000, 0.9063077870366341715 ) ) ;
#219 = LINE ( 'NONE', #271, #341 ) ;
#220 = VECTOR ( 'NONE', #164, 1000.000000000000000 ) ;
#221 = EDGE_LOOP ( 'NONE', ( #343, #270, #227, #134, #570, #408, #248, #333, #550, #302, #137, #224, #29, #144, #580, #62 ) ) ;
#222 = EDGE_CURVE ( 'NONE', #232, #442, #426, .T. ) ;
#223 = DIRECTION ( 'NONE',  ( 0.000000000000000000, -1.000000000000000000, 0.000000000000000000 ) ) ;
#224 = ORIENTED_EDGE ( 'NONE', *, *, #349, .F. ) ;
#225 = CARTESIAN_POINT ( 'NONE',  ( -18.72678357400570803, 0.000000000000000000, 7.400934848025364943 ) ) ;
#226 = VECTOR ( 'NONE', #214, 1000.000000000000000 ) ;
#227 = ORIENTED_EDGE ( 'NONE', *, *, #186, .F. ) ;
#228 = MECHANICAL_DESIGN_GEOMETRIC_PRESENTATION_REPRESENTATION (  '', ( #130 ), #174 ) ;
#229 = EDGE_CURVE ( 'NONE', #7, #518, #160, .T. ) ;
#230 = DIRECTION ( 'NONE',  ( 0.000000000000000000, -1.000000000000000000, 0.000000000000000000 ) ) ;
#231 = ADVANCED_BREP_SHAPE_REPRESENTATION ( '25-degree-stand', ( #151, #138 ), #548 ) ;
#232 = VERTEX_POINT ( 'NONE', #15 ) ;
#233 = AXIS2_PLACEMENT_3D ( 'NONE', #71, #527, #531 ) ;
#234 = FILL_AREA_STYLE ('',( #96 ) ) ;
#235 = EDGE_CURVE ( 'NONE', #347, #520, #28, .T. ) ;
#236 = PRESENTATION_STYLE_ASSIGNMENT (( #371 ) ) ;
#237 = CIRCLE ( 'NONE', #89, 1.000000000000000888 ) ;
#238 = FACE_OUTER_BOUND ( 'NONE', #440, .T. ) ;
#239 = DIRECTION ( 'NONE',  ( -0.9901358843842283930, 0.000000000000000000, 0.1401104223627279988 ) ) ;
#240 = EDGE_CURVE ( 'NONE', #518, #10, #334, .T. ) ;
#241 = ADVANCED_FACE ( 'NONE', ( #558 ), #468, .F. ) ;
#242 = LINE ( 'NONE', #18, #54 ) ;
#243 = EDGE_LOOP ( 'NONE', ( #329, #209, #319, #110 ) ) ;
#244 = LINE ( 'NONE', #198, #491 ) ;
#245 = LINE ( 'NONE', #331, #308 ) ;
#246 = ORIENTED_EDGE ( 'NONE', *, *, #135, .T. ) ;
#247 =( LENGTH_UNIT ( ) NAMED_UNIT ( * ) SI_UNIT ( .MILLI., .METRE. ) );
#248 = ORIENTED_EDGE ( 'NONE', *, *, #282, .F. ) ;
#249 = AXIS2_PLACEMENT_3D ( 'NONE', #188, #61, #145 ) ;
#250 = PLANE ( 'NONE',  #589 ) ;
#251 = VECTOR ( 'NONE', #124, 1000.000000000000000 ) ;
#252 = VERTEX_POINT ( 'NONE', #512 ) ;
#253 = CARTESIAN_POINT ( 'NONE',  ( 0.5240119130591879282, 60.00000000000000000, 46.31819741219403852 ) ) ;
#254 = ORIENTED_EDGE ( 'NONE', *, *, #493, .T. ) ;
#255 = LINE ( 'NONE', #443, #406 ) ;
#256 = VERTEX_POINT ( 'NONE', #21 ) ;
#257 = DIRECTION ( 'NONE',  ( 0.1592207393636227430, 0.000000000000000000, -0.9872430076513589725 ) ) ;
#258 = EDGE_LOOP ( 'NONE', ( #291, #163, #470, #362 ) ) ;
#259 = DIRECTION ( 'NONE',  ( 0.000000000000000000, -1.000000000000000000, 0.000000000000000000 ) ) ;
#260 = ADVANCED_FACE ( 'NONE', ( #471 ), #327, .F. ) ;
#261 = CARTESIAN_POINT ( 'NONE',  ( -17.31047873239971935, 0.000000000000000000, 8.072008799247997857 ) ) ;
#262 = EDGE_LOOP ( 'NONE', ( #50, #574, #122, #182 ) ) ;
#263 = LINE ( 'NONE', #128, #359 ) ;
#264 = AXIS2_PLACEMENT_3D ( 'NONE', #352, #519, #125 ) ;
#265 = FACE_OUTER_BOUND ( 'NONE', #389, .T. ) ;
#266 = DIRECTION ( 'NONE',  ( 0.9063077870366351707, 0.000000000000000000, -0.4226182617407309161 ) ) ;
#267 = DIRECTION ( 'NONE',  ( -0.9063077870366343936, 0.000000000000000000, 0.4226182617407328590 ) ) ;
#268 = CARTESIAN_POINT ( 'NONE',  ( 18.55319140955020885, 60.00000000000000000, 36.80767502376693301 ) ) ;
#269 = CIRCLE ( 'NONE', #496, 1.000000000000000888 ) ;
#270 = ORIENTED_EDGE ( 'NONE', *, *, #395, .T. ) ;
#271 = CARTESIAN_POINT ( 'NONE',  ( -0.3822958739774228176, 60.00000000000000000, 46.74081567393471204 ) ) ;
#272 = ORIENTED_EDGE ( 'NONE', *, *, #323, .F. ) ;
#273 = CARTESIAN_POINT ( 'NONE',  ( -0.7438428721629942730, 60.00000000000000000, 43.59927405108406617 ) ) ;
#274 = EDGE_LOOP ( 'NONE', ( #167, #254, #202, #537 ) ) ;
#275 = LINE ( 'NONE', #367, #489 ) ;
#276 = VERTEX_POINT ( 'NONE', #17 ) ;
#277 = SURFACE_STYLE_FILL_AREA ( #234 ) ;
#278 = VECTOR ( 'NONE', #208, 1000.000000000000114 ) ;
#279 = EDGE_CURVE ( 'NONE', #114, #565, #464, .T. ) ;
#280 =( LENGTH_UNIT ( ) NAMED_UNIT ( * ) SI_UNIT ( .MILLI., .METRE. ) );
#281 = LINE ( 'NONE', #568, #507 ) ;
#282 = EDGE_CURVE ( 'NONE', #299, #444, #242, .T. ) ;
#283 = CARTESIAN_POINT ( 'NONE',  ( 18.97580967129089302, 60.00000000000000000, 37.71398281080358572 ) ) ;
#284 = AXIS2_PLACEMENT_3D ( 'NONE', #170, #384, #257 ) ;
#285 = CARTESIAN_POINT ( 'NONE',  ( -16.88786047065898543, 0.000000000000000000, 8.978316586284632805 ) ) ;
#286 = VERTEX_POINT ( 'NONE', #563 ) ;
#287 = VERTEX_POINT ( 'NONE', #153 ) ;
#288 = CARTESIAN_POINT ( 'NONE',  ( 13.64710621236064902, 0.000000000000000000, -5.000000000000000000 ) ) ;
#289 = DIRECTION ( 'NONE',  ( -1.000000000000000000, 0.000000000000000000, 0.000000000000000000 ) ) ;
#290 = EDGE_CURVE ( 'NONE', #88, #155, #244, .T. ) ;
#291 = ORIENTED_EDGE ( 'NONE', *, *, #186, .T. ) ;
#292 = LINE ( 'NONE', #483, #460 ) ;
#293 = DIRECTION ( 'NONE',  ( -0.4226182617407329700, 0.000000000000000000, -0.9063077870366343936 ) ) ;
#294 = ORIENTED_EDGE ( 'NONE', *, *, #522, .T. ) ;
#295 = ORIENTED_EDGE ( 'NONE', *, *, #375, .F. ) ;
#296 = DIRECTION ( 'NONE',  ( -0.4226182617407329700, 0.000000000000000000, -0.9063077870366343936 ) ) ;
#297 = ORIENTED_EDGE ( 'NONE', *, *, #36, .T. ) ;
#298 = CARTESIAN_POINT ( 'NONE',  ( -0.7438428721629942730, 60.00000000000000000, 43.59927405108406617 ) ) ;
#299 = VERTEX_POINT ( 'NONE', #346 ) ;
#300 = CARTESIAN_POINT ( 'NONE',  ( -18.59692395368313811, 60.00000000000000000, 7.679419702501834699 ) ) ;
#301 = EDGE_CURVE ( 'NONE', #513, #299, #355, .T. ) ;
#302 = ORIENTED_EDGE ( 'NONE', *, *, #240, .F. ) ;
#303 = APPLICATION_PROTOCOL_DEFINITION ( 'draft international standard', 'automotive_design', 1998, #551 ) ;
#304 = DIRECTION ( 'NONE',  ( 0.000000000000000000, 1.000000000000000000, 0.000000000000000000 ) ) ;
#305 = ADVANCED_FACE ( 'NONE', ( #586 ), #32, .F. ) ;
#306 = CARTESIAN_POINT ( 'NONE',  ( 18.55319140955020885, 0.000000000000000000, 36.80767502376693301 ) ) ;
#307 = LINE ( 'NONE', #474, #366 ) ;
#308 = VECTOR ( 'NONE', #9, 1000.000000000000000 ) ;
#309 = DIRECTION ( 'NONE',  ( 0.000000000000000000, 0.000000000000000000, -1.000000000000000000 ) ) ;
#310 = LINE ( 'NONE', #84, #190 ) ;
#311 = VECTOR ( 'NONE', #450, 1000.000000000000114 ) ;
#312 = FACE_OUTER_BOUND ( 'NONE', #187, .T. ) ;
#313 = ORIENTED_EDGE ( 'NONE', *, *, #301, .F. ) ;
#314 = DIRECTION ( 'NONE',  ( -0.000000000000000000, -1.000000000000000000, -0.000000000000000000 ) ) ;
#315 = AXIS2_PLACEMENT_3D ( 'NONE', #540, #131, #90 ) ;
#316 = VECTOR ( 'NONE', #115, 1000.000000000000000 ) ;
#317 = ORIENTED_EDGE ( 'NONE', *, *, #419, .F. ) ;
#318 = CARTESIAN_POINT ( 'NONE',  ( -17.79416825769562038, 0.000000000000000000, 9.400934848025363166 ) ) ;
#319 = ORIENTED_EDGE ( 'NONE', *, *, #395, .F. ) ;
#320 = LINE ( 'NONE', #369, #430 ) ;
#321 = ORIENTED_EDGE ( 'NONE', *, *, #447, .T. ) ;
#322 = DIRECTION ( 'NONE',  ( -0.000000000000000000, 1.000000000000000000, -0.000000000000000000 ) ) ;
#323 = EDGE_CURVE ( 'NONE', #157, #520, #169, .T. ) ;
#324 = DIRECTION ( 'NONE',  ( -0.000000000000000000, -1.000000000000000000, -0.000000000000000000 ) ) ;
#325 = AXIS2_PLACEMENT_3D ( 'NONE', #58, #204, #521 ) ;
#326 = EDGE_CURVE ( 'NONE', #382, #34, #263, .T. ) ;
#327 = PLANE ( 'NONE',  #433 ) ;
#328 = CARTESIAN_POINT ( 'NONE',  ( 0.1013936513184976879, 60.00000000000000000, 45.41188962515738581 ) ) ;
#329 = ORIENTED_EDGE ( 'NONE', *, *, #412, .F. ) ;
#330 = EDGE_CURVE ( 'NONE', #88, #10, #255, .T. ) ;
#331 = CARTESIAN_POINT ( 'NONE',  ( -0.8049141357181364143, 60.00000000000000000, 45.83450788689812327 ) ) ;
#332 = ORIENTED_EDGE ( 'NONE', *, *, #498, .F. ) ;
#333 = ORIENTED_EDGE ( 'NONE', *, *, #383, .F. ) ;
#334 = LINE ( 'NONE', #515, #27 ) ;
#335 = DIRECTION ( 'NONE',  ( 0.9063077870366341715, 0.000000000000000000, -0.4226182617407330810 ) ) ;
#336 = ORIENTED_EDGE ( 'NONE', *, *, #330, .T. ) ;
#337 = LINE ( 'NONE', #166, #104 ) ;
#338 = ORIENTED_EDGE ( 'NONE', *, *, #556, .T. ) ;
#339 = ADVANCED_FACE ( 'NONE', ( #212 ), #121, .T. ) ;
#340 = DIRECTION ( 'NONE',  ( 0.9063077870366343936, 0.000000000000000000, -0.4226182617407328035 ) ) ;
#341 = VECTOR ( 'NONE', #501, 1000.000000000000000 ) ;
#342 = PRODUCT_DEFINITION_FORMATION_WITH_SPECIFIED_SOURCE ( 'ANY', '', #87, .NOT_KNOWN. ) ;
#343 = ORIENTED_EDGE ( 'NONE', *, *, #181, .F. ) ;
#344 =( NAMED_UNIT ( * ) SI_UNIT ( $, .STERADIAN. ) SOLID_ANGLE_UNIT ( ) );
#345 = DIRECTION ( 'NONE',  ( -0.000000000000000000, -1.000000000000000000, -0.000000000000000000 ) ) ;
#346 = CARTESIAN_POINT ( 'NONE',  ( -0.3212246104222632459, 0.000000000000000000, 44.50558183812069757 ) ) ;
#347 = VERTEX_POINT ( 'NONE', #390 ) ;
#348 = LINE ( 'NONE', #273, #311 ) ;
#349 = EDGE_CURVE ( 'NONE', #555, #7, #446, .T. ) ;
#350 = EDGE_CURVE ( 'NONE', #444, #6, #117, .T. ) ;
#351 = LINE ( 'NONE', #534, #251 ) ;
#352 = CARTESIAN_POINT ( 'NONE',  ( -17.69061616664650316, 60.00000000000000000, 7.256801440761099897 ) ) ;
#353 = ORIENTED_EDGE ( 'NONE', *, *, #326, .F. ) ;
#354 = PRODUCT_DEFINITION_CONTEXT ( 'detailed design', #364, 'design' ) ;
#355 = LINE ( 'NONE', #399, #132 ) ;
#356 = LINE ( 'NONE', #318, #13 ) ;
#357 = AXIS2_PLACEMENT_3D ( 'NONE', #569, #324, #156 ) ;
#358 = CARTESIAN_POINT ( 'NONE',  ( 19.54332729393443913, 60.00000000000000000, 36.66756460140420160 ) ) ;
#359 = VECTOR ( 'NONE', #539, 1000.000000000000000 ) ;
#360 = ORIENTED_EDGE ( 'NONE', *, *, #30, .T. ) ;
#361 = CARTESIAN_POINT ( 'NONE',  ( 0.000000000000000000, 0.000000000000000000, 0.000000000000000000 ) ) ;
#362 = ORIENTED_EDGE ( 'NONE', *, *, #498, .T. ) ;
#363 = FACE_OUTER_BOUND ( 'NONE', #179, .T. ) ;
#364 = APPLICATION_CONTEXT ( 'automotive_design' ) ;
#365 = VERTEX_POINT ( 'NONE', #481 ) ;
#366 = VECTOR ( 'NONE', #441, 1000.000000000000114 ) ;
#367 = CARTESIAN_POINT ( 'NONE',  ( -16.88786047065898543, 60.00000000000000000, 8.978316586284632805 ) ) ;
#368 = VERTEX_POINT ( 'NONE', #42 ) ;
#369 = CARTESIAN_POINT ( 'NONE',  ( 18.97580967129089302, 60.00000000000000000, 37.71398281080358572 ) ) ;
#370 = ORIENTED_EDGE ( 'NONE', *, *, #235, .F. ) ;
#371 = SURFACE_STYLE_USAGE ( .BOTH. , #56 ) ;
#372 = LINE ( 'NONE', #51, #100 ) ;
#373 = DIRECTION ( 'NONE',  ( 0.9063077870366541555, 0.000000000000000000, -0.4226182617406904485 ) ) ;
#374 =( NAMED_UNIT ( * ) SI_UNIT ( $, .STERADIAN. ) SOLID_ANGLE_UNIT ( ) );
#375 = EDGE_CURVE ( 'NONE', #442, #252, #76, .T. ) ;
#376 = DIRECTION ( 'NONE',  ( 0.000000000000000000, 0.000000000000000000, 1.000000000000000000 ) ) ;
#377 = ORIENTED_EDGE ( 'NONE', *, *, #511, .F. ) ;
#378 = COLOUR_RGB ( '',0.7921568627450980005, 0.8196078431372548767, 0.9333333333333333481 ) ;
#379 = AXIS2_PLACEMENT_3D ( 'NONE', #82, #259, #309 ) ;
#380 = CARTESIAN_POINT ( 'NONE',  ( -0.3822958739774228176, 60.00000000000000000, 46.74081567393471204 ) ) ;
#381 = CYLINDRICAL_SURFACE ( 'NONE', #52, 1.000000000000000888 ) ;
#382 = VERTEX_POINT ( 'NONE', #300 ) ;
#383 = EDGE_CURVE ( 'NONE', #141, #299, #439, .T. ) ;
#384 = DIRECTION ( 'NONE',  ( 0.9872430076513589725, -0.000000000000000000, 0.1592207393636227430 ) ) ;
#385 = CARTESIAN_POINT ( 'NONE',  ( -1.650150659199628000, 0.000000000000000000, 44.02189231282480364 ) ) ;
#386 = DIRECTION ( 'NONE',  ( 0.4226182617407328035, 0.000000000000000000, 0.9063077870366343936 ) ) ;
#387 = ORIENTED_EDGE ( 'NONE', *, *, #77, .F. ) ;
#388 = DIRECTION ( 'NONE',  ( 0.000000000000000000, 0.000000000000000000, 1.000000000000000000 ) ) ;
#389 = EDGE_LOOP ( 'NONE', ( #97, #453, #20, #392 ) ) ;
#390 = CARTESIAN_POINT ( 'NONE',  ( -16.72678357400571159, 60.00000000000000000, -5.000000000000000000 ) ) ;
#391 = EDGE_CURVE ( 'NONE', #513, #286, #351, .T. ) ;
#392 = ORIENTED_EDGE ( 'NONE', *, *, #11, .T. ) ;
#393 = CARTESIAN_POINT ( 'NONE',  ( -0.3212246104222632459, 60.00000000000000000, 44.50558183812069757 ) ) ;
#394 = CARTESIAN_POINT ( 'NONE',  ( -17.79416825769562038, 60.00000000000000000, 9.400934848025363166 ) ) ;
#395 = EDGE_CURVE ( 'NONE', #564, #482, #176, .T. ) ;
#396 = DIRECTION ( 'NONE',  ( -0.000000000000000000, -1.000000000000000000, -0.000000000000000000 ) ) ;
#397 = DIRECTION ( 'NONE',  ( -0.000000000000000000, -1.000000000000000000, -0.000000000000000000 ) ) ;
#398 = CARTESIAN_POINT ( 'NONE',  ( -1.650150659199628000, 60.00000000000000000, 44.02189231282480364 ) ) ;
#399 = CARTESIAN_POINT ( 'NONE',  ( -0.3212246104222632459, 60.00000000000000000, 44.50558183812069757 ) ) ;
#400 = DIRECTION ( 'NONE',  ( -0.000000000000000000, -1.000000000000000000, -0.000000000000000000 ) ) ;
#401 = ADVANCED_FACE ( 'NONE', ( #40 ), #217, .F. ) ;
#402 = DIRECTION ( 'NONE',  ( -0.9063077870366343936, 0.000000000000000000, 0.4226182617407330255 ) ) ;
#403 = DIRECTION ( 'NONE',  ( 0.4226182617407328035, 0.000000000000000000, 0.9063077870366343936 ) ) ;
#404 = AXIS2_PLACEMENT_3D ( 'NONE', #196, #340, #434 ) ;
#405 = LINE ( 'NONE', #136, #162 ) ;
#406 = VECTOR ( 'NONE', #35, 1000.000000000000000 ) ;
#407 = EDGE_CURVE ( 'NONE', #286, #365, #348, .T. ) ;
#408 = ORIENTED_EDGE ( 'NONE', *, *, #350, .F. ) ;
#409 = LINE ( 'NONE', #5, #8 ) ;
#410 = EDGE_CURVE ( 'NONE', #382, #232, #405, .T. ) ;
#411 = ORIENTED_EDGE ( 'NONE', *, *, #410, .T. ) ;
#412 = EDGE_CURVE ( 'NONE', #207, #256, #269, .T. ) ;
#413 = ORIENTED_EDGE ( 'NONE', *, *, #290, .T. ) ;
#414 = AXIS2_PLACEMENT_3D ( 'NONE', #461, #557, #335 ) ;
#415 = VECTOR ( 'NONE', #397, 1000.000000000000000 ) ;
#416 = DIRECTION ( 'NONE',  ( -0.000000000000000000, -1.000000000000000000, -0.000000000000000000 ) ) ;
#417 = ORIENTED_EDGE ( 'NONE', *, *, #16, .F. ) ;
#418 = DIRECTION ( 'NONE',  ( 0.000000000000000000, -0.000000000000000000, 1.000000000000000000 ) ) ;
#419 = EDGE_CURVE ( 'NONE', #576, #287, #237, .T. ) ;
#420 = VECTOR ( 'NONE', #403, 1000.000000000000000 ) ;
#421 = FACE_OUTER_BOUND ( 'NONE', #258, .T. ) ;
#422 = DIRECTION ( 'NONE',  ( 0.1401104223627279710, 0.000000000000000000, 0.9901358843842282820 ) ) ;
#423 = EDGE_CURVE ( 'NONE', #276, #157, #44, .T. ) ;
#424 = CARTESIAN_POINT ( 'NONE',  ( -18.67785917429785769, 0.000000000000000000, 7.097580701397477654 ) ) ;
#425 = EDGE_LOOP ( 'NONE', ( #45, #477, #532, #360 ) ) ;
#426 = LINE ( 'NONE', #192, #146 ) ;
#427 = EDGE_CURVE ( 'NONE', #34, #555, #356, .T. ) ;
#428 = CARTESIAN_POINT ( 'NONE',  ( 0.000000000000000000, 60.00000000000000000, 0.000000000000000000 ) ) ;
#429 = ORIENTED_EDGE ( 'NONE', *, *, #11, .F. ) ;
#430 = VECTOR ( 'NONE', #322, 1000.000000000000000 ) ;
#431 = APPLICATION_PROTOCOL_DEFINITION ( 'draft international standard', 'automotive_design', 1998, #364 ) ;
#432 = FACE_OUTER_BOUND ( 'NONE', #425, .T. ) ;
#433 = AXIS2_PLACEMENT_3D ( 'NONE', #149, #239, #422 ) ;
#434 = DIRECTION ( 'NONE',  ( -0.4226182617407328035, 0.000000000000000000, -0.9063077870366343936 ) ) ;
#435 = ORIENTED_EDGE ( 'NONE', *, *, #522, .F. ) ;
#436 = LINE ( 'NONE', #63, #316 ) ;
#437 = PLANE ( 'NONE',  #538 ) ;
#438 = ADVANCED_FACE ( 'NONE', ( #312 ), #494, .F. ) ;
#439 = LINE ( 'NONE', #582, #220 ) ;
#440 = EDGE_LOOP ( 'NONE', ( #24, #435, #161, #336 ) ) ;
#441 = DIRECTION ( 'NONE',  ( -0.1401104223627279710, 0.000000000000000000, -0.9901358843842282820 ) ) ;
#442 = VERTEX_POINT ( 'NONE', #86 ) ;
#443 = CARTESIAN_POINT ( 'NONE',  ( 0.000000000000000000, 60.00000000000000000, 0.000000000000000000 ) ) ;
#444 = VERTEX_POINT ( 'NONE', #497 ) ;
#445 = VECTOR ( 'NONE', #223, 1000.000000000000000 ) ;
#446 = LINE ( 'NONE', #484, #543 ) ;
#447 = EDGE_CURVE ( 'NONE', #155, #513, #310, .T. ) ;
#448 = CARTESIAN_POINT ( 'NONE',  ( -18.67785917429785769, 60.00000000000000000, 7.097580701397477654 ) ) ;
#449 = CARTESIAN_POINT ( 'NONE',  ( -18.67785917429785769, 60.00000000000000000, 7.097580701397477654 ) ) ;
#450 = DIRECTION ( 'NONE',  ( -0.9063077870366342825, 0.000000000000000000, 0.4226182617407330810 ) ) ;
#451 = EDGE_CURVE ( 'NONE', #368, #205, #544, .T. ) ;
#452 = CARTESIAN_POINT ( 'NONE',  ( 13.64710621236064902, 60.00000000000000000, -5.000000000000000000 ) ) ;
#453 = ORIENTED_EDGE ( 'NONE', *, *, #77, .T. ) ;
#454 = LINE ( 'NONE', #361, #420 ) ;
#455 = EDGE_LOOP ( 'NONE', ( #72, #523, #462, #499, #184, #338, #411, #79, #200, #459, #413, #321, #547, #33, #118, #504 ) ) ;
#456 = EDGE_CURVE ( 'NONE', #565, #207, #219, .T. ) ;
#457 = EDGE_CURVE ( 'NONE', #10, #141, #454, .T. ) ;
#458 = DIRECTION ( 'NONE',  ( 0.000000000000000000, 1.000000000000000000, 0.000000000000000000 ) ) ;
#459 = ORIENTED_EDGE ( 'NONE', *, *, #560, .T. ) ;
#460 = VECTOR ( 'NONE', #345, 1000.000000000000000 ) ;
#461 = CARTESIAN_POINT ( 'NONE',  ( -0.7438428721629942730, 60.00000000000000000, 43.59927405108406617 ) ) ;
#462 = ORIENTED_EDGE ( 'NONE', *, *, #559, .T. ) ;
#463 = PRESENTATION_LAYER_ASSIGNMENT (  '', '', ( #130 ) ) ;
#464 = CIRCLE ( 'NONE', #480, 1.000000000000000888 ) ;
#465 = DIRECTION ( 'NONE',  ( 0.000000000000000000, -0.000000000000000000, 1.000000000000000000 ) ) ;
#466 = DIRECTION ( 'NONE',  ( 0.000000000000000000, 0.000000000000000000, -1.000000000000000000 ) ) ;
#467 = DIRECTION ( 'NONE',  ( -0.1401104223627279710, 0.000000000000000000, -0.9901358843842282820 ) ) ;
#468 = PLANE ( 'NONE',  #325 ) ;
#469 = DIRECTION ( 'NONE',  ( 0.9063077870366343936, 0.000000000000000000, -0.4226182617407328035 ) ) ;
#470 = ORIENTED_EDGE ( 'NONE', *, *, #456, .F. ) ;
#471 = FACE_OUTER_BOUND ( 'NONE', #274, .T. ) ;
#472 = CARTESIAN_POINT ( 'NONE',  ( 0.000000000000000000, 60.00000000000000000, 0.000000000000000000 ) ) ;
#473 = EDGE_LOOP ( 'NONE', ( #211, #387, #317, #332 ) ) ;
#474 = CARTESIAN_POINT ( 'NONE',  ( 19.64710621236065435, 60.00000000000000000, 37.40095209280980271 ) ) ;
#475 = EDGE_LOOP ( 'NONE', ( #479, #377, #26, #91 ) ) ;
#476 =( NAMED_UNIT ( * ) PLANE_ANGLE_UNIT ( ) SI_UNIT ( $, .RADIAN. ) );
#477 = ORIENTED_EDGE ( 'NONE', *, *, #330, .F. ) ;
#478 = DIRECTION ( 'NONE',  ( -0.4226182617407336362, 0.000000000000000000, -0.9063077870366339495 ) ) ;
#479 = ORIENTED_EDGE ( 'NONE', *, *, #282, .T. ) ;
#480 = AXIS2_PLACEMENT_3D ( 'NONE', #328, #60, #376 ) ;
#481 = CARTESIAN_POINT ( 'NONE',  ( -1.650150659199628000, 60.00000000000000000, 44.02189231282480364 ) ) ;
#482 = VERTEX_POINT ( 'NONE', #588 ) ;
#483 = CARTESIAN_POINT ( 'NONE',  ( -16.72678357400571159, 60.00000000000000000, -5.000000000000000000 ) ) ;
#484 = CARTESIAN_POINT ( 'NONE',  ( -17.79416825769562038, 0.000000000000000000, 9.400934848025363166 ) ) ;
#485 = PRODUCT_CONTEXT ( 'NONE', #551, 'mechanical' ) ;
#486 = DIRECTION ( 'NONE',  ( -0.4226182617407328035, 0.000000000000000000, -0.9063077870366343936 ) ) ;
#487 = DIRECTION ( 'NONE',  ( -0.000000000000000000, -1.000000000000000000, -0.000000000000000000 ) ) ;
#488 =( NAMED_UNIT ( * ) PLANE_ANGLE_UNIT ( ) SI_UNIT ( $, .RADIAN. ) );
#489 = VECTOR ( 'NONE', #416, 1000.000000000000000 ) ;
#490 = DIRECTION ( 'NONE',  ( -0.000000000000000000, 1.000000000000000000, -0.000000000000000000 ) ) ;
#491 = VECTOR ( 'NONE', #386, 1000.000000000000000 ) ;
#492 = DIRECTION ( 'NONE',  ( -3.550762114890023866E-15, 0.000000000000000000, 1.000000000000000000 ) ) ;
#493 = EDGE_CURVE ( 'NONE', #256, #564, #178, .T. ) ;
#494 = PLANE ( 'NONE',  #315 ) ;
#495 = ORIENTED_EDGE ( 'NONE', *, *, #222, .F. ) ;
#496 = AXIS2_PLACEMENT_3D ( 'NONE', #268, #458, #175 ) ;
#497 = CARTESIAN_POINT ( 'NONE',  ( -0.7438428721629942730, 0.000000000000000000, 43.59927405108406617 ) ) ;
#498 = EDGE_CURVE ( 'NONE', #565, #576, #133, .T. ) ;
#499 = ORIENTED_EDGE ( 'NONE', *, *, #98, .T. ) ;
#500 = EDGE_CURVE ( 'NONE', #6, #287, #409, .T. ) ;
#501 = DIRECTION ( 'NONE',  ( 0.9063077870366541555, 0.000000000000000000, -0.4226182617406904485 ) ) ;
#502 = EDGE_LOOP ( 'NONE', ( #545, #429, #516, #48 ) ) ;
#503 = FACE_OUTER_BOUND ( 'NONE', #59, .T. ) ;
#504 = ORIENTED_EDGE ( 'NONE', *, *, #279, .T. ) ;
#505 = PRODUCT_RELATED_PRODUCT_CATEGORY ( 'part', '', ( #87 ) ) ;
#506 = DIRECTION ( 'NONE',  ( 0.4226182617407329700, 0.000000000000000000, 0.9063077870366342825 ) ) ;
#507 = VECTOR ( 'NONE', #373, 1000.000000000000000 ) ;
#508 = VECTOR ( 'NONE', #193, 1000.000000000000227 ) ;
#509 = ADVANCED_FACE ( 'NONE', ( #363 ), #139, .T. ) ;
#510 = CARTESIAN_POINT ( 'NONE',  ( 16.98925412197745644, 60.00000000000000000, 36.43357303887270149 ) ) ;
#511 = EDGE_CURVE ( 'NONE', #286, #444, #173, .T. ) ;
#512 = CARTESIAN_POINT ( 'NONE',  ( -17.31047873239971935, 60.00000000000000000, 8.072008799247997857 ) ) ;
#513 = VERTEX_POINT ( 'NONE', #393 ) ;
#514 = AXIS2_PLACEMENT_3D ( 'NONE', #93, #583, #201 ) ;
#515 = CARTESIAN_POINT ( 'NONE',  ( -17.31047873239971935, 0.000000000000000000, 8.072008799247997857 ) ) ;
#516 = ORIENTED_EDGE ( 'NONE', *, *, #407, .F. ) ;
#517 = FACE_OUTER_BOUND ( 'NONE', #455, .T. ) ;
#518 = VERTEX_POINT ( 'NONE', #261 ) ;
#519 = DIRECTION ( 'NONE',  ( 0.000000000000000000, 1.000000000000000000, 0.000000000000000000 ) ) ;
#520 = VERTEX_POINT ( 'NONE', #448 ) ;
#521 = DIRECTION ( 'NONE',  ( -0.4226182617407331366, 0.000000000000000000, -0.9063077870366341715 ) ) ;
#522 = EDGE_CURVE ( 'NONE', #155, #141, #575, .T. ) ;
#523 = ORIENTED_EDGE ( 'NONE', *, *, #412, .T. ) ;
#524 = CARTESIAN_POINT ( 'NONE',  ( -17.79416825769562038, 0.000000000000000000, 9.400934848025363166 ) ) ;
#525 = CARTESIAN_POINT ( 'NONE',  ( -16.88786047065898543, 0.000000000000000000, 8.978316586284632805 ) ) ;
#526 = VECTOR ( 'NONE', #43, 1000.000000000000000 ) ;
#527 = DIRECTION ( 'NONE',  ( -0.9063077870366347266, 0.000000000000000000, 0.4226182617407321374 ) ) ;
#528 = ORIENTED_EDGE ( 'NONE', *, *, #423, .T. ) ;
#529 = DIRECTION ( 'NONE',  ( 0.4226182617407336917, 0.000000000000000000, 0.9063077870366339495 ) ) ;
#530 = CARTESIAN_POINT ( 'NONE',  ( -18.59692395368313811, 0.000000000000000000, 7.679419702501834699 ) ) ;
#531 = DIRECTION ( 'NONE',  ( 0.4226182617407321374, 0.000000000000000000, 0.9063077870366347266 ) ) ;
#532 = ORIENTED_EDGE ( 'NONE', *, *, #560, .F. ) ;
#533 = CARTESIAN_POINT ( 'NONE',  ( -17.31047873239971935, 60.00000000000000000, 8.072008799247997857 ) ) ;
#534 = CARTESIAN_POINT ( 'NONE',  ( -0.3212246104222632459, 60.00000000000000000, 44.50558183812069757 ) ) ;
#535 = ADVANCED_FACE ( 'NONE', ( #37 ), #536, .F. ) ;
#536 = PLANE ( 'NONE',  #284 ) ;
#537 = ORIENTED_EDGE ( 'NONE', *, *, #451, .F. ) ;
#538 = AXIS2_PLACEMENT_3D ( 'NONE', #31, #304, #418 ) ;
#539 = DIRECTION ( 'NONE',  ( 0.000000000000000000, -1.000000000000000000, 0.000000000000000000 ) ) ;
#540 = CARTESIAN_POINT ( 'NONE',  ( 16.98925412197745644, 60.00000000000000000, 36.43357303887270149 ) ) ;
#541 = VECTOR ( 'NONE', #467, 1000.000000000000114 ) ;
#542 = ADVANCED_FACE ( 'NONE', ( #265 ), #111, .F. ) ;
#543 = VECTOR ( 'NONE', #266, 1000.000000000000227 ) ;
#544 = LINE ( 'NONE', #452, #526 ) ;
#545 = ORIENTED_EDGE ( 'NONE', *, *, #350, .T. ) ;
#546 = DIRECTION ( 'NONE',  ( 0.000000000000000000, -1.000000000000000000, 0.000000000000000000 ) ) ;
#547 = ORIENTED_EDGE ( 'NONE', *, *, #391, .T. ) ;
#548 =( GEOMETRIC_REPRESENTATION_CONTEXT ( 3 ) GLOBAL_UNCERTAINTY_ASSIGNED_CONTEXT ( ( #168 ) ) GLOBAL_UNIT_ASSIGNED_CONTEXT ( ( #247, #488, #344 ) ) REPRESENTATION_CONTEXT ( 'NONE', 'WORKASPACE' ) );
#549 = DIRECTION ( 'NONE',  ( -0.1592207393636227153, -0.000000000000000000, 0.9872430076513589725 ) ) ;
#550 = ORIENTED_EDGE ( 'NONE', *, *, #457, .F. ) ;
#551 = APPLICATION_CONTEXT ( 'automotive_design' ) ;
#552 = CARTESIAN_POINT ( 'NONE',  ( 13.64710621236064902, 60.00000000000000000, -5.000000000000000000 ) ) ;
#553 = ORIENTED_EDGE ( 'NONE', *, *, #98, .F. ) ;
#554 = DIRECTION ( 'NONE',  ( 0.000000000000000000, -0.000000000000000000, 1.000000000000000000 ) ) ;
#555 = VERTEX_POINT ( 'NONE', #524 ) ;
#556 = EDGE_CURVE ( 'NONE', #520, #382, #183, .T. ) ;
#557 = DIRECTION ( 'NONE',  ( 0.4226182617407331366, -0.000000000000000000, 0.9063077870366342825 ) ) ;
#558 = FACE_OUTER_BOUND ( 'NONE', #262, .T. ) ;
#559 = EDGE_CURVE ( 'NONE', #256, #368, #307, .T. ) ;
#560 = EDGE_CURVE ( 'NONE', #252, #88, #41, .T. ) ;
#561 = CARTESIAN_POINT ( 'NONE',  ( 19.64710621236065435, 0.000000000000000000, 37.40095209280980271 ) ) ;
#562 = AXIS2_PLACEMENT_3D ( 'NONE', #123, #486, #159 ) ;
#563 = CARTESIAN_POINT ( 'NONE',  ( -0.7438428721629942730, 60.00000000000000000, 43.59927405108406617 ) ) ;
#564 = VERTEX_POINT ( 'NONE', #158 ) ;
#565 = VERTEX_POINT ( 'NONE', #253 ) ;
#566 = VECTOR ( 'NONE', #490, 1000.000000000000000 ) ;
#567 = PRODUCT_DEFINITION ( 'UNKNOWN', '', #342, #354 ) ;
#568 = CARTESIAN_POINT ( 'NONE',  ( -0.3822958739774228176, 0.000000000000000000, 46.74081567393471204 ) ) ;
#569 = CARTESIAN_POINT ( 'NONE',  ( -17.69061616664650316, 0.000000000000000000, 7.256801440761099897 ) ) ;
#570 = ORIENTED_EDGE ( 'NONE', *, *, #500, .F. ) ;
#571 = CARTESIAN_POINT ( 'NONE',  ( -17.31047873239971935, 60.00000000000000000, 8.072008799247997857 ) ) ;
#572 = CARTESIAN_POINT ( 'NONE',  ( 0.000000000000000000, 0.000000000000000000, 0.000000000000000000 ) ) ;
#573 = DIRECTION ( 'NONE',  ( -0.9063077870366541555, 0.000000000000000000, 0.4226182617406904485 ) ) ;
#574 = ORIENTED_EDGE ( 'NONE', *, *, #326, .T. ) ;
#575 = LINE ( 'NONE', #210, #415 ) ;
#576 = VERTEX_POINT ( 'NONE', #73 ) ;
#577 = VECTOR ( 'NONE', #549, 1000.000000000000227 ) ;
#578 = CARTESIAN_POINT ( 'NONE',  ( -0.7438428721629942730, 0.000000000000000000, 43.59927405108406617 ) ) ;
#579 = ORIENTED_EDGE ( 'NONE', *, *, #16, .T. ) ;
#580 = ORIENTED_EDGE ( 'NONE', *, *, #423, .F. ) ;
#581 = EDGE_CURVE ( 'NONE', #365, #114, #337, .T. ) ;
#582 = CARTESIAN_POINT ( 'NONE',  ( 16.98925412197745644, 0.000000000000000000, 36.43357303887270149 ) ) ;
#583 = DIRECTION ( 'NONE',  ( 0.000000000000000000, -1.000000000000000000, 0.000000000000000000 ) ) ;
#584 = LINE ( 'NONE', #533, #126 ) ;
#585 = EDGE_CURVE ( 'NONE', #205, #276, #436, .T. ) ;
#586 = FACE_OUTER_BOUND ( 'NONE', #475, .T. ) ;
#587 = DIRECTION ( 'NONE',  ( 0.9063077870366340605, 0.000000000000000000, -0.4226182617407336917 ) ) ;
#588 = CARTESIAN_POINT ( 'NONE',  ( 18.97580967129089302, 0.000000000000000000, 37.71398281080358572 ) ) ;
#589 = AXIS2_PLACEMENT_3D ( 'NONE', #380, #150, #573 ) ;
ENDSEC;
END-ISO-10303-21;
