ISO-10303-21;
HEADER;
FILE_DESCRIPTION (( 'STEP AP214' ),
    '1' );
FILE_NAME ('mid-v0.STEP',
    '2026-09-05T22:57:21',
    ( '' ),
    ( '' ),
    'SwSTEP 2.0',
    'SolidWorks 2026',
    '' );
FILE_SCHEMA (( 'AUTOMOTIVE_DESIGN' ));
ENDSEC;

DATA;
#1 = ORIENTED_EDGE ( 'NONE', *, *, #879, .T. ) ;
#2 = ORIENTED_EDGE ( 'NONE', *, *, #356, .T. ) ;
#3 = AXIS2_PLACEMENT_3D ( 'NONE', #1218, #1016, #232 ) ;
#4 = CARTESIAN_POINT ( 'NONE',  ( 33.85000000000000853, 55.50000000000000000, 8.000000000000000000 ) ) ;
#5 = CARTESIAN_POINT ( 'NONE',  ( 0.000000000000000000, 0.000000000000000000, 0.000000000000000000 ) ) ;
#6 = CARTESIAN_POINT ( 'NONE',  ( 10.96250985671064271, 1.342520260664200099E-15, 7.000000000000000000 ) ) ;
#7 = AXIS2_PLACEMENT_3D ( 'NONE', #211, #19, #417 ) ;
#8 = FACE_BOUND ( 'NONE', #914, .T. ) ;
#9 = ADVANCED_FACE ( 'NONE', ( #623 ), #923, .F. ) ;
#10 = LINE ( 'NONE', #108, #594 ) ;
#11 = VECTOR ( 'NONE', #34, 1000.000000000000000 ) ;
#12 = VERTEX_POINT ( 'NONE', #439 ) ;
#13 = DIRECTION ( 'NONE',  ( 1.000000000000000000, 0.000000000000000000, 0.000000000000000000 ) ) ;
#14 = DIRECTION ( 'NONE',  ( -0.000000000000000000, -0.000000000000000000, 1.000000000000000000 ) ) ;
#15 = ORIENTED_EDGE ( 'NONE', *, *, #939, .F. ) ;
#16 = DIRECTION ( 'NONE',  ( 0.000000000000000000, 0.000000000000000000, 1.000000000000000000 ) ) ;
#17 = DIRECTION ( 'NONE',  ( 1.000000000000000000, 0.000000000000000000, 0.000000000000000000 ) ) ;
#18 = VERTEX_POINT ( 'NONE', #1025 ) ;
#19 = DIRECTION ( 'NONE',  ( 0.000000000000000000, -1.000000000000000000, 0.000000000000000000 ) ) ;
#20 = CARTESIAN_POINT ( 'NONE',  ( 35.00000000000000711, 4.500000000000003553, 8.000000000000000000 ) ) ;
#21 = DIRECTION ( 'NONE',  ( -0.000000000000000000, -1.000000000000000000, -0.000000000000000000 ) ) ;
#22 = EDGE_CURVE ( 'NONE', #32, #539, #1202, .T. ) ;
#23 = ORIENTED_EDGE ( 'NONE', *, *, #116, .T. ) ;
#24 = AXIS2_PLACEMENT_3D ( 'NONE', #1034, #65, #1132 ) ;
#25 = DIRECTION ( 'NONE',  ( 1.000000000000000000, 0.000000000000000000, 0.000000000000000000 ) ) ;
#26 = ORIENTED_EDGE ( 'NONE', *, *, #612, .T. ) ;
#27 = DIRECTION ( 'NONE',  ( -0.000000000000000000, -0.000000000000000000, 1.000000000000000000 ) ) ;
#28 = VERTEX_POINT ( 'NONE', #830 ) ;
#29 = LINE ( 'NONE', #704, #156 ) ;
#30 = EDGE_CURVE ( 'NONE', #1018, #1100, #1229, .T. ) ;
#31 = ADVANCED_FACE ( 'NONE', ( #748 ), #80, .F. ) ;
#32 = VERTEX_POINT ( 'NONE', #560 ) ;
#33 = VECTOR ( 'NONE', #298, 1000.000000000000000 ) ;
#34 = DIRECTION ( 'NONE',  ( -1.000000000000000000, 0.000000000000000000, 0.000000000000000000 ) ) ;
#35 = ORIENTED_EDGE ( 'NONE', *, *, #387, .F. ) ;
#36 = DIRECTION ( 'NONE',  ( -1.000000000000000000, -1.387778780781445922E-16, 0.000000000000000000 ) ) ;
#37 = VECTOR ( 'NONE', #48, 1000.000000000000000 ) ;
#38 = ORIENTED_EDGE ( 'NONE', *, *, #799, .T. ) ;
#39 = CLOSED_SHELL ( 'NONE', ( #343, #258, #1268, #297, #766, #224, #744, #894, #367, #763, #692, #162, #1010, #31, #915, #1175, #982, #1250, #561, #647, #537, #1044, #252, #857, #205, #1149, #467, #82, #934, #1009, #189, #9, #1124, #1271, #416, #319, #1057, #977 ) ) ;
#40 = LINE ( 'NONE', #1195, #273 ) ;
#41 = ORIENTED_EDGE ( 'NONE', *, *, #1152, .F. ) ;
#42 = DIRECTION ( 'NONE',  ( 0.000000000000000000, -1.000000000000000000, 0.000000000000000000 ) ) ;
#43 = CARTESIAN_POINT ( 'NONE',  ( 5.000000000000007994, 55.50000000000000000, 0.000000000000000000 ) ) ;
#44 = ORIENTED_EDGE ( 'NONE', *, *, #990, .T. ) ;
#45 = VERTEX_POINT ( 'NONE', #771 ) ;
#46 = CARTESIAN_POINT ( 'NONE',  ( 35.00000000000000711, 55.50000000000000000, 0.000000000000000000 ) ) ;
#47 = ORIENTED_EDGE ( 'NONE', *, *, #169, .T. ) ;
#48 = DIRECTION ( 'NONE',  ( 1.000000000000000000, 0.000000000000000000, 0.000000000000000000 ) ) ;
#49 = LINE ( 'NONE', #1237, #526 ) ;
#50 = EDGE_LOOP ( 'NONE', ( #974, #364, #881, #1169 ) ) ;
#51 = ORIENTED_EDGE ( 'NONE', *, *, #624, .T. ) ;
#52 = VECTOR ( 'NONE', #657, 1000.000000000000000 ) ;
#53 = FACE_OUTER_BOUND ( 'NONE', #251, .T. ) ;
#54 = VERTEX_POINT ( 'NONE', #270 ) ;
#55 = CARTESIAN_POINT ( 'NONE',  ( 13.46250985671064626, 27.99999999999999645, 4.500000000000000888 ) ) ;
#56 = DIRECTION ( 'NONE',  ( -0.000000000000000000, -0.000000000000000000, 1.000000000000000000 ) ) ;
#57 = CARTESIAN_POINT ( 'NONE',  ( 9.000000000000001776, 23.00000000000000000, 1.500000000000000000 ) ) ;
#58 = EDGE_CURVE ( 'NONE', #92, #315, #860, .T. ) ;
#59 = CARTESIAN_POINT ( 'NONE',  ( 5.000000000000007994, 4.500000000000003553, 0.000000000000000000 ) ) ;
#60 = ORIENTED_EDGE ( 'NONE', *, *, #399, .F. ) ;
#61 = VECTOR ( 'NONE', #695, 1000.000000000000000 ) ;
#62 = CARTESIAN_POINT ( 'NONE',  ( 0.000000000000000000, 0.000000000000000000, 4.500000000000000888 ) ) ;
#63 = CARTESIAN_POINT ( 'NONE',  ( 32.50000000000000000, 57.99999999999999289, 8.000000000000000000 ) ) ;
#64 = EDGE_CURVE ( 'NONE', #781, #912, #264, .T. ) ;
#65 = DIRECTION ( 'NONE',  ( -1.224646799147353454E-16, 1.000000000000000000, 0.000000000000000000 ) ) ;
#66 = CARTESIAN_POINT ( 'NONE',  ( 21.00000000000000000, 20.90000000000000568, 1.500000000000000000 ) ) ;
#67 = ORIENTED_EDGE ( 'NONE', *, *, #58, .F. ) ;
#68 = CARTESIAN_POINT ( 'NONE',  ( 26.00000000000000355, 23.90000000000000213, 1.500000000000000000 ) ) ;
#69 = VECTOR ( 'NONE', #1139, 1000.000000000000000 ) ;
#70 = CARTESIAN_POINT ( 'NONE',  ( 21.00000000000000000, 23.90000000000000213, 1.500000000000000000 ) ) ;
#71 = CARTESIAN_POINT ( 'NONE',  ( 7.500000000000000000, 57.99999999999999289, 8.000000000000000000 ) ) ;
#72 = DIRECTION ( 'NONE',  ( 0.000000000000000000, 0.000000000000000000, 1.000000000000000000 ) ) ;
#73 = EDGE_CURVE ( 'NONE', #12, #817, #431, .T. ) ;
#74 = EDGE_LOOP ( 'NONE', ( #1030, #720, #60, #119 ) ) ;
#75 = DIRECTION ( 'NONE',  ( -1.000000000000000000, 0.000000000000000000, -0.000000000000000000 ) ) ;
#76 = EDGE_CURVE ( 'NONE', #448, #382, #697, .T. ) ;
#77 = AXIS2_PLACEMENT_3D ( 'NONE', #43, #829, #1060 ) ;
#78 = CARTESIAN_POINT ( 'NONE',  ( 10.96250985671064271, 0.8000000000000000444, 6.000000000000000000 ) ) ;
#79 = CARTESIAN_POINT ( 'NONE',  ( 9.000000000000001776, 23.00000000000000000, 0.000000000000000000 ) ) ;
#80 = CYLINDRICAL_SURFACE ( 'NONE', #1214, 1.149999999999999911 ) ;
#81 = UNCERTAINTY_MEASURE_WITH_UNIT (LENGTH_MEASURE( 1.000000000000000082E-05 ), #722, 'distance_accuracy_value', 'NONE');
#82 = ADVANCED_FACE ( 'NONE', ( #1048 ), #1246, .F. ) ;
#83 = EDGE_LOOP ( 'NONE', ( #182, #957, #855, #632 ) ) ;
#84 = ORIENTED_EDGE ( 'NONE', *, *, #581, .F. ) ;
#85 = DIRECTION ( 'NONE',  ( -0.000000000000000000, -0.000000000000000000, 1.000000000000000000 ) ) ;
#86 = DIRECTION ( 'NONE',  ( 0.000000000000000000, 0.000000000000000000, -1.000000000000000000 ) ) ;
#87 = CARTESIAN_POINT ( 'NONE',  ( 32.50000000000000000, 28.00000000000000000, 0.000000000000000000 ) ) ;
#88 = VERTEX_POINT ( 'NONE', #956 ) ;
#89 = ORIENTED_EDGE ( 'NONE', *, *, #896, .T. ) ;
#90 = CARTESIAN_POINT ( 'NONE',  ( 40.00000000000000000, 60.00000000000000711, 8.000000000000000000 ) ) ;
#91 = CARTESIAN_POINT ( 'NONE',  ( 7.500000000000003553, 27.99999999999999645, 8.000000000000000000 ) ) ;
#92 = VERTEX_POINT ( 'NONE', #947 ) ;
#93 = ORIENTED_EDGE ( 'NONE', *, *, #1249, .F. ) ;
#94 = DIRECTION ( 'NONE',  ( 1.000000000000000000, 0.000000000000000000, 0.000000000000000000 ) ) ;
#95 = DIRECTION ( 'NONE',  ( -0.000000000000000000, -0.000000000000000000, 1.000000000000000000 ) ) ;
#96 = VECTOR ( 'NONE', #95, 1000.000000000000000 ) ;
#97 = EDGE_LOOP ( 'NONE', ( #1163, #41, #449, #272 ) ) ;
#98 = EDGE_CURVE ( 'NONE', #278, #54, #599, .T. ) ;
#99 = EDGE_CURVE ( 'NONE', #610, #18, #847, .T. ) ;
#100 = ORIENTED_EDGE ( 'NONE', *, *, #495, .T. ) ;
#101 = VECTOR ( 'NONE', #313, 1000.000000000000000 ) ;
#102 = CARTESIAN_POINT ( 'NONE',  ( 13.46250985671064271, 27.99999999999998934, 6.000000000000000000 ) ) ;
#103 = PRODUCT_CONTEXT ( 'NONE', #107, 'mechanical' ) ;
#104 = DIRECTION ( 'NONE',  ( 1.000000000000000000, 0.000000000000000000, 0.000000000000000000 ) ) ;
#105 = ORIENTED_EDGE ( 'NONE', *, *, #192, .T. ) ;
#106 = CARTESIAN_POINT ( 'NONE',  ( 5.000000000000007994, 4.500000000000003553, 0.000000000000000000 ) ) ;
#107 = APPLICATION_CONTEXT ( 'automotive_design' ) ;
#108 = CARTESIAN_POINT ( 'NONE',  ( 40.00000000000000000, 4.898587196589413815E-15, 8.000000000000000000 ) ) ;
#109 = FACE_OUTER_BOUND ( 'NONE', #195, .T. ) ;
#110 = EDGE_CURVE ( 'NONE', #243, #28, #471, .T. ) ;
#111 = LINE ( 'NONE', #511, #262 ) ;
#112 = AXIS2_PLACEMENT_3D ( 'NONE', #726, #550, #240 ) ;
#113 = EDGE_CURVE ( 'NONE', #1176, #1156, #457, .T. ) ;
#114 = EDGE_LOOP ( 'NONE', ( #620, #250, #989, #51 ) ) ;
#115 = PLANE ( 'NONE',  #513 ) ;
#116 = EDGE_CURVE ( 'NONE', #1230, #425, #567, .T. ) ;
#117 = DIRECTION ( 'NONE',  ( 1.000000000000000000, 0.000000000000000000, 0.000000000000000000 ) ) ;
#118 = DIRECTION ( 'NONE',  ( 1.000000000000000000, 1.734723475976807094E-16, 0.000000000000000000 ) ) ;
#119 = ORIENTED_EDGE ( 'NONE', *, *, #1028, .T. ) ;
#120 = AXIS2_PLACEMENT_3D ( 'NONE', #1014, #27, #1224 ) ;
#121 = CARTESIAN_POINT ( 'NONE',  ( 32.50000000000000000, 57.99999999999999289, 8.000000000000000000 ) ) ;
#122 = ORIENTED_EDGE ( 'NONE', *, *, #820, .T. ) ;
#123 = EDGE_CURVE ( 'NONE', #1136, #290, #371, .T. ) ;
#124 = LINE ( 'NONE', #524, #498 ) ;
#125 = ORIENTED_EDGE ( 'NONE', *, *, #399, .T. ) ;
#126 = VERTEX_POINT ( 'NONE', #665 ) ;
#127 = VERTEX_POINT ( 'NONE', #1063 ) ;
#128 = CARTESIAN_POINT ( 'NONE',  ( 13.46250985671064626, 3.000000000000001332, 4.500000000000000888 ) ) ;
#129 = DIRECTION ( 'NONE',  ( 0.000000000000000000, 0.000000000000000000, -1.000000000000000000 ) ) ;
#130 = DIRECTION ( 'NONE',  ( 1.000000000000000000, 0.000000000000000000, 0.000000000000000000 ) ) ;
#131 = AXIS2_PLACEMENT_3D ( 'NONE', #973, #792, #992 ) ;
#132 = EDGE_CURVE ( 'NONE', #539, #576, #174, .T. ) ;
#133 = FACE_OUTER_BOUND ( 'NONE', #1198, .T. ) ;
#134 = ORIENTED_EDGE ( 'NONE', *, *, #415, .F. ) ;
#135 = DIRECTION ( 'NONE',  ( -0.000000000000000000, -0.000000000000000000, -1.000000000000000000 ) ) ;
#136 = DIRECTION ( 'NONE',  ( -1.000000000000000000, 0.000000000000000000, -0.000000000000000000 ) ) ;
#137 = ORIENTED_EDGE ( 'NONE', *, *, #1084, .F. ) ;
#138 = ORIENTED_EDGE ( 'NONE', *, *, #1197, .T. ) ;
#139 = LINE ( 'NONE', #608, #1115 ) ;
#140 = ORIENTED_EDGE ( 'NONE', *, *, #1197, .F. ) ;
#141 = CARTESIAN_POINT ( 'NONE',  ( 29.16250985671064200, 0.000000000000000000, 8.000000000000000000 ) ) ;
#142 = DIRECTION ( 'NONE',  ( 1.000000000000000000, 1.387778780781445922E-16, 0.000000000000000000 ) ) ;
#143 = VERTEX_POINT ( 'NONE', #733 ) ;
#144 = VERTEX_POINT ( 'NONE', #953 ) ;
#145 = LINE ( 'NONE', #564, #52 ) ;
#146 = ORIENTED_EDGE ( 'NONE', *, *, #1171, .T. ) ;
#147 = CARTESIAN_POINT ( 'NONE',  ( 15.00000000000000000, 34.00000000000000000, 0.000000000000000000 ) ) ;
#148 = SURFACE_STYLE_FILL_AREA ( #1131 ) ;
#149 = LINE ( 'NONE', #362, #749 ) ;
#150 = DIRECTION ( 'NONE',  ( 0.000000000000000000, 0.000000000000000000, 1.000000000000000000 ) ) ;
#151 = ORIENTED_EDGE ( 'NONE', *, *, #784, .F. ) ;
#152 = VECTOR ( 'NONE', #178, 1000.000000000000000 ) ;
#153 = EDGE_CURVE ( 'NONE', #1248, #45, #816, .T. ) ;
#154 = LINE ( 'NONE', #1158, #1068 ) ;
#155 = LINE ( 'NONE', #824, #473 ) ;
#156 = VECTOR ( 'NONE', #14, 1000.000000000000000 ) ;
#157 = DIRECTION ( 'NONE',  ( -0.000000000000000000, 0.000000000000000000, 1.000000000000000000 ) ) ;
#158 = CARTESIAN_POINT ( 'NONE',  ( 10.96250985671064271, 0.8000000000000000444, 7.000000000000000000 ) ) ;
#159 = EDGE_LOOP ( 'NONE', ( #874, #183, #407, #1209 ) ) ;
#160 = CIRCLE ( 'NONE', #613, 1.149999999999998135 ) ;
#161 = CARTESIAN_POINT ( 'NONE',  ( 3.850000000000008971, 55.50000000000000000, 8.000000000000000000 ) ) ;
#162 = ADVANCED_FACE ( 'NONE', ( #336 ), #622, .F. ) ;
#163 = CARTESIAN_POINT ( 'NONE',  ( 26.66250985671064910, 3.000000000000000888, 4.500000000000000888 ) ) ;
#164 = PLANE ( 'NONE',  #1046 ) ;
#165 = CARTESIAN_POINT ( 'NONE',  ( 35.00000000000000711, 4.500000000000003553, 0.000000000000000000 ) ) ;
#166 = PRODUCT_DEFINITION_CONTEXT ( 'detailed design', #1207, 'design' ) ;
#167 = ORIENTED_EDGE ( 'NONE', *, *, #291, .T. ) ;
#168 = EDGE_CURVE ( 'NONE', #592, #729, #433, .T. ) ;
#169 = EDGE_CURVE ( 'NONE', #54, #199, #353, .T. ) ;
#170 = VECTOR ( 'NONE', #1103, 1000.000000000000000 ) ;
#171 = CARTESIAN_POINT ( 'NONE',  ( 0.000000000000000000, 0.000000000000000000, 7.000000000000000000 ) ) ;
#172 = FACE_OUTER_BOUND ( 'NONE', #114, .T. ) ;
#173 = CARTESIAN_POINT ( 'NONE',  ( 26.00000000000000355, 20.90000000000000213, 1.500000000000000000 ) ) ;
#174 = LINE ( 'NONE', #574, #342 ) ;
#175 = EDGE_LOOP ( 'NONE', ( #707, #920 ) ) ;
#176 = ORIENTED_EDGE ( 'NONE', *, *, #578, .T. ) ;
#177 = VECTOR ( 'NONE', #85, 1000.000000000000000 ) ;
#178 = DIRECTION ( 'NONE',  ( 1.000000000000000000, 1.734723475976808080E-16, -0.000000000000000000 ) ) ;
#179 = PRESENTATION_LAYER_ASSIGNMENT (  '', '', ( #836 ) ) ;
#180 = FACE_OUTER_BOUND ( 'NONE', #507, .T. ) ;
#181 = CARTESIAN_POINT ( 'NONE',  ( 9.000000000000001776, 23.00000000000000000, 1.500000000000000000 ) ) ;
#182 = ORIENTED_EDGE ( 'NONE', *, *, #285, .T. ) ;
#183 = ORIENTED_EDGE ( 'NONE', *, *, #525, .T. ) ;
#184 = PLANE ( 'NONE',  #326 ) ;
#185 = DIRECTION ( 'NONE',  ( 1.000000000000000000, 0.000000000000000000, 0.000000000000000000 ) ) ;
#186 = ORIENTED_EDGE ( 'NONE', *, *, #356, .F. ) ;
#187 = ORIENTED_EDGE ( 'NONE', *, *, #320, .T. ) ;
#188 = CARTESIAN_POINT ( 'NONE',  ( 32.50000000000000000, 57.99999999999999289, 0.000000000000000000 ) ) ;
#189 = ADVANCED_FACE ( 'NONE', ( #1032 ), #1040, .F. ) ;
#190 = AXIS2_PLACEMENT_3D ( 'NONE', #1153, #380, #482 ) ;
#191 = CARTESIAN_POINT ( 'NONE',  ( 0.000000000000000000, 0.000000000000000000, 8.000000000000000000 ) ) ;
#192 = EDGE_CURVE ( 'NONE', #693, #576, #155, .T. ) ;
#193 = ORIENTED_EDGE ( 'NONE', *, *, #357, .T. ) ;
#194 = MANIFOLD_SOLID_BREP ( 'Cut-Extrude9', #39 ) ;
#195 = EDGE_LOOP ( 'NONE', ( #277, #350, #501, #1035 ) ) ;
#196 = DIRECTION ( 'NONE',  ( 0.000000000000000000, 0.000000000000000000, 1.000000000000000000 ) ) ;
#197 = DIRECTION ( 'NONE',  ( 0.000000000000000000, 0.000000000000000000, 1.000000000000000000 ) ) ;
#198 = VECTOR ( 'NONE', #294, 1000.000000000000000 ) ;
#199 = VERTEX_POINT ( 'NONE', #531 ) ;
#200 = AXIS2_PLACEMENT_3D ( 'NONE', #927, #239, #739 ) ;
#201 = LINE ( 'NONE', #790, #61 ) ;
#202 = VECTOR ( 'NONE', #929, 1000.000000000000000 ) ;
#203 = CARTESIAN_POINT ( 'NONE',  ( 6.150000000000007461, 55.50000000000000000, 0.000000000000000000 ) ) ;
#204 = EDGE_LOOP ( 'NONE', ( #646, #435, #783, #930 ) ) ;
#205 = ADVANCED_FACE ( 'NONE', ( #543 ), #837, .F. ) ;
#206 = FACE_OUTER_BOUND ( 'NONE', #490, .T. ) ;
#207 = FACE_OUTER_BOUND ( 'NONE', #204, .T. ) ;
#208 = EDGE_CURVE ( 'NONE', #425, #472, #422, .T. ) ;
#209 = PRODUCT_DEFINITION_FORMATION_WITH_SPECIFIED_SOURCE ( 'ANY', '', #616, .NOT_KNOWN. ) ;
#210 = VERTEX_POINT ( 'NONE', #1212 ) ;
#211 = CARTESIAN_POINT ( 'NONE',  ( 10.96250985671064626, 3.000000000000001332, 4.500000000000000888 ) ) ;
#212 = DIRECTION ( 'NONE',  ( 0.000000000000000000, 0.000000000000000000, 1.000000000000000000 ) ) ;
#213 = DIRECTION ( 'NONE',  ( -0.000000000000000000, -0.000000000000000000, -1.000000000000000000 ) ) ;
#214 = CIRCLE ( 'NONE', #553, 1.149999999999999023 ) ;
#215 = EDGE_CURVE ( 'NONE', #306, #592, #1138, .T. ) ;
#216 = CARTESIAN_POINT ( 'NONE',  ( 9.000000000000001776, 23.00000000000000000, 1.500000000000000000 ) ) ;
#217 = DIRECTION ( 'NONE',  ( -0.000000000000000000, 1.000000000000000000, -0.000000000000000000 ) ) ;
#218 = DIRECTION ( 'NONE',  ( 1.000000000000000000, 1.387778780781445922E-16, 0.000000000000000000 ) ) ;
#219 = ORIENTED_EDGE ( 'NONE', *, *, #465, .T. ) ;
#220 = VECTOR ( 'NONE', #991, 1000.000000000000000 ) ;
#221 = VERTEX_POINT ( 'NONE', #455 ) ;
#222 = ORIENTED_EDGE ( 'NONE', *, *, #485, .T. ) ;
#223 = CARTESIAN_POINT ( 'NONE',  ( 7.500000000000003553, 27.99999999999999645, 0.000000000000000000 ) ) ;
#224 = ADVANCED_FACE ( 'NONE', ( #1024 ), #324, .F. ) ;
#225 = DIRECTION ( 'NONE',  ( -0.000000000000000000, -0.000000000000000000, 1.000000000000000000 ) ) ;
#226 = EDGE_CURVE ( 'NONE', #382, #448, #281, .T. ) ;
#227 = ORIENTED_EDGE ( 'NONE', *, *, #885, .F. ) ;
#228 = VECTOR ( 'NONE', #261, 1000.000000000000000 ) ;
#229 = ORIENTED_EDGE ( 'NONE', *, *, #904, .T. ) ;
#230 =( NAMED_UNIT ( * ) PLANE_ANGLE_UNIT ( ) SI_UNIT ( $, .RADIAN. ) );
#231 = EDGE_LOOP ( 'NONE', ( #1185, #44, #318, #458 ) ) ;
#232 = DIRECTION ( 'NONE',  ( 0.000000000000000000, 0.000000000000000000, -1.000000000000000000 ) ) ;
#233 = DIRECTION ( 'NONE',  ( 1.000000000000000000, 1.387778780781446415E-16, 0.000000000000000000 ) ) ;
#234 = ORIENTED_EDGE ( 'NONE', *, *, #885, .T. ) ;
#235 = ORIENTED_EDGE ( 'NONE', *, *, #1088, .F. ) ;
#236 = MECHANICAL_DESIGN_GEOMETRIC_PRESENTATION_REPRESENTATION (  '', ( #836 ), #1232 ) ;
#237 = DIRECTION ( 'NONE',  ( -0.000000000000000000, -0.000000000000000000, 1.000000000000000000 ) ) ;
#238 = EDGE_LOOP ( 'NONE', ( #776, #661, #718, #383 ) ) ;
#239 = DIRECTION ( 'NONE',  ( 0.000000000000000000, 0.000000000000000000, 1.000000000000000000 ) ) ;
#240 = DIRECTION ( 'NONE',  ( -0.000000000000000000, 0.000000000000000000, -1.000000000000000000 ) ) ;
#241 = DIRECTION ( 'NONE',  ( -0.000000000000000000, 1.000000000000000000, -0.000000000000000000 ) ) ;
#242 = ORIENTED_EDGE ( 'NONE', *, *, #807, .T. ) ;
#243 = VERTEX_POINT ( 'NONE', #760 ) ;
#244 = LINE ( 'NONE', #965, #509 ) ;
#245 = ORIENTED_EDGE ( 'NONE', *, *, #168, .T. ) ;
#246 = LINE ( 'NONE', #147, #384 ) ;
#247 = DIRECTION ( 'NONE',  ( 1.000000000000000000, -0.000000000000000000, -0.000000000000000000 ) ) ;
#248 = EDGE_CURVE ( 'NONE', #1230, #605, #671, .T. ) ;
#249 = DIRECTION ( 'NONE',  ( -1.000000000000000000, -0.000000000000000000, -0.000000000000000000 ) ) ;
#250 = ORIENTED_EDGE ( 'NONE', *, *, #248, .F. ) ;
#251 = EDGE_LOOP ( 'NONE', ( #1, #138, #819, #23 ) ) ;
#252 = ADVANCED_FACE ( 'NONE', ( #172 ), #858, .F. ) ;
#253 = CARTESIAN_POINT ( 'NONE',  ( 26.66250985671064555, 27.99999999999999289, 6.000000000000000000 ) ) ;
#254 = DIRECTION ( 'NONE',  ( 1.000000000000000000, 1.224646799147353454E-16, 0.000000000000000000 ) ) ;
#255 = LINE ( 'NONE', #838, #69 ) ;
#256 = CARTESIAN_POINT ( 'NONE',  ( 0.000000000000000000, 0.000000000000000000, 8.000000000000000000 ) ) ;
#257 = EDGE_LOOP ( 'NONE', ( #499, #1275, #593, #265 ) ) ;
#258 = ADVANCED_FACE ( 'NONE', ( #461 ), #872, .F. ) ;
#259 = VECTOR ( 'NONE', #988, 1000.000000000000000 ) ;
#260 = FACE_OUTER_BOUND ( 'NONE', #546, .T. ) ;
#261 = DIRECTION ( 'NONE',  ( -0.000000000000000000, 1.000000000000000000, -0.000000000000000000 ) ) ;
#262 = VECTOR ( 'NONE', #21, 1000.000000000000000 ) ;
#263 = DIRECTION ( 'NONE',  ( 1.000000000000000000, 1.387778780781445922E-16, 0.000000000000000000 ) ) ;
#264 = LINE ( 'NONE', #256, #266 ) ;
#265 = ORIENTED_EDGE ( 'NONE', *, *, #300, .T. ) ;
#266 = VECTOR ( 'NONE', #463, 1000.000000000000000 ) ;
#267 = LINE ( 'NONE', #475, #730 ) ;
#268 = LINE ( 'NONE', #63, #1144 ) ;
#269 = CARTESIAN_POINT ( 'NONE',  ( 35.00000000000000711, 4.500000000000003553, 0.000000000000000000 ) ) ;
#270 = CARTESIAN_POINT ( 'NONE',  ( 6.150000000000007461, 4.500000000000003553, 0.000000000000000000 ) ) ;
#271 = ORIENTED_EDGE ( 'NONE', *, *, #951, .T. ) ;
#272 = ORIENTED_EDGE ( 'NONE', *, *, #649, .T. ) ;
#273 = VECTOR ( 'NONE', #429, 1000.000000000000000 ) ;
#274 = LINE ( 'NONE', #253, #943 ) ;
#275 = CARTESIAN_POINT ( 'NONE',  ( 26.00000000000000355, 20.90000000000000213, 1.500000000000000000 ) ) ;
#276 = DIRECTION ( 'NONE',  ( 1.000000000000000000, 1.387778780781445922E-16, 0.000000000000000000 ) ) ;
#277 = ORIENTED_EDGE ( 'NONE', *, *, #784, .T. ) ;
#278 = VERTEX_POINT ( 'NONE', #368 ) ;
#279 = VECTOR ( 'NONE', #773, 1000.000000000000000 ) ;
#280 = PLANE ( 'NONE',  #607 ) ;
#281 = CIRCLE ( 'NONE', #77, 1.149999999999999023 ) ;
#282 = CARTESIAN_POINT ( 'NONE',  ( 36.15000000000000568, 55.50000000000000000, 0.000000000000000000 ) ) ;
#283 = DIRECTION ( 'NONE',  ( -0.000000000000000000, -1.000000000000000000, -0.000000000000000000 ) ) ;
#284 = ORIENTED_EDGE ( 'NONE', *, *, #625, .T. ) ;
#285 = EDGE_CURVE ( 'NONE', #18, #1134, #1172, .T. ) ;
#286 = FACE_BOUND ( 'NONE', #395, .T. ) ;
#287 = VECTOR ( 'NONE', #908, 1000.000000000000000 ) ;
#288 = PLANE ( 'NONE',  #880 ) ;
#289 = VERTEX_POINT ( 'NONE', #282 ) ;
#290 = VERTEX_POINT ( 'NONE', #1165 ) ;
#291 = EDGE_CURVE ( 'NONE', #491, #1204, #753, .T. ) ;
#292 = CARTESIAN_POINT ( 'NONE',  ( 0.000000000000000000, 0.000000000000000000, 1.500000000000000000 ) ) ;
#293 = VECTOR ( 'NONE', #663, 1000.000000000000000 ) ;
#294 = DIRECTION ( 'NONE',  ( 0.000000000000000000, 1.000000000000000000, 0.000000000000000000 ) ) ;
#295 = VERTEX_POINT ( 'NONE', #1273 ) ;
#296 = PLANE ( 'NONE',  #1004 ) ;
#297 = ADVANCED_FACE ( 'NONE', ( #180 ), #361, .F. ) ;
#298 = DIRECTION ( 'NONE',  ( -0.000000000000000000, -0.000000000000000000, 1.000000000000000000 ) ) ;
#299 = CIRCLE ( 'NONE', #131, 1.149999999999998135 ) ;
#300 = EDGE_CURVE ( 'NONE', #306, #1134, #959, .T. ) ;
#301 = ORIENTED_EDGE ( 'NONE', *, *, #990, .F. ) ;
#302 = EDGE_CURVE ( 'NONE', #932, #1018, #1265, .T. ) ;
#303 = DIRECTION ( 'NONE',  ( 0.000000000000000000, -0.000000000000000000, 1.000000000000000000 ) ) ;
#304 = AXIS2_PLACEMENT_3D ( 'NONE', #59, #1255, #363 ) ;
#305 = CARTESIAN_POINT ( 'NONE',  ( 10.96250985671064271, 1.342520260664200099E-15, 6.000000000000000000 ) ) ;
#306 = VERTEX_POINT ( 'NONE', #70 ) ;
#307 = LINE ( 'NONE', #411, #1239 ) ;
#308 = FACE_OUTER_BOUND ( 'NONE', #1076, .T. ) ;
#309 = LINE ( 'NONE', #895, #758 ) ;
#310 = ORIENTED_EDGE ( 'NONE', *, *, #169, .F. ) ;
#311 = LINE ( 'NONE', #408, #287 ) ;
#312 = DIRECTION ( 'NONE',  ( 0.000000000000000000, 0.000000000000000000, 1.000000000000000000 ) ) ;
#313 = DIRECTION ( 'NONE',  ( -0.000000000000000000, -1.000000000000000000, -0.000000000000000000 ) ) ;
#314 = VECTOR ( 'NONE', #696, 1000.000000000000000 ) ;
#315 = VERTEX_POINT ( 'NONE', #1259 ) ;
#316 = ORIENTED_EDGE ( 'NONE', *, *, #964, .F. ) ;
#317 = AXIS2_PLACEMENT_3D ( 'NONE', #305, #906, #996 ) ;
#318 = ORIENTED_EDGE ( 'NONE', *, *, #1168, .T. ) ;
#319 = ADVANCED_FACE ( 'NONE', ( #972 ), #966, .F. ) ;
#320 = EDGE_CURVE ( 'NONE', #817, #12, #570, .T. ) ;
#321 = LINE ( 'NONE', #627, #994 ) ;
#322 = EDGE_LOOP ( 'NONE', ( #942, #1110, #809, #803, #586, #1148, #137, #1022, #1083, #736, #529, #750 ) ) ;
#323 = CARTESIAN_POINT ( 'NONE',  ( 26.00000000000000355, 20.90000000000000213, 0.000000000000000000 ) ) ;
#324 = PLANE ( 'NONE',  #405 ) ;
#325 = ORIENTED_EDGE ( 'NONE', *, *, #690, .F. ) ;
#326 = AXIS2_PLACEMENT_3D ( 'NONE', #882, #1186, #976 ) ;
#327 = ORIENTED_EDGE ( 'NONE', *, *, #706, .F. ) ;
#328 = CYLINDRICAL_SURFACE ( 'NONE', #120, 1.149999999999999023 ) ;
#329 = ORIENTED_EDGE ( 'NONE', *, *, #1028, .F. ) ;
#330 = CARTESIAN_POINT ( 'NONE',  ( 15.00000000000000000, 23.00000000000000000, 1.500000000000000000 ) ) ;
#331 = PRESENTATION_STYLE_ASSIGNMENT (( #1122 ) ) ;
#332 = CARTESIAN_POINT ( 'NONE',  ( 0.000000000000000000, 0.000000000000000000, 1.500000000000000000 ) ) ;
#333 = CARTESIAN_POINT ( 'NONE',  ( 29.16250985671064555, 28.00000000000000000, 4.500000000000000888 ) ) ;
#334 = ORIENTED_EDGE ( 'NONE', *, *, #705, .T. ) ;
#335 = DIRECTION ( 'NONE',  ( 0.000000000000000000, 0.000000000000000000, 1.000000000000000000 ) ) ;
#336 = FACE_OUTER_BOUND ( 'NONE', #842, .T. ) ;
#337 = CARTESIAN_POINT ( 'NONE',  ( 6.150000000000007461, 55.50000000000000000, 0.000000000000000000 ) ) ;
#338 = VERTEX_POINT ( 'NONE', #865 ) ;
#339 = VECTOR ( 'NONE', #662, 1000.000000000000000 ) ;
#340 = EDGE_CURVE ( 'NONE', #430, #1100, #268, .T. ) ;
#341 = ORIENTED_EDGE ( 'NONE', *, *, #22, .F. ) ;
#342 = VECTOR ( 'NONE', #1244, 1000.000000000000000 ) ;
#343 = ADVANCED_FACE ( 'NONE', ( #1061 ), #946, .F. ) ;
#344 = DIRECTION ( 'NONE',  ( 1.000000000000000000, 0.000000000000000000, 0.000000000000000000 ) ) ;
#345 = ORIENTED_EDGE ( 'NONE', *, *, #1102, .F. ) ;
#346 = DIRECTION ( 'NONE',  ( 0.000000000000000000, 0.000000000000000000, -1.000000000000000000 ) ) ;
#347 = CARTESIAN_POINT ( 'NONE',  ( 29.16250985671064555, 3.000000000000001332, 4.500000000000000888 ) ) ;
#348 = DIRECTION ( 'NONE',  ( 0.000000000000000000, 0.000000000000000000, 1.000000000000000000 ) ) ;
#349 = ORIENTED_EDGE ( 'NONE', *, *, #1141, .F. ) ;
#350 = ORIENTED_EDGE ( 'NONE', *, *, #667, .F. ) ;
#351 = PLANE ( 'NONE',  #674 ) ;
#352 = CARTESIAN_POINT ( 'NONE',  ( 10.96250985671064626, 3.000000000000001332, 6.000000000000000000 ) ) ;
#353 = LINE ( 'NONE', #935, #1020 ) ;
#354 = DIRECTION ( 'NONE',  ( -0.000000000000000000, -0.000000000000000000, 1.000000000000000000 ) ) ;
#355 = DIRECTION ( 'NONE',  ( 1.000000000000000000, 0.000000000000000000, 0.000000000000000000 ) ) ;
#356 = EDGE_CURVE ( 'NONE', #568, #781, #370, .T. ) ;
#357 = EDGE_CURVE ( 'NONE', #199, #1071, #359, .T. ) ;
#358 = ORIENTED_EDGE ( 'NONE', *, *, #705, .F. ) ;
#359 = CIRCLE ( 'NONE', #588, 1.149999999999999911 ) ;
#360 = LINE ( 'NONE', #443, #777 ) ;
#361 = CYLINDRICAL_SURFACE ( 'NONE', #190, 1.149999999999999911 ) ;
#362 = CARTESIAN_POINT ( 'NONE',  ( 7.500000000000003553, 27.99999999999999645, 8.000000000000000000 ) ) ;
#363 = DIRECTION ( 'NONE',  ( 1.000000000000000000, 0.000000000000000000, 0.000000000000000000 ) ) ;
#364 = ORIENTED_EDGE ( 'NONE', *, *, #845, .T. ) ;
#365 = VECTOR ( 'NONE', #354, 1000.000000000000000 ) ;
#366 = DIRECTION ( 'NONE',  ( -0.000000000000000000, -0.000000000000000000, 1.000000000000000000 ) ) ;
#367 = ADVANCED_FACE ( 'NONE', ( #955 ), #1146, .F. ) ;
#368 = CARTESIAN_POINT ( 'NONE',  ( 3.850000000000008082, 4.500000000000003553, 0.000000000000000000 ) ) ;
#369 = VECTOR ( 'NONE', #213, 1000.000000000000000 ) ;
#370 = LINE ( 'NONE', #659, #688 ) ;
#371 = LINE ( 'NONE', #764, #732 ) ;
#372 = ORIENTED_EDGE ( 'NONE', *, *, #890, .T. ) ;
#373 = ORIENTED_EDGE ( 'NONE', *, *, #426, .F. ) ;
#374 = PLANE ( 'NONE',  #1099 ) ;
#375 = DIRECTION ( 'NONE',  ( 1.000000000000000000, 0.000000000000000000, 0.000000000000000000 ) ) ;
#376 = DIRECTION ( 'NONE',  ( 1.387778780781445922E-16, -1.000000000000000000, 0.000000000000000000 ) ) ;
#377 = CARTESIAN_POINT ( 'NONE',  ( 5.000000000000007994, 4.500000000000003553, 0.000000000000000000 ) ) ;
#378 = VERTEX_POINT ( 'NONE', #470 ) ;
#379 = CARTESIAN_POINT ( 'NONE',  ( 9.000000000000001776, 34.00000000000000000, 1.500000000000000000 ) ) ;
#380 = DIRECTION ( 'NONE',  ( -0.000000000000000000, -0.000000000000000000, 1.000000000000000000 ) ) ;
#381 = DIRECTION ( 'NONE',  ( 1.000000000000000000, 0.000000000000000000, 0.000000000000000000 ) ) ;
#382 = VERTEX_POINT ( 'NONE', #337 ) ;
#383 = ORIENTED_EDGE ( 'NONE', *, *, #110, .F. ) ;
#384 = VECTOR ( 'NONE', #944, 1000.000000000000000 ) ;
#385 = FACE_OUTER_BOUND ( 'NONE', #600, .T. ) ;
#386 = CARTESIAN_POINT ( 'NONE',  ( 10.96250985671064271, 0.8000000000000000444, 7.000000000000000000 ) ) ;
#387 = EDGE_CURVE ( 'NONE', #127, #491, #49, .T. ) ;
#388 = CIRCLE ( 'NONE', #818, 1.149999999999998135 ) ;
#389 = ORIENTED_EDGE ( 'NONE', *, *, #437, .T. ) ;
#390 = ORIENTED_EDGE ( 'NONE', *, *, #320, .F. ) ;
#391 = DIRECTION ( 'NONE',  ( -1.387778780781446415E-16, 1.000000000000000000, -0.000000000000000000 ) ) ;
#392 = CIRCLE ( 'NONE', #516, 1.149999999999999911 ) ;
#393 = LINE ( 'NONE', #1069, #198 ) ;
#394 = EDGE_CURVE ( 'NONE', #1156, #430, #149, .T. ) ;
#395 = EDGE_LOOP ( 'NONE', ( #1036, #1038 ) ) ;
#396 = CARTESIAN_POINT ( 'NONE',  ( 26.66250985671064555, 27.99999999999999289, 4.500000000000000888 ) ) ;
#397 = CIRCLE ( 'NONE', #828, 1.149999999999998135 ) ;
#398 = APPLICATION_PROTOCOL_DEFINITION ( 'draft international standard', 'automotive_design', 1998, #107 ) ;
#399 = EDGE_CURVE ( 'NONE', #729, #610, #255, .T. ) ;
#400 = AXIS2_PLACEMENT_3D ( 'NONE', #769, #774, #1053 ) ;
#401 = EDGE_CURVE ( 'NONE', #639, #932, #762, .T. ) ;
#402 = LINE ( 'NONE', #386, #1089 ) ;
#403 = EDGE_LOOP ( 'NONE', ( #122, #628, #869, #134 ) ) ;
#404 = LINE ( 'NONE', #795, #1054 ) ;
#405 = AXIS2_PLACEMENT_3D ( 'NONE', #1017, #129, #136 ) ;
#406 = DIRECTION ( 'NONE',  ( -1.000000000000000000, -0.000000000000000000, -0.000000000000000000 ) ) ;
#407 = ORIENTED_EDGE ( 'NONE', *, *, #916, .T. ) ;
#408 = CARTESIAN_POINT ( 'NONE',  ( 10.96250985671064626, 3.000000000000001332, 4.500000000000000888 ) ) ;
#409 = DIRECTION ( 'NONE',  ( -0.000000000000000000, -0.000000000000000000, 1.000000000000000000 ) ) ;
#410 = LINE ( 'NONE', #802, #883 ) ;
#411 = CARTESIAN_POINT ( 'NONE',  ( 10.96250985671064271, 0.8000000000000000444, 7.000000000000000000 ) ) ;
#412 = LINE ( 'NONE', #931, #170 ) ;
#413 = CARTESIAN_POINT ( 'NONE',  ( 15.00000000000000000, 27.99999999999999645, 1.500000000000000000 ) ) ;
#414 = ORIENTED_EDGE ( 'NONE', *, *, #30, .T. ) ;
#415 = EDGE_CURVE ( 'NONE', #639, #641, #754, .T. ) ;
#416 = ADVANCED_FACE ( 'NONE', ( #1254 ), #447, .F. ) ;
#417 = DIRECTION ( 'NONE',  ( 0.000000000000000000, -0.000000000000000000, -1.000000000000000000 ) ) ;
#418 = ORIENTED_EDGE ( 'NONE', *, *, #534, .F. ) ;
#419 = DIRECTION ( 'NONE',  ( -1.000000000000000000, -1.156482317317871725E-16, 0.000000000000000000 ) ) ;
#420 = ORIENTED_EDGE ( 'NONE', *, *, #123, .T. ) ;
#421 = CARTESIAN_POINT ( 'NONE',  ( 29.16250985671064200, 1.342520260664200099E-15, 7.000000000000000000 ) ) ;
#422 = LINE ( 'NONE', #347, #899 ) ;
#423 = PRODUCT_DEFINITION_SHAPE ( 'NONE', 'NONE',  #1118 ) ;
#424 = VECTOR ( 'NONE', #1160, 1000.000000000000000 ) ;
#425 = VERTEX_POINT ( 'NONE', #859 ) ;
#426 = EDGE_CURVE ( 'NONE', #45, #1065, #477, .T. ) ;
#427 = VECTOR ( 'NONE', #42, 1000.000000000000000 ) ;
#428 = ORIENTED_EDGE ( 'NONE', *, *, #799, .F. ) ;
#429 = DIRECTION ( 'NONE',  ( -1.000000000000000000, -0.000000000000000000, -0.000000000000000000 ) ) ;
#430 = VERTEX_POINT ( 'NONE', #960 ) ;
#431 = CIRCLE ( 'NONE', #761, 1.149999999999998135 ) ;
#432 = DIRECTION ( 'NONE',  ( 1.734723475976807094E-16, -1.000000000000000000, 0.000000000000000000 ) ) ;
#433 = LINE ( 'NONE', #928, #675 ) ;
#434 = VERTEX_POINT ( 'NONE', #71 ) ;
#435 = ORIENTED_EDGE ( 'NONE', *, *, #30, .F. ) ;
#436 = FACE_BOUND ( 'NONE', #1256, .T. ) ;
#437 = EDGE_CURVE ( 'NONE', #295, #1204, #573, .T. ) ;
#438 = DIRECTION ( 'NONE',  ( 1.000000000000000000, 0.000000000000000000, 0.000000000000000000 ) ) ;
#439 = CARTESIAN_POINT ( 'NONE',  ( 33.85000000000000853, 4.500000000000003553, 0.000000000000000000 ) ) ;
#440 = AXIS2_PLACEMENT_3D ( 'NONE', #813, #1097, #312 ) ;
#441 = ORIENTED_EDGE ( 'NONE', *, *, #1171, .F. ) ;
#442 = EDGE_CURVE ( 'NONE', #479, #144, #741, .T. ) ;
#443 = CARTESIAN_POINT ( 'NONE',  ( 3.850000000000008971, 55.50000000000000000, 0.000000000000000000 ) ) ;
#444 = VERTEX_POINT ( 'NONE', #1228 ) ;
#445 = FACE_BOUND ( 'NONE', #1240, .T. ) ;
#446 =( LENGTH_UNIT ( ) NAMED_UNIT ( * ) SI_UNIT ( .MILLI., .METRE. ) );
#447 = PLANE ( 'NONE',  #789 ) ;
#448 = VERTEX_POINT ( 'NONE', #1041 ) ;
#449 = ORIENTED_EDGE ( 'NONE', *, *, #525, .F. ) ;
#450 = AXIS2_PLACEMENT_3D ( 'NONE', #746, #438, #1220 ) ;
#451 = DIRECTION ( 'NONE',  ( -0.000000000000000000, -0.000000000000000000, -1.000000000000000000 ) ) ;
#452 = EDGE_LOOP ( 'NONE', ( #284, #1043, #721, #474, #1072, #38, #418, #1064, #891, #716, #140, #527, #1225, #1112, #887, #898 ) ) ;
#453 = FACE_OUTER_BOUND ( 'NONE', #535, .T. ) ;
#454 = EDGE_CURVE ( 'NONE', #126, #289, #861, .T. ) ;
#455 = CARTESIAN_POINT ( 'NONE',  ( 10.96250985671064626, 3.000000000000001332, 4.500000000000000888 ) ) ;
#456 = LINE ( 'NONE', #747, #365 ) ;
#457 = LINE ( 'NONE', #660, #1126 ) ;
#458 = ORIENTED_EDGE ( 'NONE', *, *, #1222, .F. ) ;
#459 = VECTOR ( 'NONE', #900, 1000.000000000000000 ) ;
#460 = DIRECTION ( 'NONE',  ( -0.000000000000000000, -0.000000000000000000, -1.000000000000000000 ) ) ;
#461 = FACE_OUTER_BOUND ( 'NONE', #50, .T. ) ;
#462 = DIRECTION ( 'NONE',  ( 0.000000000000000000, 0.000000000000000000, 1.000000000000000000 ) ) ;
#463 = DIRECTION ( 'NONE',  ( 1.000000000000000000, 1.224646799147353454E-16, 0.000000000000000000 ) ) ;
#464 = VERTEX_POINT ( 'NONE', #57 ) ;
#465 = EDGE_CURVE ( 'NONE', #289, #338, #456, .T. ) ;
#466 = VECTOR ( 'NONE', #348, 1000.000000000000000 ) ;
#467 = ADVANCED_FACE ( 'NONE', ( #651 ), #164, .T. ) ;
#468 = DIRECTION ( 'NONE',  ( 0.000000000000000000, 0.000000000000000000, -1.000000000000000000 ) ) ;
#469 = CARTESIAN_POINT ( 'NONE',  ( 21.00000000000000000, 23.90000000000000213, 1.500000000000000000 ) ) ;
#470 = CARTESIAN_POINT ( 'NONE',  ( 10.96250985671064271, 0.8000000000000000444, 7.000000000000000000 ) ) ;
#471 = LINE ( 'NONE', #755, #1266 ) ;
#472 = VERTEX_POINT ( 'NONE', #1178 ) ;
#473 = VECTOR ( 'NONE', #225, 1000.000000000000000 ) ;
#474 = ORIENTED_EDGE ( 'NONE', *, *, #1181, .T. ) ;
#475 = CARTESIAN_POINT ( 'NONE',  ( 0.000000000000000000, 60.00000000000000000, 8.000000000000000000 ) ) ;
#476 = DIRECTION ( 'NONE',  ( -0.000000000000000000, -0.000000000000000000, -1.000000000000000000 ) ) ;
#477 = LINE ( 'NONE', #1245, #424 ) ;
#478 = CARTESIAN_POINT ( 'NONE',  ( 7.500000000000003553, 27.99999999999999645, 6.000000000000000000 ) ) ;
#479 = VERTEX_POINT ( 'NONE', #591 ) ;
#480 = AXIS2_PLACEMENT_3D ( 'NONE', #332, #808, #130 ) ;
#481 = DIRECTION ( 'NONE',  ( -1.000000000000000000, 0.000000000000000000, 0.000000000000000000 ) ) ;
#482 = DIRECTION ( 'NONE',  ( 1.000000000000000000, 0.000000000000000000, 0.000000000000000000 ) ) ;
#483 = LINE ( 'NONE', #775, #694 ) ;
#484 = ORIENTED_EDGE ( 'NONE', *, *, #454, .F. ) ;
#485 = EDGE_CURVE ( 'NONE', #378, #1204, #402, .T. ) ;
#486 = ORIENTED_EDGE ( 'NONE', *, *, #619, .T. ) ;
#487 = LINE ( 'NONE', #689, #177 ) ;
#488 = EDGE_CURVE ( 'NONE', #912, #676, #10, .T. ) ;
#489 = CARTESIAN_POINT ( 'NONE',  ( 10.96250985671064271, 27.99999999999998934, 4.500000000000000888 ) ) ;
#490 = EDGE_LOOP ( 'NONE', ( #301, #390, #984, #757 ) ) ;
#491 = VERTEX_POINT ( 'NONE', #1166 ) ;
#492 = CIRCLE ( 'NONE', #812, 1.149999999999999911 ) ;
#493 = PLANE ( 'NONE',  #1241 ) ;
#494 = DIRECTION ( 'NONE',  ( 0.000000000000000000, 0.000000000000000000, 1.000000000000000000 ) ) ;
#495 = EDGE_CURVE ( 'NONE', #338, #1049, #299, .T. ) ;
#496 = DIRECTION ( 'NONE',  ( -0.000000000000000000, -0.000000000000000000, 1.000000000000000000 ) ) ;
#497 = EDGE_CURVE ( 'NONE', #932, #430, #1188, .T. ) ;
#498 = VECTOR ( 'NONE', #921, 1000.000000000000000 ) ;
#499 = ORIENTED_EDGE ( 'NONE', *, *, #939, .T. ) ;
#500 = AXIS2_PLACEMENT_3D ( 'NONE', #652, #72, #355 ) ;
#501 = ORIENTED_EDGE ( 'NONE', *, *, #1109, .F. ) ;
#502 = CARTESIAN_POINT ( 'NONE',  ( 3.850000000000008082, 4.500000000000003553, 8.000000000000000000 ) ) ;
#503 = DIRECTION ( 'NONE',  ( 0.000000000000000000, 1.000000000000000000, 0.000000000000000000 ) ) ;
#504 = ORIENTED_EDGE ( 'NONE', *, *, #226, .F. ) ;
#505 = DIRECTION ( 'NONE',  ( 0.000000000000000000, 0.000000000000000000, 1.000000000000000000 ) ) ;
#506 = CARTESIAN_POINT ( 'NONE',  ( 0.000000000000000000, 60.00000000000000000, 8.000000000000000000 ) ) ;
#507 = EDGE_LOOP ( 'NONE', ( #979, #486, #26, #310 ) ) ;
#508 = CARTESIAN_POINT ( 'NONE',  ( 9.000000000000001776, 23.00000000000000000, 1.500000000000000000 ) ) ;
#509 = VECTOR ( 'NONE', #577, 1000.000000000000000 ) ;
#510 = COLOUR_RGB ( '',0.7921568627450980005, 0.8196078431372548767, 0.9333333333333333481 ) ;
#511 = CARTESIAN_POINT ( 'NONE',  ( 0.000000000000000000, 0.000000000000000000, 0.000000000000000000 ) ) ;
#512 = VERTEX_POINT ( 'NONE', #867 ) ;
#513 = AXIS2_PLACEMENT_3D ( 'NONE', #216, #702, #521 ) ;
#514 = DIRECTION ( 'NONE',  ( 1.000000000000000000, 0.000000000000000000, 0.000000000000000000 ) ) ;
#515 = CARTESIAN_POINT ( 'NONE',  ( 29.16250985671064200, 27.99999999999999289, 4.500000000000000888 ) ) ;
#516 = AXIS2_PLACEMENT_3D ( 'NONE', #106, #505, #13 ) ;
#517 = LINE ( 'NONE', #421, #712 ) ;
#518 = EDGE_CURVE ( 'NONE', #126, #1049, #1080, .T. ) ;
#519 = ORIENTED_EDGE ( 'NONE', *, *, #807, .F. ) ;
#520 = ORIENTED_EDGE ( 'NONE', *, *, #116, .F. ) ;
#521 = DIRECTION ( 'NONE',  ( 0.000000000000000000, -0.000000000000000000, -1.000000000000000000 ) ) ;
#522 = ORIENTED_EDGE ( 'NONE', *, *, #667, .T. ) ;
#523 = CARTESIAN_POINT ( 'NONE',  ( 0.000000000000000000, 0.000000000000000000, 0.000000000000000000 ) ) ;
#524 = CARTESIAN_POINT ( 'NONE',  ( 26.66250985671064555, 27.99999999999999289, 4.500000000000000888 ) ) ;
#525 = EDGE_CURVE ( 'NONE', #727, #464, #585, .T. ) ;
#526 = VECTOR ( 'NONE', #1260, 1000.000000000000000 ) ;
#527 = ORIENTED_EDGE ( 'NONE', *, *, #113, .T. ) ;
#528 = ORIENTED_EDGE ( 'NONE', *, *, #1127, .T. ) ;
#529 = ORIENTED_EDGE ( 'NONE', *, *, #22, .T. ) ;
#530 = CARTESIAN_POINT ( 'NONE',  ( 10.96250985671064271, 1.342520260664200099E-15, 7.000000000000000000 ) ) ;
#531 = CARTESIAN_POINT ( 'NONE',  ( 6.150000000000007461, 4.500000000000003553, 8.000000000000000000 ) ) ;
#532 = VECTOR ( 'NONE', #787, 1000.000000000000000 ) ;
#533 = ORIENTED_EDGE ( 'NONE', *, *, #940, .F. ) ;
#534 = EDGE_CURVE ( 'NONE', #825, #554, #1267, .T. ) ;
#535 = EDGE_LOOP ( 'NONE', ( #863, #970, #937, #373 ) ) ;
#536 = LINE ( 'NONE', #1039, #427 ) ;
#537 = ADVANCED_FACE ( 'NONE', ( #685 ), #288, .F. ) ;
#538 = CARTESIAN_POINT ( 'NONE',  ( 0.000000000000000000, 0.000000000000000000, 8.000000000000000000 ) ) ;
#539 = VERTEX_POINT ( 'NONE', #191 ) ;
#540 = CARTESIAN_POINT ( 'NONE',  ( 7.500000000000000000, 57.99999999999999289, 0.000000000000000000 ) ) ;
#541 = ORIENTED_EDGE ( 'NONE', *, *, #706, .T. ) ;
#542 = LINE ( 'NONE', #549, #987 ) ;
#543 = FACE_OUTER_BOUND ( 'NONE', #687, .T. ) ;
#544 = DIRECTION ( 'NONE',  ( 1.000000000000000000, -6.938893903907227392E-16, 0.000000000000000000 ) ) ;
#545 = EDGE_LOOP ( 'NONE', ( #242, #875 ) ) ;
#546 = EDGE_LOOP ( 'NONE', ( #1140, #519, #219, #100 ) ) ;
#547 = DIRECTION ( 'NONE',  ( 0.000000000000000000, 0.000000000000000000, -1.000000000000000000 ) ) ;
#548 = ORIENTED_EDGE ( 'NONE', *, *, #1078, .F. ) ;
#549 = CARTESIAN_POINT ( 'NONE',  ( 0.000000000000000000, 60.00000000000000000, 8.000000000000000000 ) ) ;
#550 = DIRECTION ( 'NONE',  ( 1.000000000000000000, 0.000000000000000000, -0.000000000000000000 ) ) ;
#551 = DIRECTION ( 'NONE',  ( 1.000000000000000000, 0.000000000000000000, 0.000000000000000000 ) ) ;
#552 = DIRECTION ( 'NONE',  ( 1.000000000000000000, 0.000000000000000000, 0.000000000000000000 ) ) ;
#553 = AXIS2_PLACEMENT_3D ( 'NONE', #752, #1150, #344 ) ;
#554 = VERTEX_POINT ( 'NONE', #489 ) ;
#555 = AXIS2_PLACEMENT_3D ( 'NONE', #506, #432, #118 ) ;
#556 = DIRECTION ( 'NONE',  ( -0.000000000000000000, -0.000000000000000000, 1.000000000000000000 ) ) ;
#557 =( NAMED_UNIT ( * ) SI_UNIT ( $, .STERADIAN. ) SOLID_ANGLE_UNIT ( ) );
#558 = DIRECTION ( 'NONE',  ( 1.000000000000000000, 0.000000000000000000, 0.000000000000000000 ) ) ;
#559 = EDGE_CURVE ( 'NONE', #554, #221, #877, .T. ) ;
#560 = CARTESIAN_POINT ( 'NONE',  ( 0.000000000000000000, 60.00000000000000000, 8.000000000000000000 ) ) ;
#561 = ADVANCED_FACE ( 'NONE', ( #889 ), #1184, .F. ) ;
#562 = EDGE_LOOP ( 'NONE', ( #839, #1215 ) ) ;
#563 = VECTOR ( 'NONE', #1021, 1000.000000000000000 ) ;
#564 = CARTESIAN_POINT ( 'NONE',  ( 9.000000000000001776, 34.00000000000000000, 1.500000000000000000 ) ) ;
#565 = DIRECTION ( 'NONE',  ( -1.000000000000000000, -0.000000000000000000, -0.000000000000000000 ) ) ;
#566 = CARTESIAN_POINT ( 'NONE',  ( 7.500000000000003553, 27.99999999999999645, 0.000000000000000000 ) ) ;
#567 = LINE ( 'NONE', #961, #1070 ) ;
#568 = VERTEX_POINT ( 'NONE', #1274 ) ;
#569 = AXIS2_PLACEMENT_3D ( 'NONE', #5, #494, #699 ) ;
#570 = CIRCLE ( 'NONE', #1252, 1.149999999999998135 ) ;
#571 = CARTESIAN_POINT ( 'NONE',  ( 40.00000000000000000, 4.898587196589413815E-15, 8.000000000000000000 ) ) ;
#572 = CARTESIAN_POINT ( 'NONE',  ( 21.00000000000000000, 20.90000000000000568, 0.000000000000000000 ) ) ;
#573 = LINE ( 'NONE', #637, #1151 ) ;
#574 = CARTESIAN_POINT ( 'NONE',  ( 0.000000000000000000, 0.000000000000000000, 8.000000000000000000 ) ) ;
#575 = EDGE_LOOP ( 'NONE', ( #765, #1090, #541, #528 ) ) ;
#576 = VERTEX_POINT ( 'NONE', #1279 ) ;
#577 = DIRECTION ( 'NONE',  ( -1.387778780781446415E-16, 1.000000000000000000, -0.000000000000000000 ) ) ;
#578 = EDGE_CURVE ( 'NONE', #382, #88, #983, .T. ) ;
#579 = DIRECTION ( 'NONE',  ( -0.000000000000000000, -0.000000000000000000, 1.000000000000000000 ) ) ;
#580 = CARTESIAN_POINT ( 'NONE',  ( 10.96250985671064271, 27.99999999999998934, 4.500000000000000888 ) ) ;
#581 = EDGE_CURVE ( 'NONE', #693, #568, #602, .T. ) ;
#582 = ORIENTED_EDGE ( 'NONE', *, *, #952, .F. ) ;
#583 = ORIENTED_EDGE ( 'NONE', *, *, #854, .T. ) ;
#584 = DIRECTION ( 'NONE',  ( -0.000000000000000000, -0.000000000000000000, -1.000000000000000000 ) ) ;
#585 = LINE ( 'NONE', #181, #532 ) ;
#586 = ORIENTED_EDGE ( 'NONE', *, *, #340, .F. ) ;
#587 = ORIENTED_EDGE ( 'NONE', *, *, #1078, .T. ) ;
#588 = AXIS2_PLACEMENT_3D ( 'NONE', #851, #462, #664 ) ;
#589 = EDGE_CURVE ( 'NONE', #610, #306, #393, .T. ) ;
#590 = DIRECTION ( 'NONE',  ( 1.000000000000000000, 1.734723475976807834E-16, 0.000000000000000000 ) ) ;
#591 = CARTESIAN_POINT ( 'NONE',  ( 15.00000000000000000, 23.00000000000000000, 0.000000000000000000 ) ) ;
#592 = VERTEX_POINT ( 'NONE', #691 ) ;
#593 = ORIENTED_EDGE ( 'NONE', *, *, #215, .F. ) ;
#594 = VECTOR ( 'NONE', #503, 1000.000000000000000 ) ;
#595 = CARTESIAN_POINT ( 'NONE',  ( 40.00000000000000000, 60.00000000000000711, 0.000000000000000000 ) ) ;
#596 = LINE ( 'NONE', #91, #259 ) ;
#597 = CIRCLE ( 'NONE', #200, 1.149999999999998135 ) ;
#598 = EDGE_CURVE ( 'NONE', #902, #576, #483, .T. ) ;
#599 = CIRCLE ( 'NONE', #304, 1.149999999999999911 ) ;
#600 = EDGE_LOOP ( 'NONE', ( #271, #831, #520, #798 ) ) ;
#601 = CARTESIAN_POINT ( 'NONE',  ( 29.16250985671064200, 0.000000000000000000, 8.000000000000000000 ) ) ;
#602 = LINE ( 'NONE', #6, #756 ) ;
#603 = LINE ( 'NONE', #611, #844 ) ;
#604 = PLANE ( 'NONE',  #555 ) ;
#605 = VERTEX_POINT ( 'NONE', #679 ) ;
#606 = CARTESIAN_POINT ( 'NONE',  ( 29.16250985671064200, 27.99999999999999289, 8.000000000000000000 ) ) ;
#607 = AXIS2_PLACEMENT_3D ( 'NONE', #292, #303, #1094 ) ;
#608 = CARTESIAN_POINT ( 'NONE',  ( 13.46250985671064271, 27.99999999999998934, 4.500000000000000888 ) ) ;
#609 = DIRECTION ( 'NONE',  ( 0.000000000000000000, 1.000000000000000000, 0.000000000000000000 ) ) ;
#610 = VERTEX_POINT ( 'NONE', #1075 ) ;
#611 = CARTESIAN_POINT ( 'NONE',  ( 26.00000000000000355, 20.90000000000000213, 0.000000000000000000 ) ) ;
#612 = EDGE_CURVE ( 'NONE', #1071, #199, #492, .T. ) ;
#613 = AXIS2_PLACEMENT_3D ( 'NONE', #1000, #16, #514 ) ;
#614 = PLANE ( 'NONE',  #3 ) ;
#615 = ORIENTED_EDGE ( 'NONE', *, *, #1203, .T. ) ;
#616 = PRODUCT ( 'mid-v0', 'mid-v0', '', ( #103 ) ) ;
#617 = ORIENTED_EDGE ( 'NONE', *, *, #437, .F. ) ;
#618 = EDGE_CURVE ( 'NONE', #143, #902, #596, .T. ) ;
#619 = EDGE_CURVE ( 'NONE', #278, #1071, #29, .T. ) ;
#620 = ORIENTED_EDGE ( 'NONE', *, *, #940, .T. ) ;
#621 = LINE ( 'NONE', #330, #369 ) ;
#622 = PLANE ( 'NONE',  #450 ) ;
#623 = FACE_OUTER_BOUND ( 'NONE', #159, .T. ) ;
#624 = EDGE_CURVE ( 'NONE', #1077, #315, #410, .T. ) ;
#625 = EDGE_CURVE ( 'NONE', #641, #243, #815, .T. ) ;
#626 = EDGE_LOOP ( 'NONE', ( #778, #504, #176, #372 ) ) ;
#627 = CARTESIAN_POINT ( 'NONE',  ( 9.000000000000001776, 34.00000000000000000, 0.000000000000000000 ) ) ;
#628 = ORIENTED_EDGE ( 'NONE', *, *, #649, .F. ) ;
#629 = DIRECTION ( 'NONE',  ( 1.156482317317871478E-16, -1.000000000000000000, 0.000000000000000000 ) ) ;
#630 = VECTOR ( 'NONE', #247, 1000.000000000000000 ) ;
#631 = DIRECTION ( 'NONE',  ( -1.387778780781446415E-16, 1.000000000000000000, 0.000000000000000000 ) ) ;
#632 = ORIENTED_EDGE ( 'NONE', *, *, #99, .T. ) ;
#633 = ORIENTED_EDGE ( 'NONE', *, *, #559, .F. ) ;
#634 = LINE ( 'NONE', #515, #11 ) ;
#635 = ORIENTED_EDGE ( 'NONE', *, *, #655, .T. ) ;
#636 = FACE_BOUND ( 'NONE', #545, .T. ) ;
#637 = CARTESIAN_POINT ( 'NONE',  ( 10.96250985671064271, 1.342520260664200099E-15, 6.000000000000000000 ) ) ;
#638 = ORIENTED_EDGE ( 'NONE', *, *, #879, .F. ) ;
#639 = VERTEX_POINT ( 'NONE', #1098 ) ;
#640 = FACE_OUTER_BOUND ( 'NONE', #878, .T. ) ;
#641 = VERTEX_POINT ( 'NONE', #413 ) ;
#642 = DIRECTION ( 'NONE',  ( 1.000000000000000000, 0.000000000000000000, -0.000000000000000000 ) ) ;
#643 = SURFACE_SIDE_STYLE ('',( #148 ) ) ;
#644 = DIRECTION ( 'NONE',  ( -0.000000000000000000, -0.000000000000000000, 1.000000000000000000 ) ) ;
#645 = ORIENTED_EDGE ( 'NONE', *, *, #1109, .T. ) ;
#646 = ORIENTED_EDGE ( 'NONE', *, *, #340, .T. ) ;
#647 = ADVANCED_FACE ( 'NONE', ( #207 ), #614, .F. ) ;
#648 = CARTESIAN_POINT ( 'NONE',  ( 10.96250985671064271, 27.99999999999998934, 8.000000000000000000 ) ) ;
#649 = EDGE_CURVE ( 'NONE', #727, #479, #621, .T. ) ;
#650 =( NAMED_UNIT ( * ) PLANE_ANGLE_UNIT ( ) SI_UNIT ( $, .RADIAN. ) );
#651 = FACE_OUTER_BOUND ( 'NONE', #998, .T. ) ;
#652 = CARTESIAN_POINT ( 'NONE',  ( 5.000000000000007994, 55.50000000000000000, 0.000000000000000000 ) ) ;
#653 = VECTOR ( 'NONE', #496, 1000.000000000000000 ) ;
#654 = ORIENTED_EDGE ( 'NONE', *, *, #1249, .T. ) ;
#655 = EDGE_CURVE ( 'NONE', #290, #28, #1008, .T. ) ;
#656 = VECTOR ( 'NONE', #629, 1000.000000000000000 ) ;
#657 = DIRECTION ( 'NONE',  ( -0.000000000000000000, 1.000000000000000000, -0.000000000000000000 ) ) ;
#658 = DIRECTION ( 'NONE',  ( 1.000000000000000000, 0.000000000000000000, 0.000000000000000000 ) ) ;
#659 = CARTESIAN_POINT ( 'NONE',  ( 29.16250985671064200, 0.000000000000000000, 6.000000000000000000 ) ) ;
#660 = CARTESIAN_POINT ( 'NONE',  ( 29.16250985671064200, 28.00000000000000000, 0.000000000000000000 ) ) ;
#661 = ORIENTED_EDGE ( 'NONE', *, *, #1152, .T. ) ;
#662 = DIRECTION ( 'NONE',  ( -1.387778780781446169E-16, 1.000000000000000000, -0.000000000000000000 ) ) ;
#663 = DIRECTION ( 'NONE',  ( 0.000000000000000000, 1.000000000000000000, 0.000000000000000000 ) ) ;
#664 = DIRECTION ( 'NONE',  ( 1.000000000000000000, 0.000000000000000000, 0.000000000000000000 ) ) ;
#665 = CARTESIAN_POINT ( 'NONE',  ( 33.85000000000000853, 55.50000000000000000, 0.000000000000000000 ) ) ;
#666 = ORIENTED_EDGE ( 'NONE', *, *, #426, .T. ) ;
#667 = EDGE_CURVE ( 'NONE', #210, #512, #1104, .T. ) ;
#668 = ORIENTED_EDGE ( 'NONE', *, *, #854, .F. ) ;
#669 = DIRECTION ( 'NONE',  ( 1.387778780781445922E-16, -1.000000000000000000, 0.000000000000000000 ) ) ;
#670 = EDGE_CURVE ( 'NONE', #1077, #1230, #124, .T. ) ;
#671 = LINE ( 'NONE', #163, #794 ) ;
#672 = CARTESIAN_POINT ( 'NONE',  ( 7.500000000000000000, 57.99999999999999289, 0.000000000000000000 ) ) ;
#673 = EDGE_LOOP ( 'NONE', ( #963, #235, #93, #414 ) ) ;
#674 = AXIS2_PLACEMENT_3D ( 'NONE', #171, #468, #75 ) ;
#675 = VECTOR ( 'NONE', #1227, 1000.000000000000000 ) ;
#676 = VERTEX_POINT ( 'NONE', #1196 ) ;
#677 = CARTESIAN_POINT ( 'NONE',  ( 26.00000000000000355, 20.90000000000000213, 1.500000000000000000 ) ) ;
#678 = DIRECTION ( 'NONE',  ( 0.000000000000000000, 0.000000000000000000, 1.000000000000000000 ) ) ;
#679 = CARTESIAN_POINT ( 'NONE',  ( 26.66250985671064910, 3.000000000000000888, 6.000000000000000000 ) ) ;
#680 = ORIENTED_EDGE ( 'NONE', *, *, #208, .T. ) ;
#681 = EDGE_CURVE ( 'NONE', #434, #143, #806, .T. ) ;
#682 = AXIS2_PLACEMENT_3D ( 'NONE', #800, #804, #25 ) ;
#683 = ORIENTED_EDGE ( 'NONE', *, *, #285, .F. ) ;
#684 = FACE_OUTER_BOUND ( 'NONE', #322, .T. ) ;
#685 = FACE_OUTER_BOUND ( 'NONE', #452, .T. ) ;
#686 = ORIENTED_EDGE ( 'NONE', *, *, #1084, .T. ) ;
#687 = EDGE_LOOP ( 'NONE', ( #907, #1093, #1058, #522 ) ) ;
#688 = VECTOR ( 'NONE', #644, 1000.000000000000000 ) ;
#689 = CARTESIAN_POINT ( 'NONE',  ( 33.85000000000000853, 4.500000000000003553, 0.000000000000000000 ) ) ;
#690 = EDGE_CURVE ( 'NONE', #378, #693, #1023, .T. ) ;
#691 = CARTESIAN_POINT ( 'NONE',  ( 26.00000000000000355, 23.90000000000000213, 1.500000000000000000 ) ) ;
#692 = ADVANCED_FACE ( 'NONE', ( #724 ), #604, .F. ) ;
#693 = VERTEX_POINT ( 'NONE', #719 ) ;
#694 = VECTOR ( 'NONE', #283, 1000.000000000000000 ) ;
#695 = DIRECTION ( 'NONE',  ( -0.000000000000000000, -1.000000000000000000, -0.000000000000000000 ) ) ;
#696 = DIRECTION ( 'NONE',  ( 1.387778780781446415E-16, -1.000000000000000000, 0.000000000000000000 ) ) ;
#697 = CIRCLE ( 'NONE', #500, 1.149999999999999023 ) ;
#698 = LINE ( 'NONE', #90, #279 ) ;
#699 = DIRECTION ( 'NONE',  ( 1.000000000000000000, 0.000000000000000000, 0.000000000000000000 ) ) ;
#700 = CARTESIAN_POINT ( 'NONE',  ( 7.500000000000003553, 27.99999999999999645, 1.500000000000000000 ) ) ;
#701 = ORIENTED_EDGE ( 'NONE', *, *, #786, .F. ) ;
#702 = DIRECTION ( 'NONE',  ( 0.000000000000000000, -1.000000000000000000, 0.000000000000000000 ) ) ;
#703 = PLANE ( 'NONE',  #440 ) ;
#704 = CARTESIAN_POINT ( 'NONE',  ( 3.850000000000008082, 4.500000000000003553, 0.000000000000000000 ) ) ;
#705 = EDGE_CURVE ( 'NONE', #1049, #338, #388, .T. ) ;
#706 = EDGE_CURVE ( 'NONE', #568, #127, #517, .T. ) ;
#707 = ORIENTED_EDGE ( 'NONE', *, *, #357, .F. ) ;
#708 = DIRECTION ( 'NONE',  ( -0.000000000000000000, -0.000000000000000000, 1.000000000000000000 ) ) ;
#709 = VECTOR ( 'NONE', #1143, 1000.000000000000000 ) ;
#710 = CARTESIAN_POINT ( 'NONE',  ( 35.00000000000000711, 55.50000000000000000, 8.000000000000000000 ) ) ;
#711 = ORIENTED_EDGE ( 'NONE', *, *, #401, .T. ) ;
#712 = VECTOR ( 'NONE', #609, 1000.000000000000000 ) ;
#713 = ORIENTED_EDGE ( 'NONE', *, *, #168, .F. ) ;
#714 = EDGE_CURVE ( 'NONE', #1100, #434, #309, .T. ) ;
#715 = PRODUCT_RELATED_PRODUCT_CATEGORY ( 'part', '', ( #616 ) ) ;
#716 = ORIENTED_EDGE ( 'NONE', *, *, #624, .F. ) ;
#717 = CYLINDRICAL_SURFACE ( 'NONE', #725, 1.149999999999998135 ) ;
#718 = ORIENTED_EDGE ( 'NONE', *, *, #1189, .T. ) ;
#719 = CARTESIAN_POINT ( 'NONE',  ( 10.96250985671064271, 1.342520260664200099E-15, 7.000000000000000000 ) ) ;
#720 = ORIENTED_EDGE ( 'NONE', *, *, #99, .F. ) ;
#721 = ORIENTED_EDGE ( 'NONE', *, *, #655, .F. ) ;
#722 =( LENGTH_UNIT ( ) NAMED_UNIT ( * ) SI_UNIT ( .MILLI., .METRE. ) );
#723 = ORIENTED_EDGE ( 'NONE', *, *, #518, .T. ) ;
#724 = FACE_OUTER_BOUND ( 'NONE', #948, .T. ) ;
#725 = AXIS2_PLACEMENT_3D ( 'NONE', #821, #1216, #117 ) ;
#726 = CARTESIAN_POINT ( 'NONE',  ( 15.00000000000000000, 34.00000000000000000, 1.500000000000000000 ) ) ;
#727 = VERTEX_POINT ( 'NONE', #1210 ) ;
#728 = LINE ( 'NONE', #801, #886 ) ;
#729 = VERTEX_POINT ( 'NONE', #796 ) ;
#730 = VECTOR ( 'NONE', #950, 1000.000000000000000 ) ;
#731 = DIRECTION ( 'NONE',  ( -1.000000000000000000, 0.000000000000000000, 0.000000000000000000 ) ) ;
#732 = VECTOR ( 'NONE', #1161, 1000.000000000000000 ) ;
#733 = CARTESIAN_POINT ( 'NONE',  ( 7.500000000000003553, 27.99999999999999645, 8.000000000000000000 ) ) ;
#734 = DIRECTION ( 'NONE',  ( 0.000000000000000000, 0.000000000000000000, 1.000000000000000000 ) ) ;
#735 = CARTESIAN_POINT ( 'NONE',  ( 32.50000000000000000, 57.99999999999999289, 0.000000000000000000 ) ) ;
#736 = ORIENTED_EDGE ( 'NONE', *, *, #964, .T. ) ;
#737 = DIRECTION ( 'NONE',  ( 1.000000000000000000, -0.000000000000000000, 0.000000000000000000 ) ) ;
#738 = ORIENTED_EDGE ( 'NONE', *, *, #98, .T. ) ;
#739 = DIRECTION ( 'NONE',  ( 1.000000000000000000, 0.000000000000000000, 0.000000000000000000 ) ) ;
#740 = DIRECTION ( 'NONE',  ( -0.000000000000000000, -0.000000000000000000, 1.000000000000000000 ) ) ;
#741 = LINE ( 'NONE', #79, #985 ) ;
#742 = EDGE_LOOP ( 'NONE', ( #1213, #358 ) ) ;
#743 = VERTEX_POINT ( 'NONE', #323 ) ;
#744 = ADVANCED_FACE ( 'NONE', ( #1192 ), #1113, .F. ) ;
#745 = CARTESIAN_POINT ( 'NONE',  ( 26.00000000000000355, 23.90000000000000213, 0.000000000000000000 ) ) ;
#746 = CARTESIAN_POINT ( 'NONE',  ( 0.000000000000000000, 0.000000000000000000, 8.000000000000000000 ) ) ;
#747 = CARTESIAN_POINT ( 'NONE',  ( 36.15000000000000568, 55.50000000000000000, 0.000000000000000000 ) ) ;
#748 = FACE_OUTER_BOUND ( 'NONE', #1006, .T. ) ;
#749 = VECTOR ( 'NONE', #263, 1000.000000000000000 ) ;
#750 = ORIENTED_EDGE ( 'NONE', *, *, #132, .T. ) ;
#751 = EDGE_CURVE ( 'NONE', #1003, #1248, #111, .T. ) ;
#752 = CARTESIAN_POINT ( 'NONE',  ( 5.000000000000007994, 55.50000000000000000, 8.000000000000000000 ) ) ;
#753 = LINE ( 'NONE', #78, #962 ) ;
#754 = LINE ( 'NONE', #967, #466 ) ;
#755 = CARTESIAN_POINT ( 'NONE',  ( 9.000000000000001776, 27.99999999999999645, 0.000000000000000000 ) ) ;
#756 = VECTOR ( 'NONE', #381, 1000.000000000000000 ) ;
#757 = ORIENTED_EDGE ( 'NONE', *, *, #1278, .T. ) ;
#758 = VECTOR ( 'NONE', #406, 1000.000000000000000 ) ;
#759 = DIRECTION ( 'NONE',  ( -1.000000000000000000, 0.000000000000000000, -0.000000000000000000 ) ) ;
#760 = CARTESIAN_POINT ( 'NONE',  ( 9.000000000000001776, 27.99999999999999645, 1.500000000000000000 ) ) ;
#761 = AXIS2_PLACEMENT_3D ( 'NONE', #165, #150, #552 ) ;
#762 = LINE ( 'NONE', #566, #1082 ) ;
#763 = ADVANCED_FACE ( 'NONE', ( #901 ), #1002, .F. ) ;
#764 = CARTESIAN_POINT ( 'NONE',  ( 7.500000000000000000, 57.99999999999999289, 0.000000000000000000 ) ) ;
#765 = ORIENTED_EDGE ( 'NONE', *, *, #690, .T. ) ;
#766 = ADVANCED_FACE ( 'NONE', ( #933, #453, #445, #636, #1226, #436, #843 ), #1243, .F. ) ;
#767 = EDGE_LOOP ( 'NONE', ( #814, #848, #1162, #711, #1193, #654, #420, #635 ) ) ;
#768 = LINE ( 'NONE', #68, #1231 ) ;
#769 = CARTESIAN_POINT ( 'NONE',  ( 26.66250985671064555, 27.99999999999999289, 4.500000000000000888 ) ) ;
#770 = DIRECTION ( 'NONE',  ( 0.000000000000000000, -0.000000000000000000, 1.000000000000000000 ) ) ;
#771 = CARTESIAN_POINT ( 'NONE',  ( 40.00000000000000000, 4.898587196589413815E-15, 0.000000000000000000 ) ) ;
#772 = ORIENTED_EDGE ( 'NONE', *, *, #534, .T. ) ;
#773 = DIRECTION ( 'NONE',  ( -0.000000000000000000, -0.000000000000000000, -1.000000000000000000 ) ) ;
#774 = DIRECTION ( 'NONE',  ( -1.000000000000000000, -1.387778780781445922E-16, 0.000000000000000000 ) ) ;
#775 = CARTESIAN_POINT ( 'NONE',  ( 10.96250985671064271, 1.342520260664200099E-15, 8.000000000000000000 ) ) ;
#776 = ORIENTED_EDGE ( 'NONE', *, *, #916, .F. ) ;
#777 = VECTOR ( 'NONE', #1257, 1000.000000000000000 ) ;
#778 = ORIENTED_EDGE ( 'NONE', *, *, #845, .F. ) ;
#779 = PLANE ( 'NONE',  #954 ) ;
#780 = CARTESIAN_POINT ( 'NONE',  ( 33.85000000000000853, 55.50000000000000000, 0.000000000000000000 ) ) ;
#781 = VERTEX_POINT ( 'NONE', #141 ) ;
#782 = VECTOR ( 'NONE', #391, 1000.000000000000000 ) ;
#783 = ORIENTED_EDGE ( 'NONE', *, *, #302, .F. ) ;
#784 = EDGE_CURVE ( 'NONE', #295, #512, #835, .T. ) ;
#785 = FACE_OUTER_BOUND ( 'NONE', #257, .T. ) ;
#786 = EDGE_CURVE ( 'NONE', #32, #1003, #542, .T. ) ;
#787 = DIRECTION ( 'NONE',  ( -1.000000000000000000, -0.000000000000000000, -0.000000000000000000 ) ) ;
#788 = EDGE_LOOP ( 'NONE', ( #84, #105, #1129, #234, #1019, #668, #862, #186 ) ) ;
#789 = AXIS2_PLACEMENT_3D ( 'NONE', #173, #846, #544 ) ;
#790 = CARTESIAN_POINT ( 'NONE',  ( 26.00000000000000355, 20.90000000000000213, 0.000000000000000000 ) ) ;
#791 = APPLICATION_PROTOCOL_DEFINITION ( 'draft international standard', 'automotive_design', 1998, #1207 ) ;
#792 = DIRECTION ( 'NONE',  ( 0.000000000000000000, 0.000000000000000000, 1.000000000000000000 ) ) ;
#793 = ORIENTED_EDGE ( 'NONE', *, *, #215, .T. ) ;
#794 = VECTOR ( 'NONE', #579, 1000.000000000000000 ) ;
#795 = CARTESIAN_POINT ( 'NONE',  ( 7.500000000000000000, 57.99999999999999289, 0.000000000000000000 ) ) ;
#796 = CARTESIAN_POINT ( 'NONE',  ( 26.00000000000000355, 20.90000000000000213, 1.500000000000000000 ) ) ;
#797 = EDGE_CURVE ( 'NONE', #641, #727, #536, .T. ) ;
#798 = ORIENTED_EDGE ( 'NONE', *, *, #248, .T. ) ;
#799 = EDGE_CURVE ( 'NONE', #902, #554, #1130, .T. ) ;
#800 = CARTESIAN_POINT ( 'NONE',  ( 5.000000000000007994, 55.50000000000000000, 8.000000000000000000 ) ) ;
#801 = CARTESIAN_POINT ( 'NONE',  ( 7.500000000000003553, 27.99999999999999645, 0.000000000000000000 ) ) ;
#802 = CARTESIAN_POINT ( 'NONE',  ( 26.66250985671064555, 27.99999999999999289, 4.500000000000000888 ) ) ;
#803 = ORIENTED_EDGE ( 'NONE', *, *, #714, .F. ) ;
#804 = DIRECTION ( 'NONE',  ( 0.000000000000000000, 0.000000000000000000, 1.000000000000000000 ) ) ;
#805 = DIRECTION ( 'NONE',  ( 1.000000000000000000, 0.000000000000000000, 0.000000000000000000 ) ) ;
#806 = LINE ( 'NONE', #823, #656 ) ;
#807 = EDGE_CURVE ( 'NONE', #289, #126, #597, .T. ) ;
#808 = DIRECTION ( 'NONE',  ( -0.000000000000000000, 0.000000000000000000, 1.000000000000000000 ) ) ;
#809 = ORIENTED_EDGE ( 'NONE', *, *, #681, .F. ) ;
#810 = LINE ( 'NONE', #508, #459 ) ;
#811 = EDGE_LOOP ( 'NONE', ( #325, #222, #617, #582, #633, #428, #1012, #1125 ) ) ;
#812 = AXIS2_PLACEMENT_3D ( 'NONE', #1087, #197, #185 ) ;
#813 = CARTESIAN_POINT ( 'NONE',  ( 21.00000000000000000, 20.90000000000000568, 1.500000000000000000 ) ) ;
#814 = ORIENTED_EDGE ( 'NONE', *, *, #1189, .F. ) ;
#815 = LINE ( 'NONE', #700, #924 ) ;
#816 = LINE ( 'NONE', #945, #999 ) ;
#817 = VERTEX_POINT ( 'NONE', #1137 ) ;
#818 = AXIS2_PLACEMENT_3D ( 'NONE', #710, #913, #17 ) ;
#819 = ORIENTED_EDGE ( 'NONE', *, *, #670, .T. ) ;
#820 = EDGE_CURVE ( 'NONE', #639, #479, #246, .T. ) ;
#821 = CARTESIAN_POINT ( 'NONE',  ( 35.00000000000000711, 55.50000000000000000, 0.000000000000000000 ) ) ;
#822 = ORIENTED_EDGE ( 'NONE', *, *, #1086, .T. ) ;
#823 = CARTESIAN_POINT ( 'NONE',  ( 7.500000000000000000, 57.99999999999999289, 8.000000000000000000 ) ) ;
#824 = CARTESIAN_POINT ( 'NONE',  ( 10.96250985671064271, 1.342520260664200099E-15, 6.000000000000000000 ) ) ;
#825 = VERTEX_POINT ( 'NONE', #55 ) ;
#826 = EDGE_LOOP ( 'NONE', ( #1015, #793, #245, #125 ) ) ;
#827 = CARTESIAN_POINT ( 'NONE',  ( 0.000000000000000000, 0.000000000000000000, 0.000000000000000000 ) ) ;
#828 = AXIS2_PLACEMENT_3D ( 'NONE', #20, #212, #805 ) ;
#829 = DIRECTION ( 'NONE',  ( 0.000000000000000000, 0.000000000000000000, 1.000000000000000000 ) ) ;
#830 = CARTESIAN_POINT ( 'NONE',  ( 9.000000000000001776, 27.99999999999999645, 0.000000000000000000 ) ) ;
#831 = ORIENTED_EDGE ( 'NONE', *, *, #208, .F. ) ;
#832 = LINE ( 'NONE', #1135, #834 ) ;
#833 = ORIENTED_EDGE ( 'NONE', *, *, #123, .F. ) ;
#834 = VECTOR ( 'NONE', #849, 1000.000000000000000 ) ;
#835 = LINE ( 'NONE', #352, #37 ) ;
#836 = STYLED_ITEM ( 'NONE', ( #331 ), #194 ) ;
#837 = PLANE ( 'NONE',  #969 ) ;
#838 = CARTESIAN_POINT ( 'NONE',  ( 26.00000000000000355, 20.90000000000000213, 1.500000000000000000 ) ) ;
#839 = ORIENTED_EDGE ( 'NONE', *, *, #226, .T. ) ;
#840 = EDGE_LOOP ( 'NONE', ( #167, #975, #1190, #1106 ) ) ;
#841 = DIRECTION ( 'NONE',  ( 0.000000000000000000, 0.000000000000000000, -1.000000000000000000 ) ) ;
#842 = EDGE_LOOP ( 'NONE', ( #1182, #227, #341, #1116 ) ) ;
#843 = FACE_BOUND ( 'NONE', #767, .T. ) ;
#844 = VECTOR ( 'NONE', #1199, 1000.000000000000000 ) ;
#845 = EDGE_CURVE ( 'NONE', #448, #909, #360, .T. ) ;
#846 = DIRECTION ( 'NONE',  ( -6.938893903907227392E-16, -1.000000000000000000, 0.000000000000000000 ) ) ;
#847 = LINE ( 'NONE', #66, #1027 ) ;
#848 = ORIENTED_EDGE ( 'NONE', *, *, #442, .F. ) ;
#849 = DIRECTION ( 'NONE',  ( -0.000000000000000000, -0.000000000000000000, -1.000000000000000000 ) ) ;
#850 = CARTESIAN_POINT ( 'NONE',  ( 5.000000000000007994, 55.50000000000000000, 0.000000000000000000 ) ) ;
#851 = CARTESIAN_POINT ( 'NONE',  ( 5.000000000000007994, 4.500000000000003553, 8.000000000000000000 ) ) ;
#852 = DIRECTION ( 'NONE',  ( -0.000000000000000000, -0.000000000000000000, -1.000000000000000000 ) ) ;
#853 = AXIS2_PLACEMENT_3D ( 'NONE', #850, #1253, #658 ) ;
#854 = EDGE_CURVE ( 'NONE', #912, #45, #1164, .T. ) ;
#855 = ORIENTED_EDGE ( 'NONE', *, *, #589, .F. ) ;
#856 = LINE ( 'NONE', #745, #709 ) ;
#857 = ADVANCED_FACE ( 'NONE', ( #53 ), #374, .F. ) ;
#858 = PLANE ( 'NONE',  #400 ) ;
#859 = CARTESIAN_POINT ( 'NONE',  ( 29.16250985671064555, 3.000000000000001332, 4.500000000000000888 ) ) ;
#860 = LINE ( 'NONE', #478, #1051 ) ;
#861 = CIRCLE ( 'NONE', #919, 1.149999999999998135 ) ;
#862 = ORIENTED_EDGE ( 'NONE', *, *, #64, .F. ) ;
#863 = ORIENTED_EDGE ( 'NONE', *, *, #153, .F. ) ;
#864 = PLANE ( 'NONE',  #997 ) ;
#865 = CARTESIAN_POINT ( 'NONE',  ( 36.15000000000000568, 55.50000000000000000, 8.000000000000000000 ) ) ;
#866 = AXIS2_PLACEMENT_3D ( 'NONE', #158, #868, #1269 ) ;
#867 = CARTESIAN_POINT ( 'NONE',  ( 13.46250985671064626, 3.000000000000001332, 6.000000000000000000 ) ) ;
#868 = DIRECTION ( 'NONE',  ( 0.000000000000000000, -1.000000000000000000, 0.000000000000000000 ) ) ;
#869 = ORIENTED_EDGE ( 'NONE', *, *, #797, .F. ) ;
#870 = ORIENTED_EDGE ( 'NONE', *, *, #113, .F. ) ;
#871 = FACE_BOUND ( 'NONE', #175, .T. ) ;
#872 = CYLINDRICAL_SURFACE ( 'NONE', #853, 1.149999999999999023 ) ;
#873 = CARTESIAN_POINT ( 'NONE',  ( 10.96250985671064271, 27.99999999999998934, 4.500000000000000888 ) ) ;
#874 = ORIENTED_EDGE ( 'NONE', *, *, #797, .T. ) ;
#875 = ORIENTED_EDGE ( 'NONE', *, *, #454, .T. ) ;
#876 = LINE ( 'NONE', #102, #782 ) ;
#877 = LINE ( 'NONE', #580, #314 ) ;
#878 = EDGE_LOOP ( 'NONE', ( #35, #327, #2, #686, #870, #638, #680, #441 ) ) ;
#879 = EDGE_CURVE ( 'NONE', #425, #1176, #1264, .T. ) ;
#880 = AXIS2_PLACEMENT_3D ( 'NONE', #1092, #376, #276 ) ;
#881 = ORIENTED_EDGE ( 'NONE', *, *, #1141, .T. ) ;
#882 = CARTESIAN_POINT ( 'NONE',  ( 0.000000000000000000, 0.000000000000000000, 8.000000000000000000 ) ) ;
#883 = VECTOR ( 'NONE', #1095, 1000.000000000000000 ) ;
#884 = DIRECTION ( 'NONE',  ( -1.000000000000000000, -0.000000000000000000, -0.000000000000000000 ) ) ;
#885 = EDGE_CURVE ( 'NONE', #539, #1248, #832, .T. ) ;
#886 = VECTOR ( 'NONE', #237, 1000.000000000000000 ) ;
#887 = ORIENTED_EDGE ( 'NONE', *, *, #401, .F. ) ;
#888 = CYLINDRICAL_SURFACE ( 'NONE', #897, 1.149999999999998135 ) ;
#889 = FACE_OUTER_BOUND ( 'NONE', #673, .T. ) ;
#890 = EDGE_CURVE ( 'NONE', #88, #909, #214, .T. ) ;
#891 = ORIENTED_EDGE ( 'NONE', *, *, #58, .T. ) ;
#892 = VECTOR ( 'NONE', #409, 1000.000000000000000 ) ;
#893 = LINE ( 'NONE', #601, #220 ) ;
#894 = ADVANCED_FACE ( 'NONE', ( #640 ), #864, .F. ) ;
#895 = CARTESIAN_POINT ( 'NONE',  ( 7.500000000000000000, 57.99999999999999289, 8.000000000000000000 ) ) ;
#896 = EDGE_CURVE ( 'NONE', #210, #825, #244, .T. ) ;
#897 = AXIS2_PLACEMENT_3D ( 'NONE', #1276, #1170, #94 ) ;
#898 = ORIENTED_EDGE ( 'NONE', *, *, #415, .T. ) ;
#899 = VECTOR ( 'NONE', #740, 1000.000000000000000 ) ;
#900 = DIRECTION ( 'NONE',  ( -0.000000000000000000, -0.000000000000000000, -1.000000000000000000 ) ) ;
#901 = FACE_OUTER_BOUND ( 'NONE', #1123, .T. ) ;
#902 = VERTEX_POINT ( 'NONE', #648 ) ;
#903 = LINE ( 'NONE', #1200, #563 ) ;
#904 = EDGE_CURVE ( 'NONE', #592, #980, #768, .T. ) ;
#905 = DIRECTION ( 'NONE',  ( 1.156482317317871725E-16, -1.000000000000000000, 0.000000000000000000 ) ) ;
#906 = DIRECTION ( 'NONE',  ( -1.000000000000000000, 0.000000000000000000, 0.000000000000000000 ) ) ;
#907 = ORIENTED_EDGE ( 'NONE', *, *, #1033, .T. ) ;
#908 = DIRECTION ( 'NONE',  ( 1.000000000000000000, 0.000000000000000000, 0.000000000000000000 ) ) ;
#909 = VERTEX_POINT ( 'NONE', #161 ) ;
#910 = AXIS2_PLACEMENT_3D ( 'NONE', #269, #1154, #558 ) ;
#911 = CARTESIAN_POINT ( 'NONE',  ( 10.96250985671064271, 0.7999999999999998224, 6.000000000000000000 ) ) ;
#912 = VERTEX_POINT ( 'NONE', #571 ) ;
#913 = DIRECTION ( 'NONE',  ( 0.000000000000000000, 0.000000000000000000, 1.000000000000000000 ) ) ;
#914 = EDGE_LOOP ( 'NONE', ( #1238, #349 ) ) ;
#915 = ADVANCED_FACE ( 'NONE', ( #260 ), #1059, .F. ) ;
#916 = EDGE_CURVE ( 'NONE', #464, #243, #145, .T. ) ;
#917 = VERTEX_POINT ( 'NONE', #1052 ) ;
#918 = ADVANCED_BREP_SHAPE_REPRESENTATION ( 'mid-v0', ( #194, #569 ), #1223 ) ;
#919 = AXIS2_PLACEMENT_3D ( 'NONE', #1055, #734, #551 ) ;
#920 = ORIENTED_EDGE ( 'NONE', *, *, #612, .F. ) ;
#921 = DIRECTION ( 'NONE',  ( 1.387778780781445922E-16, -1.000000000000000000, 0.000000000000000000 ) ) ;
#922 = CARTESIAN_POINT ( 'NONE',  ( 26.00000000000000355, 23.90000000000000213, 1.500000000000000000 ) ) ;
#923 = PLANE ( 'NONE',  #480 ) ;
#924 = VECTOR ( 'NONE', #36, 1000.000000000000000 ) ;
#925 = VECTOR ( 'NONE', #1133, 1000.000000000000000 ) ;
#926 = LINE ( 'NONE', #1001, #892 ) ;
#927 = CARTESIAN_POINT ( 'NONE',  ( 35.00000000000000711, 55.50000000000000000, 0.000000000000000000 ) ) ;
#928 = CARTESIAN_POINT ( 'NONE',  ( 26.00000000000000355, 20.90000000000000213, 1.500000000000000000 ) ) ;
#929 = DIRECTION ( 'NONE',  ( -0.000000000000000000, -1.000000000000000000, -0.000000000000000000 ) ) ;
#930 = ORIENTED_EDGE ( 'NONE', *, *, #497, .T. ) ;
#931 = CARTESIAN_POINT ( 'NONE',  ( 0.000000000000000000, 60.00000000000000000, 0.000000000000000000 ) ) ;
#932 = VERTEX_POINT ( 'NONE', #958 ) ;
#933 = FACE_BOUND ( 'NONE', #1120, .T. ) ;
#934 = ADVANCED_FACE ( 'NONE', ( #941 ), #351, .F. ) ;
#935 = CARTESIAN_POINT ( 'NONE',  ( 6.150000000000007461, 4.500000000000003553, 0.000000000000000000 ) ) ;
#936 = DIRECTION ( 'NONE',  ( -0.000000000000000000, -1.000000000000000000, -0.000000000000000000 ) ) ;
#937 = ORIENTED_EDGE ( 'NONE', *, *, #1203, .F. ) ;
#938 = ORIENTED_EDGE ( 'NONE', *, *, #1086, .F. ) ;
#939 = EDGE_CURVE ( 'NONE', #1134, #980, #856, .T. ) ;
#940 = EDGE_CURVE ( 'NONE', #315, #605, #274, .T. ) ;
#941 = FACE_OUTER_BOUND ( 'NONE', #575, .T. ) ;
#942 = ORIENTED_EDGE ( 'NONE', *, *, #598, .F. ) ;
#943 = VECTOR ( 'NONE', #669, 1000.000000000000000 ) ;
#944 = DIRECTION ( 'NONE',  ( 0.000000000000000000, -1.000000000000000000, 0.000000000000000000 ) ) ;
#945 = CARTESIAN_POINT ( 'NONE',  ( 0.000000000000000000, 0.000000000000000000, 0.000000000000000000 ) ) ;
#946 = CYLINDRICAL_SURFACE ( 'NONE', #910, 1.149999999999998135 ) ;
#947 = CARTESIAN_POINT ( 'NONE',  ( 13.46250985671064271, 27.99999999999998934, 6.000000000000000000 ) ) ;
#948 = EDGE_LOOP ( 'NONE', ( #615, #701, #316, #1234 ) ) ;
#949 = VECTOR ( 'NONE', #218, 1000.000000000000000 ) ;
#950 = DIRECTION ( 'NONE',  ( -1.000000000000000000, -1.734723475976807094E-16, -0.000000000000000000 ) ) ;
#951 = EDGE_CURVE ( 'NONE', #605, #472, #1045, .T. ) ;
#952 = EDGE_CURVE ( 'NONE', #221, #295, #154, .T. ) ;
#953 = CARTESIAN_POINT ( 'NONE',  ( 9.000000000000001776, 23.00000000000000000, 0.000000000000000000 ) ) ;
#954 = AXIS2_PLACEMENT_3D ( 'NONE', #1177, #1079, #590 ) ;
#955 = FACE_OUTER_BOUND ( 'NONE', #788, .T. ) ;
#956 = CARTESIAN_POINT ( 'NONE',  ( 6.150000000000007461, 55.50000000000000000, 8.000000000000000000 ) ) ;
#957 = ORIENTED_EDGE ( 'NONE', *, *, #300, .F. ) ;
#958 = CARTESIAN_POINT ( 'NONE',  ( 32.50000000000000000, 28.00000000000000000, 0.000000000000000000 ) ) ;
#959 = LINE ( 'NONE', #469, #1013 ) ;
#960 = CARTESIAN_POINT ( 'NONE',  ( 32.50000000000000000, 28.00000000000000000, 8.000000000000000000 ) ) ;
#961 = CARTESIAN_POINT ( 'NONE',  ( 29.16250985671064555, 3.000000000000001332, 4.500000000000000888 ) ) ;
#962 = VECTOR ( 'NONE', #565, 1000.000000000000000 ) ;
#963 = ORIENTED_EDGE ( 'NONE', *, *, #714, .T. ) ;
#964 = EDGE_CURVE ( 'NONE', #676, #32, #267, .T. ) ;
#965 = CARTESIAN_POINT ( 'NONE',  ( 13.46250985671064271, 27.99999999999998934, 4.500000000000000888 ) ) ;
#966 = PLANE ( 'NONE',  #1117 ) ;
#967 = CARTESIAN_POINT ( 'NONE',  ( 15.00000000000000000, 27.99999999999999645, 0.000000000000000000 ) ) ;
#968 = DIRECTION ( 'NONE',  ( -0.000000000000000000, -0.000000000000000000, 1.000000000000000000 ) ) ;
#969 = AXIS2_PLACEMENT_3D ( 'NONE', #1236, #233, #631 ) ;
#970 = ORIENTED_EDGE ( 'NONE', *, *, #751, .F. ) ;
#971 = CARTESIAN_POINT ( 'NONE',  ( 0.000000000000000000, 60.00000000000000000, 0.000000000000000000 ) ) ;
#972 = FACE_OUTER_BOUND ( 'NONE', #1107, .T. ) ;
#973 = CARTESIAN_POINT ( 'NONE',  ( 35.00000000000000711, 55.50000000000000000, 8.000000000000000000 ) ) ;
#974 = ORIENTED_EDGE ( 'NONE', *, *, #76, .F. ) ;
#975 = ORIENTED_EDGE ( 'NONE', *, *, #485, .F. ) ;
#976 = DIRECTION ( 'NONE',  ( 1.000000000000000000, 0.000000000000000000, -0.000000000000000000 ) ) ;
#977 = ADVANCED_FACE ( 'NONE', ( #981 ), #280, .F. ) ;
#978 = DIRECTION ( 'NONE',  ( -0.000000000000000000, 1.000000000000000000, 0.000000000000000000 ) ) ;
#979 = ORIENTED_EDGE ( 'NONE', *, *, #98, .F. ) ;
#980 = VERTEX_POINT ( 'NONE', #1191 ) ;
#981 = FACE_OUTER_BOUND ( 'NONE', #826, .T. ) ;
#982 = ADVANCED_FACE ( 'NONE', ( #206 ), #888, .F. ) ;
#983 = LINE ( 'NONE', #203, #96 ) ;
#984 = ORIENTED_EDGE ( 'NONE', *, *, #1222, .T. ) ;
#985 = VECTOR ( 'NONE', #249, 1000.000000000000000 ) ;
#986 = FACE_BOUND ( 'NONE', #742, .T. ) ;
#987 = VECTOR ( 'NONE', #135, 1000.000000000000000 ) ;
#988 = DIRECTION ( 'NONE',  ( 1.000000000000000000, 1.387778780781445922E-16, 0.000000000000000000 ) ) ;
#989 = ORIENTED_EDGE ( 'NONE', *, *, #670, .F. ) ;
#990 = EDGE_CURVE ( 'NONE', #12, #444, #487, .T. ) ;
#991 = DIRECTION ( 'NONE',  ( 0.000000000000000000, 1.000000000000000000, 0.000000000000000000 ) ) ;
#992 = DIRECTION ( 'NONE',  ( 1.000000000000000000, 0.000000000000000000, 0.000000000000000000 ) ) ;
#993 = EDGE_CURVE ( 'NONE', #676, #1065, #698, .T. ) ;
#994 = VECTOR ( 'NONE', #217, 1000.000000000000000 ) ;
#995 = DIRECTION ( 'NONE',  ( -1.000000000000000000, -0.000000000000000000, -0.000000000000000000 ) ) ;
#996 = DIRECTION ( 'NONE',  ( 0.000000000000000000, 0.000000000000000000, 1.000000000000000000 ) ) ;
#997 = AXIS2_PLACEMENT_3D ( 'NONE', #1233, #737, #547 ) ;
#998 = EDGE_LOOP ( 'NONE', ( #1206, #645, #89, #772 ) ) ;
#999 = VECTOR ( 'NONE', #254, 1000.000000000000000 ) ;
#1000 = CARTESIAN_POINT ( 'NONE',  ( 35.00000000000000711, 4.500000000000003553, 8.000000000000000000 ) ) ;
#1001 = CARTESIAN_POINT ( 'NONE',  ( 36.15000000000000568, 4.500000000000003553, 0.000000000000000000 ) ) ;
#1002 = PLANE ( 'NONE',  #1105 ) ;
#1003 = VERTEX_POINT ( 'NONE', #971 ) ;
#1004 = AXIS2_PLACEMENT_3D ( 'NONE', #1183, #1085, #196 ) ;
#1005 = CARTESIAN_POINT ( 'NONE',  ( 7.500000000000000000, 57.99999999999999289, 0.000000000000000000 ) ) ;
#1006 = EDGE_LOOP ( 'NONE', ( #1081, #938, #47, #193 ) ) ;
#1007 =( NAMED_UNIT ( * ) SI_UNIT ( $, .STERADIAN. ) SOLID_ANGLE_UNIT ( ) );
#1008 = LINE ( 'NONE', #223, #949 ) ;
#1009 = ADVANCED_FACE ( 'NONE', ( #1272 ), #493, .F. ) ;
#1010 = ADVANCED_FACE ( 'NONE', ( #684, #286, #8, #986, #871 ), #184, .T. ) ;
#1011 = ORIENTED_EDGE ( 'NONE', *, *, #1181, .F. ) ;
#1012 = ORIENTED_EDGE ( 'NONE', *, *, #598, .T. ) ;
#1013 = VECTOR ( 'NONE', #476, 1000.000000000000000 ) ;
#1014 = CARTESIAN_POINT ( 'NONE',  ( 5.000000000000007994, 55.50000000000000000, 0.000000000000000000 ) ) ;
#1015 = ORIENTED_EDGE ( 'NONE', *, *, #589, .T. ) ;
#1016 = DIRECTION ( 'NONE',  ( 1.000000000000000000, 0.000000000000000000, 0.000000000000000000 ) ) ;
#1017 = CARTESIAN_POINT ( 'NONE',  ( 0.000000000000000000, 0.000000000000000000, 6.000000000000000000 ) ) ;
#1018 = VERTEX_POINT ( 'NONE', #188 ) ;
#1019 = ORIENTED_EDGE ( 'NONE', *, *, #153, .T. ) ;
#1020 = VECTOR ( 'NONE', #56, 1000.000000000000000 ) ;
#1021 = DIRECTION ( 'NONE',  ( 0.000000000000000000, 1.000000000000000000, 0.000000000000000000 ) ) ;
#1022 = ORIENTED_EDGE ( 'NONE', *, *, #64, .T. ) ;
#1023 = LINE ( 'NONE', #530, #101 ) ;
#1024 = FACE_OUTER_BOUND ( 'NONE', #1217, .T. ) ;
#1025 = CARTESIAN_POINT ( 'NONE',  ( 21.00000000000000000, 20.90000000000000568, 0.000000000000000000 ) ) ;
#1026 = ORIENTED_EDGE ( 'NONE', *, *, #291, .F. ) ;
#1027 = VECTOR ( 'NONE', #852, 1000.000000000000000 ) ;
#1028 = EDGE_CURVE ( 'NONE', #729, #743, #1091, .T. ) ;
#1029 = PLANE ( 'NONE',  #1062 ) ;
#1030 = ORIENTED_EDGE ( 'NONE', *, *, #1102, .T. ) ;
#1031 = DIRECTION ( 'NONE',  ( 0.000000000000000000, 0.000000000000000000, 1.000000000000000000 ) ) ;
#1032 = FACE_OUTER_BOUND ( 'NONE', #403, .T. ) ;
#1033 = EDGE_CURVE ( 'NONE', #512, #92, #876, .T. ) ;
#1034 = CARTESIAN_POINT ( 'NONE',  ( 0.000000000000000000, 0.000000000000000000, 8.000000000000000000 ) ) ;
#1035 = ORIENTED_EDGE ( 'NONE', *, *, #952, .T. ) ;
#1036 = ORIENTED_EDGE ( 'NONE', *, *, #1278, .F. ) ;
#1037 = DIRECTION ( 'NONE',  ( 1.000000000000000000, 0.000000000000000000, 0.000000000000000000 ) ) ;
#1038 = ORIENTED_EDGE ( 'NONE', *, *, #1168, .F. ) ;
#1039 = CARTESIAN_POINT ( 'NONE',  ( 15.00000000000000000, 34.00000000000000000, 1.500000000000000000 ) ) ;
#1040 = PLANE ( 'NONE',  #112 ) ;
#1041 = CARTESIAN_POINT ( 'NONE',  ( 3.850000000000008971, 55.50000000000000000, 0.000000000000000000 ) ) ;
#1042 = DIRECTION ( 'NONE',  ( 1.000000000000000000, 0.000000000000000000, 0.000000000000000000 ) ) ;
#1043 = ORIENTED_EDGE ( 'NONE', *, *, #110, .T. ) ;
#1044 = ADVANCED_FACE ( 'NONE', ( #385 ), #779, .F. ) ;
#1045 = LINE ( 'NONE', #1066, #152 ) ;
#1046 = AXIS2_PLACEMENT_3D ( 'NONE', #1047, #157, #104 ) ;
#1047 = CARTESIAN_POINT ( 'NONE',  ( 0.000000000000000000, 0.000000000000000000, 4.500000000000000888 ) ) ;
#1048 = FACE_OUTER_BOUND ( 'NONE', #840, .T. ) ;
#1049 = VERTEX_POINT ( 'NONE', #4 ) ;
#1050 = VECTOR ( 'NONE', #1121, 1000.000000000000000 ) ;
#1051 = VECTOR ( 'NONE', #1147, 1000.000000000000000 ) ;
#1052 = CARTESIAN_POINT ( 'NONE',  ( 36.15000000000000568, 4.500000000000003553, 8.000000000000000000 ) ) ;
#1053 = DIRECTION ( 'NONE',  ( 1.387778780781445922E-16, -1.000000000000000000, 0.000000000000000000 ) ) ;
#1054 = VECTOR ( 'NONE', #708, 1000.000000000000000 ) ;
#1055 = CARTESIAN_POINT ( 'NONE',  ( 35.00000000000000711, 55.50000000000000000, 0.000000000000000000 ) ) ;
#1056 = DIRECTION ( 'NONE',  ( 0.000000000000000000, 0.000000000000000000, 1.000000000000000000 ) ) ;
#1057 = ADVANCED_FACE ( 'NONE', ( #785 ), #296, .F. ) ;
#1058 = ORIENTED_EDGE ( 'NONE', *, *, #896, .F. ) ;
#1059 = CYLINDRICAL_SURFACE ( 'NONE', #1277, 1.149999999999998135 ) ;
#1060 = DIRECTION ( 'NONE',  ( 1.000000000000000000, 0.000000000000000000, 0.000000000000000000 ) ) ;
#1061 = FACE_OUTER_BOUND ( 'NONE', #231, .T. ) ;
#1062 = AXIS2_PLACEMENT_3D ( 'NONE', #540, #419, #905 ) ;
#1063 = CARTESIAN_POINT ( 'NONE',  ( 29.16250985671064200, 0.8000000000000000444, 7.000000000000000000 ) ) ;
#1064 = ORIENTED_EDGE ( 'NONE', *, *, #1219, .T. ) ;
#1065 = VERTEX_POINT ( 'NONE', #595 ) ;
#1066 = CARTESIAN_POINT ( 'NONE',  ( 29.16250985671064555, 3.000000000000001332, 6.000000000000000000 ) ) ;
#1067 = CARTESIAN_POINT ( 'NONE',  ( 32.50000000000000000, 57.99999999999999289, 0.000000000000000000 ) ) ;
#1068 = VECTOR ( 'NONE', #556, 1000.000000000000000 ) ;
#1069 = CARTESIAN_POINT ( 'NONE',  ( 21.00000000000000000, 20.90000000000000568, 1.500000000000000000 ) ) ;
#1070 = VECTOR ( 'NONE', #1261, 1000.000000000000000 ) ;
#1071 = VERTEX_POINT ( 'NONE', #502 ) ;
#1072 = ORIENTED_EDGE ( 'NONE', *, *, #618, .T. ) ;
#1073 = DIRECTION ( 'NONE',  ( 0.000000000000000000, 0.000000000000000000, 1.000000000000000000 ) ) ;
#1074 = DIRECTION ( 'NONE',  ( 1.000000000000000000, 0.000000000000000000, 0.000000000000000000 ) ) ;
#1075 = CARTESIAN_POINT ( 'NONE',  ( 21.00000000000000000, 20.90000000000000568, 1.500000000000000000 ) ) ;
#1076 = EDGE_LOOP ( 'NONE', ( #484, #723, #334, #1270 ) ) ;
#1077 = VERTEX_POINT ( 'NONE', #396 ) ;
#1078 = EDGE_CURVE ( 'NONE', #980, #743, #201, .T. ) ;
#1079 = DIRECTION ( 'NONE',  ( 1.734723475976807834E-16, -1.000000000000000000, 0.000000000000000000 ) ) ;
#1080 = LINE ( 'NONE', #780, #33 ) ;
#1081 = ORIENTED_EDGE ( 'NONE', *, *, #619, .F. ) ;
#1082 = VECTOR ( 'NONE', #142, 1000.000000000000000 ) ;
#1083 = ORIENTED_EDGE ( 'NONE', *, *, #488, .T. ) ;
#1084 = EDGE_CURVE ( 'NONE', #781, #1156, #893, .T. ) ;
#1085 = DIRECTION ( 'NONE',  ( 0.000000000000000000, 1.000000000000000000, -0.000000000000000000 ) ) ;
#1086 = EDGE_CURVE ( 'NONE', #54, #278, #392, .T. ) ;
#1087 = CARTESIAN_POINT ( 'NONE',  ( 5.000000000000007994, 4.500000000000003553, 8.000000000000000000 ) ) ;
#1088 = EDGE_CURVE ( 'NONE', #1136, #434, #404, .T. ) ;
#1089 = VECTOR ( 'NONE', #1174, 1000.000000000000000 ) ;
#1090 = ORIENTED_EDGE ( 'NONE', *, *, #581, .T. ) ;
#1091 = LINE ( 'NONE', #677, #1179 ) ;
#1092 = CARTESIAN_POINT ( 'NONE',  ( 7.500000000000003553, 27.99999999999999645, 0.000000000000000000 ) ) ;
#1093 = ORIENTED_EDGE ( 'NONE', *, *, #1219, .F. ) ;
#1094 = DIRECTION ( 'NONE',  ( 1.000000000000000000, 0.000000000000000000, -0.000000000000000000 ) ) ;
#1095 = DIRECTION ( 'NONE',  ( -0.000000000000000000, -0.000000000000000000, 1.000000000000000000 ) ) ;
#1096 = CARTESIAN_POINT ( 'NONE',  ( 21.00000000000000000, 23.90000000000000213, 0.000000000000000000 ) ) ;
#1097 = DIRECTION ( 'NONE',  ( -1.000000000000000000, 0.000000000000000000, 0.000000000000000000 ) ) ;
#1098 = CARTESIAN_POINT ( 'NONE',  ( 15.00000000000000000, 27.99999999999999645, 0.000000000000000000 ) ) ;
#1099 = AXIS2_PLACEMENT_3D ( 'NONE', #62, #841, #759 ) ;
#1100 = VERTEX_POINT ( 'NONE', #121 ) ;
#1101 = FACE_OUTER_BOUND ( 'NONE', #97, .T. ) ;
#1102 = EDGE_CURVE ( 'NONE', #743, #18, #603, .T. ) ;
#1103 = DIRECTION ( 'NONE',  ( -1.000000000000000000, -1.734723475976807094E-16, -0.000000000000000000 ) ) ;
#1104 = LINE ( 'NONE', #128, #1050 ) ;
#1105 = AXIS2_PLACEMENT_3D ( 'NONE', #1201, #731, #1031 ) ;
#1106 = ORIENTED_EDGE ( 'NONE', *, *, #387, .T. ) ;
#1107 = EDGE_LOOP ( 'NONE', ( #587, #329, #713, #229 ) ) ;
#1108 = CIRCLE ( 'NONE', #682, 1.149999999999999023 ) ;
#1109 = EDGE_CURVE ( 'NONE', #221, #210, #311, .T. ) ;
#1110 = ORIENTED_EDGE ( 'NONE', *, *, #618, .F. ) ;
#1111 = CARTESIAN_POINT ( 'NONE',  ( 26.66250985671064910, 3.000000000000000888, 4.500000000000000888 ) ) ;
#1112 = ORIENTED_EDGE ( 'NONE', *, *, #497, .F. ) ;
#1113 = PLANE ( 'NONE',  #317 ) ;
#1114 = ORIENTED_EDGE ( 'NONE', *, *, #1088, .T. ) ;
#1115 = VECTOR ( 'NONE', #1208, 1000.000000000000000 ) ;
#1116 = ORIENTED_EDGE ( 'NONE', *, *, #786, .T. ) ;
#1117 = AXIS2_PLACEMENT_3D ( 'NONE', #275, #375, #86 ) ;
#1118 = PRODUCT_DEFINITION ( 'UNKNOWN', '', #209, #166 ) ;
#1119 = FACE_OUTER_BOUND ( 'NONE', #83, .T. ) ;
#1120 = EDGE_LOOP ( 'NONE', ( #15, #683, #345, #548 ) ) ;
#1121 = DIRECTION ( 'NONE',  ( -0.000000000000000000, -0.000000000000000000, 1.000000000000000000 ) ) ;
#1122 = SURFACE_STYLE_USAGE ( .BOTH. , #643 ) ;
#1123 = EDGE_LOOP ( 'NONE', ( #666, #1263, #1180, #583 ) ) ;
#1124 = ADVANCED_FACE ( 'NONE', ( #1101 ), #115, .F. ) ;
#1125 = ORIENTED_EDGE ( 'NONE', *, *, #192, .F. ) ;
#1126 = VECTOR ( 'NONE', #1056, 1000.000000000000000 ) ;
#1127 = EDGE_CURVE ( 'NONE', #127, #378, #307, .T. ) ;
#1128 = FACE_OUTER_BOUND ( 'NONE', #626, .T. ) ;
#1129 = ORIENTED_EDGE ( 'NONE', *, *, #132, .F. ) ;
#1130 = LINE ( 'NONE', #1235, #1157 ) ;
#1131 = FILL_AREA_STYLE ('',( #1145 ) ) ;
#1132 = DIRECTION ( 'NONE',  ( -1.000000000000000000, -1.224646799147353454E-16, 0.000000000000000000 ) ) ;
#1133 = DIRECTION ( 'NONE',  ( -0.000000000000000000, -0.000000000000000000, 1.000000000000000000 ) ) ;
#1134 = VERTEX_POINT ( 'NONE', #1096 ) ;
#1135 = CARTESIAN_POINT ( 'NONE',  ( 0.000000000000000000, 0.000000000000000000, 8.000000000000000000 ) ) ;
#1136 = VERTEX_POINT ( 'NONE', #1005 ) ;
#1137 = CARTESIAN_POINT ( 'NONE',  ( 36.15000000000000568, 4.500000000000003553, 0.000000000000000000 ) ) ;
#1138 = LINE ( 'NONE', #922, #630 ) ;
#1139 = DIRECTION ( 'NONE',  ( -1.000000000000000000, 6.938893903907227392E-16, 0.000000000000000000 ) ) ;
#1140 = ORIENTED_EDGE ( 'NONE', *, *, #518, .F. ) ;
#1141 = EDGE_CURVE ( 'NONE', #909, #88, #1108, .T. ) ;
#1142 = ORIENTED_EDGE ( 'NONE', *, *, #681, .T. ) ;
#1143 = DIRECTION ( 'NONE',  ( 1.000000000000000000, -0.000000000000000000, -0.000000000000000000 ) ) ;
#1144 = VECTOR ( 'NONE', #241, 1000.000000000000000 ) ;
#1145 = FILL_AREA_STYLE_COLOUR ( '', #510 ) ;
#1146 = PLANE ( 'NONE',  #24 ) ;
#1147 = DIRECTION ( 'NONE',  ( 1.000000000000000000, 1.387778780781445922E-16, 0.000000000000000000 ) ) ;
#1148 = ORIENTED_EDGE ( 'NONE', *, *, #394, .F. ) ;
#1149 = ADVANCED_FACE ( 'NONE', ( #109 ), #1194, .F. ) ;
#1150 = DIRECTION ( 'NONE',  ( 0.000000000000000000, 0.000000000000000000, 1.000000000000000000 ) ) ;
#1151 = VECTOR ( 'NONE', #936, 1000.000000000000000 ) ;
#1152 = EDGE_CURVE ( 'NONE', #464, #144, #810, .T. ) ;
#1153 = CARTESIAN_POINT ( 'NONE',  ( 5.000000000000007994, 4.500000000000003553, 0.000000000000000000 ) ) ;
#1154 = DIRECTION ( 'NONE',  ( -0.000000000000000000, -0.000000000000000000, 1.000000000000000000 ) ) ;
#1155 = DIRECTION ( 'NONE',  ( 0.000000000000000000, 0.000000000000000000, -1.000000000000000000 ) ) ;
#1156 = VERTEX_POINT ( 'NONE', #606 ) ;
#1157 = VECTOR ( 'NONE', #346, 1000.000000000000000 ) ;
#1158 = CARTESIAN_POINT ( 'NONE',  ( 10.96250985671064626, 3.000000000000001332, 4.500000000000000888 ) ) ;
#1159 = CARTESIAN_POINT ( 'NONE',  ( 35.00000000000000711, 4.500000000000003553, 0.000000000000000000 ) ) ;
#1160 = DIRECTION ( 'NONE',  ( 0.000000000000000000, 1.000000000000000000, 0.000000000000000000 ) ) ;
#1161 = DIRECTION ( 'NONE',  ( 1.156482317317871478E-16, -1.000000000000000000, 0.000000000000000000 ) ) ;
#1162 = ORIENTED_EDGE ( 'NONE', *, *, #820, .F. ) ;
#1163 = ORIENTED_EDGE ( 'NONE', *, *, #442, .T. ) ;
#1164 = LINE ( 'NONE', #1251, #1173 ) ;
#1165 = CARTESIAN_POINT ( 'NONE',  ( 7.500000000000003553, 27.99999999999999645, 0.000000000000000000 ) ) ;
#1166 = CARTESIAN_POINT ( 'NONE',  ( 29.16250985671064200, 0.7999999999999998224, 6.000000000000000000 ) ) ;
#1167 = ORIENTED_EDGE ( 'NONE', *, *, #951, .F. ) ;
#1168 = EDGE_CURVE ( 'NONE', #444, #917, #160, .T. ) ;
#1169 = ORIENTED_EDGE ( 'NONE', *, *, #578, .F. ) ;
#1170 = DIRECTION ( 'NONE',  ( -0.000000000000000000, -0.000000000000000000, 1.000000000000000000 ) ) ;
#1171 = EDGE_CURVE ( 'NONE', #491, #472, #903, .T. ) ;
#1172 = LINE ( 'NONE', #572, #293 ) ;
#1173 = VECTOR ( 'NONE', #460, 1000.000000000000000 ) ;
#1174 = DIRECTION ( 'NONE',  ( -0.000000000000000000, -0.000000000000000000, -1.000000000000000000 ) ) ;
#1175 = ADVANCED_FACE ( 'NONE', ( #1128 ), #328, .F. ) ;
#1176 = VERTEX_POINT ( 'NONE', #333 ) ;
#1177 = CARTESIAN_POINT ( 'NONE',  ( 29.16250985671064555, 3.000000000000001332, 4.500000000000000888 ) ) ;
#1178 = CARTESIAN_POINT ( 'NONE',  ( 29.16250985671064555, 3.000000000000001332, 6.000000000000000000 ) ) ;
#1179 = VECTOR ( 'NONE', #584, 1000.000000000000000 ) ;
#1180 = ORIENTED_EDGE ( 'NONE', *, *, #488, .F. ) ;
#1181 = EDGE_CURVE ( 'NONE', #290, #143, #728, .T. ) ;
#1182 = ORIENTED_EDGE ( 'NONE', *, *, #751, .T. ) ;
#1183 = CARTESIAN_POINT ( 'NONE',  ( 26.00000000000000355, 23.90000000000000213, 1.500000000000000000 ) ) ;
#1184 = PLANE ( 'NONE',  #1258 ) ;
#1185 = ORIENTED_EDGE ( 'NONE', *, *, #73, .F. ) ;
#1186 = DIRECTION ( 'NONE',  ( 0.000000000000000000, 0.000000000000000000, 1.000000000000000000 ) ) ;
#1187 = SHAPE_DEFINITION_REPRESENTATION ( #423, #918 ) ;
#1188 = LINE ( 'NONE', #87, #653 ) ;
#1189 = EDGE_CURVE ( 'NONE', #144, #28, #321, .T. ) ;
#1190 = ORIENTED_EDGE ( 'NONE', *, *, #1127, .F. ) ;
#1191 = CARTESIAN_POINT ( 'NONE',  ( 26.00000000000000355, 23.90000000000000213, 0.000000000000000000 ) ) ;
#1192 = FACE_OUTER_BOUND ( 'NONE', #811, .T. ) ;
#1193 = ORIENTED_EDGE ( 'NONE', *, *, #302, .T. ) ;
#1194 = PLANE ( 'NONE',  #7 ) ;
#1195 = CARTESIAN_POINT ( 'NONE',  ( 7.500000000000000000, 57.99999999999999289, 0.000000000000000000 ) ) ;
#1196 = CARTESIAN_POINT ( 'NONE',  ( 40.00000000000000000, 60.00000000000000711, 8.000000000000000000 ) ) ;
#1197 = EDGE_CURVE ( 'NONE', #1176, #1077, #634, .T. ) ;
#1198 = EDGE_LOOP ( 'NONE', ( #1142, #1011, #833, #1114 ) ) ;
#1199 = DIRECTION ( 'NONE',  ( -1.000000000000000000, 6.938893903907227392E-16, 0.000000000000000000 ) ) ;
#1200 = CARTESIAN_POINT ( 'NONE',  ( 29.16250985671064200, 0.000000000000000000, 6.000000000000000000 ) ) ;
#1201 = CARTESIAN_POINT ( 'NONE',  ( 40.00000000000000000, 4.898587196589413815E-15, 8.000000000000000000 ) ) ;
#1202 = LINE ( 'NONE', #538, #202 ) ;
#1203 = EDGE_CURVE ( 'NONE', #1065, #1003, #412, .T. ) ;
#1204 = VERTEX_POINT ( 'NONE', #911 ) ;
#1205 = VECTOR ( 'NONE', #884, 1000.000000000000000 ) ;
#1206 = ORIENTED_EDGE ( 'NONE', *, *, #559, .T. ) ;
#1207 = APPLICATION_CONTEXT ( 'automotive_design' ) ;
#1208 = DIRECTION ( 'NONE',  ( -0.000000000000000000, -0.000000000000000000, 1.000000000000000000 ) ) ;
#1209 = ORIENTED_EDGE ( 'NONE', *, *, #625, .F. ) ;
#1210 = CARTESIAN_POINT ( 'NONE',  ( 15.00000000000000000, 23.00000000000000000, 1.500000000000000000 ) ) ;
#1211 = AXIS2_PLACEMENT_3D ( 'NONE', #827, #335, #642 ) ;
#1212 = CARTESIAN_POINT ( 'NONE',  ( 13.46250985671064626, 3.000000000000001332, 4.500000000000000888 ) ) ;
#1213 = ORIENTED_EDGE ( 'NONE', *, *, #495, .F. ) ;
#1214 = AXIS2_PLACEMENT_3D ( 'NONE', #377, #968, #1042 ) ;
#1215 = ORIENTED_EDGE ( 'NONE', *, *, #76, .T. ) ;
#1216 = DIRECTION ( 'NONE',  ( -0.000000000000000000, -0.000000000000000000, 1.000000000000000000 ) ) ;
#1217 = EDGE_LOOP ( 'NONE', ( #1026, #146, #1167, #533, #67, #1262, #151, #389 ) ) ;
#1218 = CARTESIAN_POINT ( 'NONE',  ( 32.50000000000000000, 57.99999999999999289, 0.000000000000000000 ) ) ;
#1219 = EDGE_CURVE ( 'NONE', #825, #92, #139, .T. ) ;
#1220 = DIRECTION ( 'NONE',  ( 0.000000000000000000, 0.000000000000000000, -1.000000000000000000 ) ) ;
#1221 = ORIENTED_EDGE ( 'NONE', *, *, #73, .T. ) ;
#1222 = EDGE_CURVE ( 'NONE', #817, #917, #926, .T. ) ;
#1223 =( GEOMETRIC_REPRESENTATION_CONTEXT ( 3 ) GLOBAL_UNCERTAINTY_ASSIGNED_CONTEXT ( ( #81 ) ) GLOBAL_UNIT_ASSIGNED_CONTEXT ( ( #722, #230, #1007 ) ) REPRESENTATION_CONTEXT ( 'NONE', 'WORKASPACE' ) );
#1224 = DIRECTION ( 'NONE',  ( 1.000000000000000000, 0.000000000000000000, 0.000000000000000000 ) ) ;
#1225 = ORIENTED_EDGE ( 'NONE', *, *, #394, .T. ) ;
#1226 = FACE_BOUND ( 'NONE', #562, .T. ) ;
#1227 = DIRECTION ( 'NONE',  ( -0.000000000000000000, -1.000000000000000000, -0.000000000000000000 ) ) ;
#1228 = CARTESIAN_POINT ( 'NONE',  ( 33.85000000000000853, 4.500000000000003553, 8.000000000000000000 ) ) ;
#1229 = LINE ( 'NONE', #735, #925 ) ;
#1230 = VERTEX_POINT ( 'NONE', #1111 ) ;
#1231 = VECTOR ( 'NONE', #451, 1000.000000000000000 ) ;
#1232 =( GEOMETRIC_REPRESENTATION_CONTEXT ( 3 ) GLOBAL_UNCERTAINTY_ASSIGNED_CONTEXT ( ( #1247 ) ) GLOBAL_UNIT_ASSIGNED_CONTEXT ( ( #446, #650, #557 ) ) REPRESENTATION_CONTEXT ( 'NONE', 'WORKASPACE' ) );
#1233 = CARTESIAN_POINT ( 'NONE',  ( 29.16250985671064200, 0.000000000000000000, 6.000000000000000000 ) ) ;
#1234 = ORIENTED_EDGE ( 'NONE', *, *, #993, .T. ) ;
#1235 = CARTESIAN_POINT ( 'NONE',  ( 10.96250985671064271, 27.99999999999999645, 0.000000000000000000 ) ) ;
#1236 = CARTESIAN_POINT ( 'NONE',  ( 13.46250985671064271, 27.99999999999998934, 4.500000000000000888 ) ) ;
#1237 = CARTESIAN_POINT ( 'NONE',  ( 29.16250985671064200, 0.8000000000000000444, 7.000000000000000000 ) ) ;
#1238 = ORIENTED_EDGE ( 'NONE', *, *, #890, .F. ) ;
#1239 = VECTOR ( 'NONE', #995, 1000.000000000000000 ) ;
#1240 = EDGE_LOOP ( 'NONE', ( #822, #738 ) ) ;
#1241 = AXIS2_PLACEMENT_3D ( 'NONE', #379, #481, #1073 ) ;
#1242 = CARTESIAN_POINT ( 'NONE',  ( 29.16250985671064200, 27.99999999999999289, 4.500000000000000888 ) ) ;
#1243 = PLANE ( 'NONE',  #1211 ) ;
#1244 = DIRECTION ( 'NONE',  ( 1.000000000000000000, 1.224646799147353454E-16, 0.000000000000000000 ) ) ;
#1245 = CARTESIAN_POINT ( 'NONE',  ( 40.00000000000000000, 4.898587196589413815E-15, 0.000000000000000000 ) ) ;
#1246 = PLANE ( 'NONE',  #866 ) ;
#1247 = UNCERTAINTY_MEASURE_WITH_UNIT (LENGTH_MEASURE( 1.000000000000000082E-05 ), #446, 'distance_accuracy_value', 'NONE');
#1248 = VERTEX_POINT ( 'NONE', #523 ) ;
#1249 = EDGE_CURVE ( 'NONE', #1018, #1136, #40, .T. ) ;
#1250 = ADVANCED_FACE ( 'NONE', ( #133 ), #1029, .F. ) ;
#1251 = CARTESIAN_POINT ( 'NONE',  ( 40.00000000000000000, 4.898587196589413815E-15, 8.000000000000000000 ) ) ;
#1252 = AXIS2_PLACEMENT_3D ( 'NONE', #1159, #678, #1074 ) ;
#1253 = DIRECTION ( 'NONE',  ( -0.000000000000000000, -0.000000000000000000, 1.000000000000000000 ) ) ;
#1254 = FACE_OUTER_BOUND ( 'NONE', #74, .T. ) ;
#1255 = DIRECTION ( 'NONE',  ( 0.000000000000000000, 0.000000000000000000, 1.000000000000000000 ) ) ;
#1256 = EDGE_LOOP ( 'NONE', ( #187, #1221 ) ) ;
#1257 = DIRECTION ( 'NONE',  ( -0.000000000000000000, -0.000000000000000000, 1.000000000000000000 ) ) ;
#1258 = AXIS2_PLACEMENT_3D ( 'NONE', #672, #978, #770 ) ;
#1259 = CARTESIAN_POINT ( 'NONE',  ( 26.66250985671064555, 27.99999999999999289, 6.000000000000000000 ) ) ;
#1260 = DIRECTION ( 'NONE',  ( -0.000000000000000000, -0.000000000000000000, -1.000000000000000000 ) ) ;
#1261 = DIRECTION ( 'NONE',  ( 1.000000000000000000, 1.734723475976808080E-16, -0.000000000000000000 ) ) ;
#1262 = ORIENTED_EDGE ( 'NONE', *, *, #1033, .F. ) ;
#1263 = ORIENTED_EDGE ( 'NONE', *, *, #993, .F. ) ;
#1264 = LINE ( 'NONE', #1242, #339 ) ;
#1265 = LINE ( 'NONE', #1067, #228 ) ;
#1266 = VECTOR ( 'NONE', #1155, 1000.000000000000000 ) ;
#1267 = LINE ( 'NONE', #873, #1205 ) ;
#1268 = ADVANCED_FACE ( 'NONE', ( #308 ), #717, .F. ) ;
#1269 = DIRECTION ( 'NONE',  ( 0.000000000000000000, -0.000000000000000000, -1.000000000000000000 ) ) ;
#1270 = ORIENTED_EDGE ( 'NONE', *, *, #465, .F. ) ;
#1271 = ADVANCED_FACE ( 'NONE', ( #1119 ), #703, .F. ) ;
#1272 = FACE_OUTER_BOUND ( 'NONE', #238, .T. ) ;
#1273 = CARTESIAN_POINT ( 'NONE',  ( 10.96250985671064626, 3.000000000000001332, 6.000000000000000000 ) ) ;
#1274 = CARTESIAN_POINT ( 'NONE',  ( 29.16250985671064200, 0.000000000000000000, 7.000000000000000000 ) ) ;
#1275 = ORIENTED_EDGE ( 'NONE', *, *, #904, .F. ) ;
#1276 = CARTESIAN_POINT ( 'NONE',  ( 35.00000000000000711, 4.500000000000003553, 0.000000000000000000 ) ) ;
#1277 = AXIS2_PLACEMENT_3D ( 'NONE', #46, #366, #1037 ) ;
#1278 = EDGE_CURVE ( 'NONE', #917, #444, #397, .T. ) ;
#1279 = CARTESIAN_POINT ( 'NONE',  ( 10.96250985671064271, 1.342520260664200099E-15, 8.000000000000000000 ) ) ;
ENDSEC;
END-ISO-10303-21;
