ISO-10303-21;
HEADER;
FILE_DESCRIPTION (( 'STEP AP214' ),
    '1' );
FILE_NAME ('mid-rp2040-v0.STEP',
    '2026-09-19T21:11:59',
    ( '' ),
    ( '' ),
    'SwSTEP 2.0',
    'SolidWorks 2026',
    '' );
FILE_SCHEMA (( 'AUTOMOTIVE_DESIGN' ));
ENDSEC;

DATA;
#1 = CIRCLE ( 'NONE', #647, 1.149999999999999023 ) ;
#2 = ORIENTED_EDGE ( 'NONE', *, *, #152, .F. ) ;
#3 = CARTESIAN_POINT ( 'NONE',  ( 7.500000000000004441, 20.00000000000000355, 6.000000000000000000 ) ) ;
#4 = CARTESIAN_POINT ( 'NONE',  ( 36.15000000000000568, 55.50000000000000000, 0.000000000000000000 ) ) ;
#5 = DIRECTION ( 'NONE',  ( -1.020425574104004492E-16, 1.000000000000000000, -0.000000000000000000 ) ) ;
#6 = CARTESIAN_POINT ( 'NONE',  ( 0.000000000000000000, 60.00000000000000000, 8.000000000000000000 ) ) ;
#7 = ORIENTED_EDGE ( 'NONE', *, *, #383, .F. ) ;
#8 = LINE ( 'NONE', #781, #99 ) ;
#9 = EDGE_CURVE ( 'NONE', #376, #411, #811, .T. ) ;
#10 = LINE ( 'NONE', #975, #1131 ) ;
#11 = ORIENTED_EDGE ( 'NONE', *, *, #770, .F. ) ;
#12 = APPLICATION_PROTOCOL_DEFINITION ( 'draft international standard', 'automotive_design', 1998, #865 ) ;
#13 = VERTEX_POINT ( 'NONE', #24 ) ;
#14 = FACE_OUTER_BOUND ( 'NONE', #881, .T. ) ;
#15 = PLANE ( 'NONE',  #149 ) ;
#16 = ORIENTED_EDGE ( 'NONE', *, *, #334, .F. ) ;
#17 = ORIENTED_EDGE ( 'NONE', *, *, #665, .T. ) ;
#18 = CARTESIAN_POINT ( 'NONE',  ( 10.96250985671064271, 0.8000000000000000444, 7.000000000000000000 ) ) ;
#19 = PRESENTATION_LAYER_ASSIGNMENT (  '', '', ( #226 ) ) ;
#20 = EDGE_CURVE ( 'NONE', #142, #893, #802, .T. ) ;
#21 = ADVANCED_FACE ( 'NONE', ( #379 ), #561, .F. ) ;
#22 = VECTOR ( 'NONE', #392, 1000.000000000000000 ) ;
#23 = CARTESIAN_POINT ( 'NONE',  ( 32.50000000000000711, 20.00000000000000711, 0.000000000000000000 ) ) ;
#24 = CARTESIAN_POINT ( 'NONE',  ( 27.16250985671064200, 20.00000000000000000, 6.000000000000000000 ) ) ;
#25 = EDGE_LOOP ( 'NONE', ( #333, #624, #224, #733 ) ) ;
#26 = CARTESIAN_POINT ( 'NONE',  ( 6.150000000000007461, 55.50000000000000000, 0.000000000000000000 ) ) ;
#27 = EDGE_CURVE ( 'NONE', #687, #78, #122, .T. ) ;
#28 = CARTESIAN_POINT ( 'NONE',  ( 10.96250985671064271, 0.8000000000000000444, 6.000000000000000000 ) ) ;
#29 = PRODUCT_DEFINITION_CONTEXT ( 'detailed design', #499, 'design' ) ;
#30 = ORIENTED_EDGE ( 'NONE', *, *, #632, .F. ) ;
#31 = DIRECTION ( 'NONE',  ( 1.000000000000000000, 0.000000000000000000, 0.000000000000000000 ) ) ;
#32 = DIRECTION ( 'NONE',  ( -0.000000000000000000, -0.000000000000000000, 1.000000000000000000 ) ) ;
#33 = CARTESIAN_POINT ( 'NONE',  ( 10.96250985671064626, 3.000000000000001332, 6.000000000000000000 ) ) ;
#34 = VECTOR ( 'NONE', #534, 1000.000000000000000 ) ;
#35 = EDGE_LOOP ( 'NONE', ( #1020, #67, #398, #352, #451, #582, #384, #175 ) ) ;
#36 = PRESENTATION_STYLE_ASSIGNMENT (( #1086 ) ) ;
#37 = AXIS2_PLACEMENT_3D ( 'NONE', #159, #414, #930 ) ;
#38 = VECTOR ( 'NONE', #466, 1000.000000000000000 ) ;
#39 = DIRECTION ( 'NONE',  ( -0.000000000000000000, -0.000000000000000000, 1.000000000000000000 ) ) ;
#40 = ADVANCED_BREP_SHAPE_REPRESENTATION ( 'mid-rp2040-v0', ( #765, #68 ), #911 ) ;
#41 = LINE ( 'NONE', #141, #22 ) ;
#42 = EDGE_LOOP ( 'NONE', ( #1043, #638, #1031, #553 ) ) ;
#43 = DIRECTION ( 'NONE',  ( 0.000000000000000000, 0.000000000000000000, 1.000000000000000000 ) ) ;
#44 = EDGE_CURVE ( 'NONE', #893, #693, #292, .T. ) ;
#45 = DIRECTION ( 'NONE',  ( -1.000000000000000000, -1.734723475976807094E-16, -0.000000000000000000 ) ) ;
#46 = DIRECTION ( 'NONE',  ( -0.000000000000000000, -0.000000000000000000, 1.000000000000000000 ) ) ;
#47 = ORIENTED_EDGE ( 'NONE', *, *, #44, .T. ) ;
#48 = DIRECTION ( 'NONE',  ( 0.000000000000000000, 0.000000000000000000, -1.000000000000000000 ) ) ;
#49 = LINE ( 'NONE', #818, #354 ) ;
#50 = FACE_OUTER_BOUND ( 'NONE', #467, .T. ) ;
#51 = ORIENTED_EDGE ( 'NONE', *, *, #1126, .F. ) ;
#52 = CARTESIAN_POINT ( 'NONE',  ( 10.96250985671064271, 1.342520260664200099E-15, 8.000000000000000000 ) ) ;
#53 = AXIS2_PLACEMENT_3D ( 'NONE', #916, #228, #746 ) ;
#54 = EDGE_CURVE ( 'NONE', #777, #97, #365, .T. ) ;
#55 = DIRECTION ( 'NONE',  ( 1.000000000000000000, 0.000000000000000000, 0.000000000000000000 ) ) ;
#56 = VECTOR ( 'NONE', #1053, 1000.000000000000000 ) ;
#57 = CARTESIAN_POINT ( 'NONE',  ( 25.66250985671063845, 1.300000000000000044, 4.500000000000000888 ) ) ;
#58 = AXIS2_PLACEMENT_3D ( 'NONE', #726, #969, #981 ) ;
#59 = EDGE_CURVE ( 'NONE', #549, #1136, #1068, .T. ) ;
#60 = ORIENTED_EDGE ( 'NONE', *, *, #54, .T. ) ;
#61 = CYLINDRICAL_SURFACE ( 'NONE', #389, 1.149999999999998135 ) ;
#62 = ORIENTED_EDGE ( 'NONE', *, *, #9, .T. ) ;
#63 = DIRECTION ( 'NONE',  ( 1.000000000000000000, 0.000000000000000000, 0.000000000000000000 ) ) ;
#64 = EDGE_LOOP ( 'NONE', ( #598, #1052, #298, #338, #163, #241, #978, #263, #165, #942, #191, #785 ) ) ;
#65 = DIRECTION ( 'NONE',  ( 0.000000000000000000, 0.000000000000000000, 1.000000000000000000 ) ) ;
#66 = EDGE_CURVE ( 'NONE', #998, #1123, #1055, .T. ) ;
#67 = ORIENTED_EDGE ( 'NONE', *, *, #66, .F. ) ;
#68 = AXIS2_PLACEMENT_3D ( 'NONE', #1074, #450, #970 ) ;
#69 = DIRECTION ( 'NONE',  ( -1.000000000000000000, 0.000000000000000000, 0.000000000000000000 ) ) ;
#70 = ADVANCED_FACE ( 'NONE', ( #374 ), #633, .F. ) ;
#71 = ORIENTED_EDGE ( 'NONE', *, *, #198, .F. ) ;
#72 = ADVANCED_FACE ( 'NONE', ( #215 ), #889, .F. ) ;
#73 = CARTESIAN_POINT ( 'NONE',  ( 35.00000000000000711, 55.50000000000000000, 8.000000000000000000 ) ) ;
#74 = ORIENTED_EDGE ( 'NONE', *, *, #334, .T. ) ;
#75 = AXIS2_PLACEMENT_3D ( 'NONE', #546, #454, #1054 ) ;
#76 = DIRECTION ( 'NONE',  ( -0.000000000000000000, -0.000000000000000000, -1.000000000000000000 ) ) ;
#77 = VECTOR ( 'NONE', #817, 1000.000000000000000 ) ;
#78 = VERTEX_POINT ( 'NONE', #977 ) ;
#79 = VECTOR ( 'NONE', #666, 1000.000000000000000 ) ;
#80 = CARTESIAN_POINT ( 'NONE',  ( 40.00000000000000000, 4.898587196589413815E-15, 0.000000000000000000 ) ) ;
#81 = ORIENTED_EDGE ( 'NONE', *, *, #521, .F. ) ;
#82 = DIRECTION ( 'NONE',  ( 0.000000000000000000, 0.000000000000000000, 1.000000000000000000 ) ) ;
#83 = EDGE_CURVE ( 'NONE', #606, #1127, #199, .T. ) ;
#84 = PLANE ( 'NONE',  #752 ) ;
#85 = ORIENTED_EDGE ( 'NONE', *, *, #986, .T. ) ;
#86 =( LENGTH_UNIT ( ) NAMED_UNIT ( * ) SI_UNIT ( .MILLI., .METRE. ) );
#87 = ORIENTED_EDGE ( 'NONE', *, *, #1000, .T. ) ;
#88 = LINE ( 'NONE', #684, #695 ) ;
#89 = FACE_OUTER_BOUND ( 'NONE', #847, .T. ) ;
#90 = ORIENTED_EDGE ( 'NONE', *, *, #487, .T. ) ;
#91 = DIRECTION ( 'NONE',  ( 1.000000000000000000, 1.826024711554534160E-16, 0.000000000000000000 ) ) ;
#92 = ORIENTED_EDGE ( 'NONE', *, *, #926, .F. ) ;
#93 = FACE_OUTER_BOUND ( 'NONE', #42, .T. ) ;
#94 = VECTOR ( 'NONE', #136, 1000.000000000000000 ) ;
#95 = EDGE_CURVE ( 'NONE', #1033, #904, #651, .T. ) ;
#96 = CARTESIAN_POINT ( 'NONE',  ( 10.96250985671064271, 1.342520260664200099E-15, 7.000000000000000000 ) ) ;
#97 = VERTEX_POINT ( 'NONE', #842 ) ;
#98 = CARTESIAN_POINT ( 'NONE',  ( 5.000000000000007994, 55.50000000000000000, 8.000000000000000000 ) ) ;
#99 = VECTOR ( 'NONE', #1130, 1000.000000000000000 ) ;
#100 = VECTOR ( 'NONE', #1104, 1000.000000000000000 ) ;
#101 = ORIENTED_EDGE ( 'NONE', *, *, #871, .F. ) ;
#102 = CARTESIAN_POINT ( 'NONE',  ( 25.66250985671063845, 1.300000000000000044, 4.500000000000000888 ) ) ;
#103 = VECTOR ( 'NONE', #836, 1000.000000000000000 ) ;
#104 = LINE ( 'NONE', #984, #915 ) ;
#105 = CARTESIAN_POINT ( 'NONE',  ( 12.96250985671064271, 19.99999999999999645, 6.000000000000000000 ) ) ;
#106 = VERTEX_POINT ( 'NONE', #408 ) ;
#107 = CARTESIAN_POINT ( 'NONE',  ( 35.00000000000000711, 55.50000000000000000, 0.000000000000000000 ) ) ;
#108 = LINE ( 'NONE', #26, #691 ) ;
#109 = ORIENTED_EDGE ( 'NONE', *, *, #464, .F. ) ;
#110 = EDGE_CURVE ( 'NONE', #449, #875, #669, .T. ) ;
#111 = VERTEX_POINT ( 'NONE', #997 ) ;
#112 = LINE ( 'NONE', #800, #750 ) ;
#113 = DIRECTION ( 'NONE',  ( 1.000000000000000000, 1.224646799147353454E-16, 0.000000000000000000 ) ) ;
#114 = AXIS2_PLACEMENT_3D ( 'NONE', #564, #560, #730 ) ;
#115 = EDGE_LOOP ( 'NONE', ( #477, #405, #510, #460, #556, #17, #749, #271, #544, #867, #816, #269, #513, #637, #993, #929 ) ) ;
#116 = VERTEX_POINT ( 'NONE', #483 ) ;
#117 = FACE_OUTER_BOUND ( 'NONE', #64, .T. ) ;
#118 = VECTOR ( 'NONE', #166, 1000.000000000000000 ) ;
#119 = ADVANCED_FACE ( 'NONE', ( #1088 ), #1106, .F. ) ;
#120 = DIRECTION ( 'NONE',  ( -0.000000000000000000, -0.000000000000000000, 1.000000000000000000 ) ) ;
#121 = EDGE_CURVE ( 'NONE', #367, #439, #1019, .T. ) ;
#122 = LINE ( 'NONE', #908, #663 ) ;
#123 = ORIENTED_EDGE ( 'NONE', *, *, #527, .F. ) ;
#124 = CARTESIAN_POINT ( 'NONE',  ( 7.500000000000000000, 57.99999999999999289, 0.000000000000000000 ) ) ;
#125 = LINE ( 'NONE', #234, #823 ) ;
#126 = CARTESIAN_POINT ( 'NONE',  ( 14.46250985671064271, 1.299999999999997824, 6.000000000000000000 ) ) ;
#127 = ORIENTED_EDGE ( 'NONE', *, *, #834, .F. ) ;
#128 = LINE ( 'NONE', #719, #789 ) ;
#129 = LINE ( 'NONE', #653, #586 ) ;
#130 = LINE ( 'NONE', #476, #535 ) ;
#131 = AXIS2_PLACEMENT_3D ( 'NONE', #448, #184, #442 ) ;
#132 = ADVANCED_FACE ( 'NONE', ( #307 ), #319, .F. ) ;
#133 = ORIENTED_EDGE ( 'NONE', *, *, #642, .T. ) ;
#134 = FILL_AREA_STYLE_COLOUR ( '', #192 ) ;
#135 = AXIS2_PLACEMENT_3D ( 'NONE', #1021, #410, #43 ) ;
#136 = DIRECTION ( 'NONE',  ( 1.000000000000000000, 1.224646799147353454E-16, 0.000000000000000000 ) ) ;
#137 = CYLINDRICAL_SURFACE ( 'NONE', #937, 1.149999999999998135 ) ;
#138 = ORIENTED_EDGE ( 'NONE', *, *, #475, .F. ) ;
#139 = DIRECTION ( 'NONE',  ( 1.000000000000000000, 0.000000000000000000, 0.000000000000000000 ) ) ;
#140 = CARTESIAN_POINT ( 'NONE',  ( 12.96250985671064271, 19.99999999999999645, 4.500000000000000888 ) ) ;
#141 = CARTESIAN_POINT ( 'NONE',  ( 25.66250985671063845, 1.300000000000000044, 4.500000000000000888 ) ) ;
#142 = VERTEX_POINT ( 'NONE', #33 ) ;
#143 = PLANE ( 'NONE',  #335 ) ;
#144 = EDGE_CURVE ( 'NONE', #875, #376, #577, .T. ) ;
#145 = EDGE_CURVE ( 'NONE', #439, #209, #148, .T. ) ;
#146 = AXIS2_PLACEMENT_3D ( 'NONE', #73, #512, #445 ) ;
#147 = CARTESIAN_POINT ( 'NONE',  ( 10.96250985671064626, 3.000000000000001332, 4.500000000000000888 ) ) ;
#148 = LINE ( 'NONE', #928, #716 ) ;
#149 = AXIS2_PLACEMENT_3D ( 'NONE', #795, #626, #790 ) ;
#150 = VERTEX_POINT ( 'NONE', #235 ) ;
#151 = CARTESIAN_POINT ( 'NONE',  ( 10.96250985671064626, 3.000000000000001332, 4.500000000000000888 ) ) ;
#152 = EDGE_CURVE ( 'NONE', #757, #326, #231, .T. ) ;
#153 = EDGE_CURVE ( 'NONE', #1078, #855, #493, .T. ) ;
#154 = MECHANICAL_DESIGN_GEOMETRIC_PRESENTATION_REPRESENTATION (  '', ( #226 ), #1082 ) ;
#155 = CARTESIAN_POINT ( 'NONE',  ( 25.66250985671063845, 1.300000000000000044, 6.000000000000000000 ) ) ;
#156 = AXIS2_PLACEMENT_3D ( 'NONE', #537, #296, #791 ) ;
#157 = EDGE_CURVE ( 'NONE', #323, #573, #193, .T. ) ;
#158 = ORIENTED_EDGE ( 'NONE', *, *, #698, .T. ) ;
#159 = CARTESIAN_POINT ( 'NONE',  ( 25.66250985671063845, 1.300000000000000044, 4.500000000000000888 ) ) ;
#160 = EDGE_LOOP ( 'NONE', ( #539, #1029, #1039, #766, #799, #495, #250, #446 ) ) ;
#161 = ADVANCED_FACE ( 'NONE', ( #570 ), #397, .F. ) ;
#162 = CARTESIAN_POINT ( 'NONE',  ( 29.16250985671064200, 20.00000000000000000, 4.500000000000000888 ) ) ;
#163 = ORIENTED_EDGE ( 'NONE', *, *, #976, .F. ) ;
#164 = CARTESIAN_POINT ( 'NONE',  ( 14.46250985671064271, 1.299999999999997824, 4.500000000000000888 ) ) ;
#165 = ORIENTED_EDGE ( 'NONE', *, *, #83, .T. ) ;
#166 = DIRECTION ( 'NONE',  ( -0.000000000000000000, -0.000000000000000000, -1.000000000000000000 ) ) ;
#167 = ORIENTED_EDGE ( 'NONE', *, *, #819, .F. ) ;
#168 = DIRECTION ( 'NONE',  ( 0.000000000000000000, 0.000000000000000000, 1.000000000000000000 ) ) ;
#169 = EDGE_CURVE ( 'NONE', #688, #804, #219, .T. ) ;
#170 = ORIENTED_EDGE ( 'NONE', *, *, #475, .T. ) ;
#171 = DIRECTION ( 'NONE',  ( 0.000000000000000000, 0.000000000000000000, 1.000000000000000000 ) ) ;
#172 = VECTOR ( 'NONE', #386, 1000.000000000000000 ) ;
#173 = CARTESIAN_POINT ( 'NONE',  ( 5.000000000000007994, 55.50000000000000000, 0.000000000000000000 ) ) ;
#174 = VECTOR ( 'NONE', #829, 1000.000000000000000 ) ;
#175 = ORIENTED_EDGE ( 'NONE', *, *, #605, .F. ) ;
#176 = FACE_BOUND ( 'NONE', #772, .T. ) ;
#177 = ORIENTED_EDGE ( 'NONE', *, *, #755, .T. ) ;
#178 = DIRECTION ( 'NONE',  ( -0.000000000000000000, -0.000000000000000000, 1.000000000000000000 ) ) ;
#179 = DIRECTION ( 'NONE',  ( -1.020425574104004492E-16, 1.000000000000000000, 0.000000000000000000 ) ) ;
#180 = ORIENTED_EDGE ( 'NONE', *, *, #121, .F. ) ;
#181 = ORIENTED_EDGE ( 'NONE', *, *, #20, .T. ) ;
#182 = LINE ( 'NONE', #363, #56 ) ;
#183 = ADVANCED_FACE ( 'NONE', ( #50 ), #137, .F. ) ;
#184 = DIRECTION ( 'NONE',  ( 0.000000000000000000, 0.000000000000000000, 1.000000000000000000 ) ) ;
#185 = EDGE_LOOP ( 'NONE', ( #181, #955, #1095, #667 ) ) ;
#186 = FACE_OUTER_BOUND ( 'NONE', #344, .T. ) ;
#187 = ORIENTED_EDGE ( 'NONE', *, *, #1022, .F. ) ;
#188 = CARTESIAN_POINT ( 'NONE',  ( 7.500000000000000000, 57.99999999999999289, 8.000000000000000000 ) ) ;
#189 = VECTOR ( 'NONE', #400, 1000.000000000000000 ) ;
#190 = CARTESIAN_POINT ( 'NONE',  ( 33.85000000000000853, 4.500000000000003553, 0.000000000000000000 ) ) ;
#191 = ORIENTED_EDGE ( 'NONE', *, *, #819, .T. ) ;
#192 = COLOUR_RGB ( '',0.7921568627450980005, 0.8196078431372548767, 0.9333333333333333481 ) ;
#193 = CIRCLE ( 'NONE', #864, 1.149999999999999023 ) ;
#194 = ORIENTED_EDGE ( 'NONE', *, *, #279, .T. ) ;
#195 = LINE ( 'NONE', #635, #497 ) ;
#196 = DIRECTION ( 'NONE',  ( 1.141265444721583757E-16, -1.000000000000000000, 0.000000000000000000 ) ) ;
#197 = EDGE_CURVE ( 'NONE', #1127, #1075, #130, .T. ) ;
#198 = EDGE_CURVE ( 'NONE', #449, #688, #41, .T. ) ;
#199 = LINE ( 'NONE', #203, #421 ) ;
#200 = EDGE_LOOP ( 'NONE', ( #1069, #616, #480, #211 ) ) ;
#201 = DIRECTION ( 'NONE',  ( 1.000000000000000000, 0.000000000000000000, 0.000000000000000000 ) ) ;
#202 = LINE ( 'NONE', #897, #189 ) ;
#203 = CARTESIAN_POINT ( 'NONE',  ( 40.00000000000000000, 4.898587196589413815E-15, 8.000000000000000000 ) ) ;
#204 = EDGE_LOOP ( 'NONE', ( #523, #940, #566, #950 ) ) ;
#205 = CARTESIAN_POINT ( 'NONE',  ( 32.50000000000000000, 57.99999999999999289, 0.000000000000000000 ) ) ;
#206 = EDGE_CURVE ( 'NONE', #116, #737, #313, .T. ) ;
#207 = CARTESIAN_POINT ( 'NONE',  ( 10.96250985671064271, 0.8000000000000000444, 7.000000000000000000 ) ) ;
#208 = VECTOR ( 'NONE', #221, 1000.000000000000000 ) ;
#209 = VERTEX_POINT ( 'NONE', #489 ) ;
#210 = UNCERTAINTY_MEASURE_WITH_UNIT (LENGTH_MEASURE( 1.000000000000000082E-05 ), #86, 'distance_accuracy_value', 'NONE');
#211 = ORIENTED_EDGE ( 'NONE', *, *, #498, .T. ) ;
#212 = DIRECTION ( 'NONE',  ( 0.000000000000000000, 0.000000000000000000, 1.000000000000000000 ) ) ;
#213 = AXIS2_PLACEMENT_3D ( 'NONE', #792, #874, #265 ) ;
#214 = CARTESIAN_POINT ( 'NONE',  ( 32.50000000000000000, 57.99999999999999289, 0.000000000000000000 ) ) ;
#215 = FACE_OUTER_BOUND ( 'NONE', #692, .T. ) ;
#216 = EDGE_LOOP ( 'NONE', ( #252, #1037, #415, #1018 ) ) ;
#217 = DIRECTION ( 'NONE',  ( -0.000000000000000000, -0.000000000000000000, 1.000000000000000000 ) ) ;
#218 = ADVANCED_FACE ( 'NONE', ( #89 ), #429, .F. ) ;
#219 = LINE ( 'NONE', #565, #1009 ) ;
#220 = ORIENTED_EDGE ( 'NONE', *, *, #328, .T. ) ;
#221 = DIRECTION ( 'NONE',  ( 1.000000000000000000, 0.000000000000000000, 0.000000000000000000 ) ) ;
#222 = DIRECTION ( 'NONE',  ( 0.000000000000000000, 1.000000000000000000, 0.000000000000000000 ) ) ;
#223 = VECTOR ( 'NONE', #120, 1000.000000000000000 ) ;
#224 = ORIENTED_EDGE ( 'NONE', *, *, #1126, .T. ) ;
#225 = DIRECTION ( 'NONE',  ( -0.000000000000000000, -0.000000000000000000, 1.000000000000000000 ) ) ;
#226 = STYLED_ITEM ( 'NONE', ( #36 ), #765 ) ;
#227 = VECTOR ( 'NONE', #222, 1000.000000000000000 ) ;
#228 = DIRECTION ( 'NONE',  ( 0.000000000000000000, 0.000000000000000000, 1.000000000000000000 ) ) ;
#229 = VECTOR ( 'NONE', #690, 1000.000000000000000 ) ;
#230 = EDGE_CURVE ( 'NONE', #1127, #904, #943, .T. ) ;
#231 = LINE ( 'NONE', #126, #103 ) ;
#232 = ORIENTED_EDGE ( 'NONE', *, *, #1081, .T. ) ;
#233 = DIRECTION ( 'NONE',  ( -0.000000000000000000, -0.000000000000000000, 1.000000000000000000 ) ) ;
#234 = CARTESIAN_POINT ( 'NONE',  ( 29.16250985671064200, 0.000000000000000000, 6.000000000000000000 ) ) ;
#235 = CARTESIAN_POINT ( 'NONE',  ( 3.850000000000008082, 4.500000000000003553, 8.000000000000000000 ) ) ;
#236 = ORIENTED_EDGE ( 'NONE', *, *, #834, .T. ) ;
#237 = CARTESIAN_POINT ( 'NONE',  ( 35.00000000000000711, 4.500000000000003553, 0.000000000000000000 ) ) ;
#238 = ORIENTED_EDGE ( 'NONE', *, *, #511, .F. ) ;
#239 = ADVANCED_FACE ( 'NONE', ( #674 ), #697, .F. ) ;
#240 = DIRECTION ( 'NONE',  ( 1.000000000000000000, 0.000000000000000000, 0.000000000000000000 ) ) ;
#241 = ORIENTED_EDGE ( 'NONE', *, *, #427, .F. ) ;
#242 = FACE_OUTER_BOUND ( 'NONE', #562, .T. ) ;
#243 = AXIS2_PLACEMENT_3D ( 'NONE', #327, #1108, #1102 ) ;
#244 = AXIS2_PLACEMENT_3D ( 'NONE', #1015, #240, #747 ) ;
#245 = DIRECTION ( 'NONE',  ( -0.000000000000000000, -0.000000000000000000, 1.000000000000000000 ) ) ;
#246 = ORIENTED_EDGE ( 'NONE', *, *, #672, .T. ) ;
#247 = LINE ( 'NONE', #742, #174 ) ;
#248 = LINE ( 'NONE', #601, #509 ) ;
#249 = ADVANCED_FACE ( 'NONE', ( #503 ), #84, .F. ) ;
#250 = ORIENTED_EDGE ( 'NONE', *, *, #395, .F. ) ;
#251 = DIRECTION ( 'NONE',  ( 0.000000000000000000, 0.000000000000000000, 1.000000000000000000 ) ) ;
#252 = ORIENTED_EDGE ( 'NONE', *, *, #453, .T. ) ;
#253 = LINE ( 'NONE', #188, #443 ) ;
#254 = DIRECTION ( 'NONE',  ( 1.000000000000000000, 0.000000000000000000, 0.000000000000000000 ) ) ;
#255 = EDGE_CURVE ( 'NONE', #326, #688, #1042, .T. ) ;
#256 = EDGE_LOOP ( 'NONE', ( #613, #812 ) ) ;
#257 = DIRECTION ( 'NONE',  ( 0.000000000000000000, 0.000000000000000000, 1.000000000000000000 ) ) ;
#258 = ORIENTED_EDGE ( 'NONE', *, *, #110, .T. ) ;
#259 = DIRECTION ( 'NONE',  ( -0.000000000000000000, -0.000000000000000000, 1.000000000000000000 ) ) ;
#260 = CYLINDRICAL_SURFACE ( 'NONE', #481, 1.149999999999999023 ) ;
#261 = AXIS2_PLACEMENT_3D ( 'NONE', #305, #212, #31 ) ;
#262 = EDGE_CURVE ( 'NONE', #1123, #367, #522, .T. ) ;
#263 = ORIENTED_EDGE ( 'NONE', *, *, #395, .T. ) ;
#264 = AXIS2_PLACEMENT_3D ( 'NONE', #938, #268, #872 ) ;
#265 = DIRECTION ( 'NONE',  ( 1.000000000000000000, 1.734723475976807094E-16, 0.000000000000000000 ) ) ;
#266 = ORIENTED_EDGE ( 'NONE', *, *, #807, .T. ) ;
#267 = DIRECTION ( 'NONE',  ( 2.040851148208008984E-16, -1.000000000000000000, 0.000000000000000000 ) ) ;
#268 = DIRECTION ( 'NONE',  ( -0.000000000000000000, -0.000000000000000000, 1.000000000000000000 ) ) ;
#269 = ORIENTED_EDGE ( 'NONE', *, *, #996, .T. ) ;
#270 = LINE ( 'NONE', #965, #973 ) ;
#271 = ORIENTED_EDGE ( 'NONE', *, *, #297, .F. ) ;
#272 = CARTESIAN_POINT ( 'NONE',  ( 36.15000000000000568, 55.50000000000000000, 8.000000000000000000 ) ) ;
#273 = ADVANCED_FACE ( 'NONE', ( #857 ), #329, .F. ) ;
#274 = CARTESIAN_POINT ( 'NONE',  ( 0.000000000000000000, 0.000000000000000000, 8.000000000000000000 ) ) ;
#275 = DIRECTION ( 'NONE',  ( 1.000000000000000000, 0.000000000000000000, 0.000000000000000000 ) ) ;
#276 = DIRECTION ( 'NONE',  ( -0.000000000000000000, -0.000000000000000000, -1.000000000000000000 ) ) ;
#277 = ORIENTED_EDGE ( 'NONE', *, *, #745, .T. ) ;
#278 = DIRECTION ( 'NONE',  ( 0.000000000000000000, 0.000000000000000000, 1.000000000000000000 ) ) ;
#279 = EDGE_CURVE ( 'NONE', #1075, #283, #592, .T. ) ;
#280 = CARTESIAN_POINT ( 'NONE',  ( 7.500000000000004441, 20.00000000000000355, 8.000000000000000000 ) ) ;
#281 = ORIENTED_EDGE ( 'NONE', *, *, #572, .T. ) ;
#282 = AXIS2_PLACEMENT_3D ( 'NONE', #604, #853, #1044 ) ;
#283 = VERTEX_POINT ( 'NONE', #771 ) ;
#284 = CARTESIAN_POINT ( 'NONE',  ( 14.46250985671064271, 20.00000000000000000, 6.000000000000000000 ) ) ;
#285 = CARTESIAN_POINT ( 'NONE',  ( 29.16250985671064555, 3.000000000000001332, 6.000000000000000000 ) ) ;
#286 = EDGE_CURVE ( 'NONE', #529, #455, #1049, .T. ) ;
#287 = ORIENTED_EDGE ( 'NONE', *, *, #521, .T. ) ;
#288 = ADVANCED_FACE ( 'NONE', ( #500 ), #260, .F. ) ;
#289 = ORIENTED_EDGE ( 'NONE', *, *, #511, .T. ) ;
#290 = CARTESIAN_POINT ( 'NONE',  ( 7.500000000000000000, 57.99999999999999289, 8.000000000000000000 ) ) ;
#291 = DIRECTION ( 'NONE',  ( -0.000000000000000000, -0.000000000000000000, 1.000000000000000000 ) ) ;
#292 = LINE ( 'NONE', #105, #461 ) ;
#293 = ORIENTED_EDGE ( 'NONE', *, *, #640, .T. ) ;
#294 = PLANE ( 'NONE',  #731 ) ;
#295 = CARTESIAN_POINT ( 'NONE',  ( 32.50000000000000000, 57.99999999999999289, 0.000000000000000000 ) ) ;
#296 = DIRECTION ( 'NONE',  ( -0.000000000000000000, 1.000000000000000000, 0.000000000000000000 ) ) ;
#297 = EDGE_CURVE ( 'NONE', #380, #670, #764, .T. ) ;
#298 = ORIENTED_EDGE ( 'NONE', *, *, #453, .F. ) ;
#299 = FACE_OUTER_BOUND ( 'NONE', #611, .T. ) ;
#300 = AXIS2_PLACEMENT_3D ( 'NONE', #1111, #676, #1027 ) ;
#301 = VECTOR ( 'NONE', #796, 1000.000000000000000 ) ;
#302 = LINE ( 'NONE', #753, #208 ) ;
#303 = DIRECTION ( 'NONE',  ( 0.000000000000000000, 0.000000000000000000, -1.000000000000000000 ) ) ;
#304 = EDGE_LOOP ( 'NONE', ( #133, #832, #167, #194 ) ) ;
#305 = CARTESIAN_POINT ( 'NONE',  ( 5.000000000000007994, 4.500000000000003553, 0.000000000000000000 ) ) ;
#306 = DIRECTION ( 'NONE',  ( 1.000000000000000000, 1.936075308009830156E-16, -0.000000000000000000 ) ) ;
#307 = FACE_OUTER_BOUND ( 'NONE', #304, .T. ) ;
#308 = ORIENTED_EDGE ( 'NONE', *, *, #1081, .F. ) ;
#309 = CARTESIAN_POINT ( 'NONE',  ( 10.96250985671064271, 20.00000000000000355, 0.000000000000000000 ) ) ;
#310 = ADVANCED_FACE ( 'NONE', ( #433 ), #783, .F. ) ;
#311 = EDGE_CURVE ( 'NONE', #367, #97, #1120, .T. ) ;
#312 = CARTESIAN_POINT ( 'NONE',  ( 40.00000000000000000, 4.898587196589413815E-15, 8.000000000000000000 ) ) ;
#313 = LINE ( 'NONE', #659, #810 ) ;
#314 = ORIENTED_EDGE ( 'NONE', *, *, #1013, .F. ) ;
#315 = DIRECTION ( 'NONE',  ( -1.000000000000000000, -0.000000000000000000, -0.000000000000000000 ) ) ;
#316 = CIRCLE ( 'NONE', #300, 1.149999999999998135 ) ;
#317 = AXIS2_PLACEMENT_3D ( 'NONE', #507, #933, #597 ) ;
#318 = CARTESIAN_POINT ( 'NONE',  ( 0.000000000000000000, 0.000000000000000000, 4.500000000000000888 ) ) ;
#319 = PLANE ( 'NONE',  #244 ) ;
#320 = EDGE_CURVE ( 'NONE', #411, #326, #337, .T. ) ;
#321 = EDGE_LOOP ( 'NONE', ( #1112, #187, #7, #1118 ) ) ;
#322 = CARTESIAN_POINT ( 'NONE',  ( 40.00000000000000000, 60.00000000000000711, 0.000000000000000000 ) ) ;
#323 = VERTEX_POINT ( 'NONE', #1036 ) ;
#324 = CARTESIAN_POINT ( 'NONE',  ( 10.96250985671064271, 19.99999999999999645, 4.500000000000000888 ) ) ;
#325 = DIRECTION ( 'NONE',  ( 0.000000000000000000, 1.000000000000000000, 0.000000000000000000 ) ) ;
#326 = VERTEX_POINT ( 'NONE', #1030 ) ;
#327 = CARTESIAN_POINT ( 'NONE',  ( 0.000000000000000000, 0.000000000000000000, 8.000000000000000000 ) ) ;
#328 = EDGE_CURVE ( 'NONE', #606, #1033, #248, .T. ) ;
#329 = CYLINDRICAL_SURFACE ( 'NONE', #628, 1.149999999999999911 ) ;
#330 = CIRCLE ( 'NONE', #763, 1.149999999999998135 ) ;
#331 = EDGE_LOOP ( 'NONE', ( #74, #1063 ) ) ;
#332 = DIRECTION ( 'NONE',  ( 1.000000000000000000, 0.000000000000000000, 0.000000000000000000 ) ) ;
#333 = ORIENTED_EDGE ( 'NONE', *, *, #672, .F. ) ;
#334 = EDGE_CURVE ( 'NONE', #573, #323, #1023, .T. ) ;
#335 = AXIS2_PLACEMENT_3D ( 'NONE', #491, #406, #751 ) ;
#336 = VECTOR ( 'NONE', #754, 1000.000000000000000 ) ;
#337 = LINE ( 'NONE', #958, #531 ) ;
#338 = ORIENTED_EDGE ( 'NONE', *, *, #734, .F. ) ;
#339 = CARTESIAN_POINT ( 'NONE',  ( 35.00000000000000711, 4.500000000000003553, 0.000000000000000000 ) ) ;
#340 = ORIENTED_EDGE ( 'NONE', *, *, #698, .F. ) ;
#341 = CARTESIAN_POINT ( 'NONE',  ( 12.96250985671064271, 19.99999999999999645, 4.500000000000000888 ) ) ;
#342 = VERTEX_POINT ( 'NONE', #1125 ) ;
#343 = DIRECTION ( 'NONE',  ( 1.000000000000000000, 0.000000000000000000, -0.000000000000000000 ) ) ;
#344 = EDGE_LOOP ( 'NONE', ( #170, #423, #371, #849 ) ) ;
#345 = DIRECTION ( 'NONE',  ( -0.000000000000000000, -1.000000000000000000, -0.000000000000000000 ) ) ;
#346 = EDGE_CURVE ( 'NONE', #998, #1078, #901, .T. ) ;
#347 = EDGE_CURVE ( 'NONE', #106, #585, #369, .T. ) ;
#348 = DIRECTION ( 'NONE',  ( 1.000000000000000000, 1.020425574104004492E-16, 0.000000000000000000 ) ) ;
#349 = ORIENTED_EDGE ( 'NONE', *, *, #9, .F. ) ;
#350 = PLANE ( 'NONE',  #282 ) ;
#351 = EDGE_CURVE ( 'NONE', #699, #966, #1071, .T. ) ;
#352 = ORIENTED_EDGE ( 'NONE', *, *, #153, .T. ) ;
#353 = CARTESIAN_POINT ( 'NONE',  ( 7.500000000000004441, 20.00000000000000355, 0.000000000000000000 ) ) ;
#354 = VECTOR ( 'NONE', #32, 1000.000000000000000 ) ;
#355 = DIRECTION ( 'NONE',  ( 1.000000000000000000, 0.000000000000000000, 0.000000000000000000 ) ) ;
#356 = AXIS2_PLACEMENT_3D ( 'NONE', #339, #168, #518 ) ;
#357 = ORIENTED_EDGE ( 'NONE', *, *, #605, .T. ) ;
#358 = VECTOR ( 'NONE', #776, 1000.000000000000000 ) ;
#359 = LINE ( 'NONE', #437, #1098 ) ;
#360 = EDGE_CURVE ( 'NONE', #573, #944, #108, .T. ) ;
#361 = ADVANCED_FACE ( 'NONE', ( #382 ), #364, .F. ) ;
#362 = ORIENTED_EDGE ( 'NONE', *, *, #20, .F. ) ;
#363 = CARTESIAN_POINT ( 'NONE',  ( 27.16250985671064200, 20.00000000000000000, 4.500000000000000888 ) ) ;
#364 = PLANE ( 'NONE',  #75 ) ;
#365 = LINE ( 'NONE', #28, #38 ) ;
#366 = DIRECTION ( 'NONE',  ( 1.000000000000000000, 0.000000000000000000, 0.000000000000000000 ) ) ;
#367 = VERTEX_POINT ( 'NONE', #207 ) ;
#368 = DIRECTION ( 'NONE',  ( 0.000000000000000000, 0.000000000000000000, -1.000000000000000000 ) ) ;
#369 = LINE ( 'NONE', #285, #1132 ) ;
#370 = CARTESIAN_POINT ( 'NONE',  ( 29.16250985671064200, 1.342520260664200099E-15, 7.000000000000000000 ) ) ;
#371 = ORIENTED_EDGE ( 'NONE', *, *, #197, .F. ) ;
#372 = ADVANCED_FACE ( 'NONE', ( #725 ), #1077, .F. ) ;
#373 = CARTESIAN_POINT ( 'NONE',  ( 3.850000000000008971, 55.50000000000000000, 8.000000000000000000 ) ) ;
#374 = FACE_OUTER_BOUND ( 'NONE', #216, .T. ) ;
#375 = AXIS2_PLACEMENT_3D ( 'NONE', #1084, #303, #923 ) ;
#376 = VERTEX_POINT ( 'NONE', #877 ) ;
#377 = PLANE ( 'NONE',  #591 ) ;
#378 = LINE ( 'NONE', #274, #878 ) ;
#379 = FACE_OUTER_BOUND ( 'NONE', #200, .T. ) ;
#380 = VERTEX_POINT ( 'NONE', #23 ) ;
#381 = CARTESIAN_POINT ( 'NONE',  ( 29.16250985671064200, 0.7999999999999998224, 6.000000000000000000 ) ) ;
#382 = FACE_OUTER_BOUND ( 'NONE', #1057, .T. ) ;
#383 = EDGE_CURVE ( 'NONE', #111, #701, #104, .T. ) ;
#384 = ORIENTED_EDGE ( 'NONE', *, *, #1022, .T. ) ;
#385 = ORIENTED_EDGE ( 'NONE', *, *, #712, .F. ) ;
#386 = DIRECTION ( 'NONE',  ( -0.000000000000000000, -0.000000000000000000, 1.000000000000000000 ) ) ;
#387 = CARTESIAN_POINT ( 'NONE',  ( 10.96250985671064271, 1.342520260664200099E-15, 7.000000000000000000 ) ) ;
#388 = EDGE_LOOP ( 'NONE', ( #308, #681, #287, #340 ) ) ;
#389 = AXIS2_PLACEMENT_3D ( 'NONE', #738, #225, #139 ) ;
#390 = LINE ( 'NONE', #999, #574 ) ;
#391 = CARTESIAN_POINT ( 'NONE',  ( 29.16250985671064555, 20.00000000000000711, 4.500000000000000888 ) ) ;
#392 = DIRECTION ( 'NONE',  ( -0.000000000000000000, -0.000000000000000000, 1.000000000000000000 ) ) ;
#393 = ORIENTED_EDGE ( 'NONE', *, *, #83, .F. ) ;
#394 = CARTESIAN_POINT ( 'NONE',  ( 6.150000000000007461, 55.50000000000000000, 8.000000000000000000 ) ) ;
#395 = EDGE_CURVE ( 'NONE', #1078, #606, #378, .T. ) ;
#396 = CARTESIAN_POINT ( 'NONE',  ( 0.000000000000000000, 0.000000000000000000, 8.000000000000000000 ) ) ;
#397 = PLANE ( 'NONE',  #375 ) ;
#398 = ORIENTED_EDGE ( 'NONE', *, *, #346, .T. ) ;
#399 = LINE ( 'NONE', #52, #884 ) ;
#400 = DIRECTION ( 'NONE',  ( -2.040851148208008491E-16, 1.000000000000000000, -0.000000000000000000 ) ) ;
#401 = EDGE_CURVE ( 'NONE', #879, #687, #708, .T. ) ;
#402 = CARTESIAN_POINT ( 'NONE',  ( 25.66250985671063845, 20.00000000000000355, 4.500000000000000888 ) ) ;
#403 = AXIS2_PLACEMENT_3D ( 'NONE', #173, #516, #866 ) ;
#404 = EDGE_CURVE ( 'NONE', #444, #706, #814, .T. ) ;
#405 = ORIENTED_EDGE ( 'NONE', *, *, #871, .T. ) ;
#406 = DIRECTION ( 'NONE',  ( 0.000000000000000000, -1.000000000000000000, 0.000000000000000000 ) ) ;
#407 = CARTESIAN_POINT ( 'NONE',  ( 3.850000000000008082, 4.500000000000003553, 0.000000000000000000 ) ) ;
#408 = CARTESIAN_POINT ( 'NONE',  ( 27.16250985671064555, 3.000000000000000888, 6.000000000000000000 ) ) ;
#409 = VERTEX_POINT ( 'NONE', #373 ) ;
#410 = DIRECTION ( 'NONE',  ( -1.000000000000000000, 0.000000000000000000, 0.000000000000000000 ) ) ;
#411 = VERTEX_POINT ( 'NONE', #615 ) ;
#412 = DIRECTION ( 'NONE',  ( -0.000000000000000000, -0.000000000000000000, 1.000000000000000000 ) ) ;
#413 = ORIENTED_EDGE ( 'NONE', *, *, #756, .T. ) ;
#414 = DIRECTION ( 'NONE',  ( 1.936075308009830156E-16, -1.000000000000000000, 0.000000000000000000 ) ) ;
#415 = ORIENTED_EDGE ( 'NONE', *, *, #27, .F. ) ;
#416 = CARTESIAN_POINT ( 'NONE',  ( 0.000000000000000000, 60.00000000000000000, 8.000000000000000000 ) ) ;
#417 = CIRCLE ( 'NONE', #1061, 1.149999999999999023 ) ;
#418 = ORIENTED_EDGE ( 'NONE', *, *, #743, .F. ) ;
#419 = CARTESIAN_POINT ( 'NONE',  ( 40.00000000000000000, 60.00000000000000711, 8.000000000000000000 ) ) ;
#420 = VERTEX_POINT ( 'NONE', #715 ) ;
#421 = VECTOR ( 'NONE', #325, 1000.000000000000000 ) ;
#422 = CARTESIAN_POINT ( 'NONE',  ( 40.00000000000000000, 60.00000000000000711, 8.000000000000000000 ) ) ;
#423 = ORIENTED_EDGE ( 'NONE', *, *, #279, .F. ) ;
#424 = PLANE ( 'NONE',  #768 ) ;
#425 = EDGE_LOOP ( 'NONE', ( #723, #101, #914, #982 ) ) ;
#426 = CARTESIAN_POINT ( 'NONE',  ( 5.000000000000007994, 4.500000000000003553, 0.000000000000000000 ) ) ;
#427 = EDGE_CURVE ( 'NONE', #855, #670, #1060, .T. ) ;
#428 = PRODUCT_DEFINITION ( 'UNKNOWN', '', #1091, #29 ) ;
#429 = PLANE ( 'NONE',  #317 ) ;
#430 = EDGE_LOOP ( 'NONE', ( #894, #246 ) ) ;
#431 = VERTEX_POINT ( 'NONE', #963 ) ;
#432 = DIRECTION ( 'NONE',  ( 1.000000000000000000, 0.000000000000000000, 0.000000000000000000 ) ) ;
#433 = FACE_OUTER_BOUND ( 'NONE', #578, .T. ) ;
#434 = EDGE_CURVE ( 'NONE', #1129, #150, #673, .T. ) ;
#435 = ADVANCED_FACE ( 'NONE', ( #801 ), #15, .F. ) ;
#436 = ORIENTED_EDGE ( 'NONE', *, *, #896, .T. ) ;
#437 = CARTESIAN_POINT ( 'NONE',  ( 29.16250985671064555, 3.000000000000001332, 4.500000000000000888 ) ) ;
#438 = AXIS2_PLACEMENT_3D ( 'NONE', #318, #840, #664 ) ;
#439 = VERTEX_POINT ( 'NONE', #96 ) ;
#440 = CARTESIAN_POINT ( 'NONE',  ( 25.66250985671063845, 1.300000000000000044, 6.000000000000000000 ) ) ;
#441 = VECTOR ( 'NONE', #82, 1000.000000000000000 ) ;
#442 = DIRECTION ( 'NONE',  ( 1.000000000000000000, 0.000000000000000000, 0.000000000000000000 ) ) ;
#443 = VECTOR ( 'NONE', #863, 1000.000000000000000 ) ;
#444 = VERTEX_POINT ( 'NONE', #620 ) ;
#445 = DIRECTION ( 'NONE',  ( 1.000000000000000000, 0.000000000000000000, 0.000000000000000000 ) ) ;
#446 = ORIENTED_EDGE ( 'NONE', *, *, #346, .F. ) ;
#447 = DIRECTION ( 'NONE',  ( -0.000000000000000000, -0.000000000000000000, 1.000000000000000000 ) ) ;
#448 = CARTESIAN_POINT ( 'NONE',  ( 5.000000000000007994, 4.500000000000003553, 8.000000000000000000 ) ) ;
#449 = VERTEX_POINT ( 'NONE', #968 ) ;
#450 = DIRECTION ( 'NONE',  ( 0.000000000000000000, 0.000000000000000000, 1.000000000000000000 ) ) ;
#451 = ORIENTED_EDGE ( 'NONE', *, *, #665, .F. ) ;
#452 = CARTESIAN_POINT ( 'NONE',  ( 10.96250985671064271, 19.99999999999999645, 8.000000000000000000 ) ) ;
#453 = EDGE_CURVE ( 'NONE', #873, #116, #10, .T. ) ;
#454 = DIRECTION ( 'NONE',  ( 0.000000000000000000, 0.000000000000000000, -1.000000000000000000 ) ) ;
#455 = VERTEX_POINT ( 'NONE', #541 ) ;
#456 = ORIENTED_EDGE ( 'NONE', *, *, #404, .T. ) ;
#457 = CIRCLE ( 'NONE', #114, 1.149999999999999911 ) ;
#458 = CARTESIAN_POINT ( 'NONE',  ( 7.500000000000000000, 57.99999999999999289, 0.000000000000000000 ) ) ;
#459 = AXIS2_PLACEMENT_3D ( 'NONE', #107, #278, #956 ) ;
#460 = ORIENTED_EDGE ( 'NONE', *, *, #487, .F. ) ;
#461 = VECTOR ( 'NONE', #5, 1000.000000000000000 ) ;
#462 = ORIENTED_EDGE ( 'NONE', *, *, #157, .F. ) ;
#463 = FACE_BOUND ( 'NONE', #501, .T. ) ;
#464 = EDGE_CURVE ( 'NONE', #150, #1129, #1041, .T. ) ;
#465 = DIRECTION ( 'NONE',  ( 1.000000000000000000, 2.168404344971006896E-16, -0.000000000000000000 ) ) ;
#466 = DIRECTION ( 'NONE',  ( -1.000000000000000000, -0.000000000000000000, -0.000000000000000000 ) ) ;
#467 = EDGE_LOOP ( 'NONE', ( #92, #1016, #456, #85 ) ) ;
#468 = DIRECTION ( 'NONE',  ( -0.000000000000000000, -0.000000000000000000, 1.000000000000000000 ) ) ;
#469 = LINE ( 'NONE', #474, #856 ) ;
#470 = CARTESIAN_POINT ( 'NONE',  ( 29.16250985671064200, 0.000000000000000000, 6.000000000000000000 ) ) ;
#471 = EDGE_CURVE ( 'NONE', #701, #529, #202, .T. ) ;
#472 = ORIENTED_EDGE ( 'NONE', *, *, #145, .F. ) ;
#473 = CARTESIAN_POINT ( 'NONE',  ( 36.15000000000000568, 4.500000000000003553, 0.000000000000000000 ) ) ;
#474 = CARTESIAN_POINT ( 'NONE',  ( 0.000000000000000000, 60.00000000000000000, 0.000000000000000000 ) ) ;
#475 = EDGE_CURVE ( 'NONE', #904, #283, #469, .T. ) ;
#476 = CARTESIAN_POINT ( 'NONE',  ( 0.000000000000000000, 60.00000000000000000, 8.000000000000000000 ) ) ;
#477 = ORIENTED_EDGE ( 'NONE', *, *, #144, .F. ) ;
#478 = VECTOR ( 'NONE', #1056, 1000.000000000000000 ) ;
#479 = CARTESIAN_POINT ( 'NONE',  ( 12.96250985671064448, 3.000000000000001332, 6.000000000000000000 ) ) ;
#480 = ORIENTED_EDGE ( 'NONE', *, *, #401, .F. ) ;
#481 = AXIS2_PLACEMENT_3D ( 'NONE', #848, #851, #63 ) ;
#482 = FACE_OUTER_BOUND ( 'NONE', #204, .T. ) ;
#483 = CARTESIAN_POINT ( 'NONE',  ( 7.500000000000004441, 20.00000000000000355, 8.000000000000000000 ) ) ;
#484 = EDGE_LOOP ( 'NONE', ( #890, #232 ) ) ;
#485 = DIRECTION ( 'NONE',  ( 0.000000000000000000, 0.000000000000000000, 1.000000000000000000 ) ) ;
#486 = EDGE_CURVE ( 'NONE', #1089, #693, #1006, .T. ) ;
#487 = EDGE_CURVE ( 'NONE', #455, #13, #49, .T. ) ;
#488 = CARTESIAN_POINT ( 'NONE',  ( 12.96250985671064271, 19.99999999999999645, 4.500000000000000888 ) ) ;
#489 = CARTESIAN_POINT ( 'NONE',  ( 10.96250985671064271, 1.342520260664200099E-15, 8.000000000000000000 ) ) ;
#490 = EDGE_LOOP ( 'NONE', ( #1121, #258, #656, #62 ) ) ;
#491 = CARTESIAN_POINT ( 'NONE',  ( 10.96250985671064626, 3.000000000000001332, 4.500000000000000888 ) ) ;
#492 = LINE ( 'NONE', #922, #94 ) ;
#493 = LINE ( 'NONE', #1003, #227 ) ;
#494 = VECTOR ( 'NONE', #887, 1000.000000000000000 ) ;
#495 = ORIENTED_EDGE ( 'NONE', *, *, #328, .F. ) ;
#496 = DIRECTION ( 'NONE',  ( -0.000000000000000000, -0.000000000000000000, 1.000000000000000000 ) ) ;
#497 = VECTOR ( 'NONE', #979, 1000.000000000000000 ) ;
#498 = EDGE_CURVE ( 'NONE', #879, #843, #824, .T. ) ;
#499 = APPLICATION_CONTEXT ( 'automotive_design' ) ;
#500 = FACE_OUTER_BOUND ( 'NONE', #547, .T. ) ;
#501 = EDGE_LOOP ( 'NONE', ( #30, #81 ) ) ;
#502 = CARTESIAN_POINT ( 'NONE',  ( 32.50000000000000000, 57.99999999999999289, 8.000000000000000000 ) ) ;
#503 = FACE_OUTER_BOUND ( 'NONE', #1025, .T. ) ;
#504 = ORIENTED_EDGE ( 'NONE', *, *, #44, .F. ) ;
#505 = CARTESIAN_POINT ( 'NONE',  ( 29.16250985671064200, 0.8000000000000000444, 7.000000000000000000 ) ) ;
#506 = ORIENTED_EDGE ( 'NONE', *, *, #572, .F. ) ;
#507 = CARTESIAN_POINT ( 'NONE',  ( 40.00000000000000000, 4.898587196589413815E-15, 8.000000000000000000 ) ) ;
#508 = EDGE_CURVE ( 'NONE', #542, #728, #457, .T. ) ;
#509 = VECTOR ( 'NONE', #948, 1000.000000000000000 ) ;
#510 = ORIENTED_EDGE ( 'NONE', *, *, #712, .T. ) ;
#511 = EDGE_CURVE ( 'NONE', #431, #1089, #644, .T. ) ;
#512 = DIRECTION ( 'NONE',  ( 0.000000000000000000, 0.000000000000000000, 1.000000000000000000 ) ) ;
#513 = ORIENTED_EDGE ( 'NONE', *, *, #1000, .F. ) ;
#514 = CARTESIAN_POINT ( 'NONE',  ( 6.150000000000007461, 4.500000000000003553, 0.000000000000000000 ) ) ;
#515 = VECTOR ( 'NONE', #315, 1000.000000000000000 ) ;
#516 = DIRECTION ( 'NONE',  ( 0.000000000000000000, 0.000000000000000000, 1.000000000000000000 ) ) ;
#517 = ORIENTED_EDGE ( 'NONE', *, *, #807, .F. ) ;
#518 = DIRECTION ( 'NONE',  ( 1.000000000000000000, 0.000000000000000000, 0.000000000000000000 ) ) ;
#519 = ORIENTED_EDGE ( 'NONE', *, *, #27, .T. ) ;
#520 = CARTESIAN_POINT ( 'NONE',  ( 33.85000000000000853, 4.500000000000003553, 0.000000000000000000 ) ) ;
#521 = EDGE_CURVE ( 'NONE', #966, #760, #744, .T. ) ;
#522 = LINE ( 'NONE', #1024, #358 ) ;
#523 = ORIENTED_EDGE ( 'NONE', *, *, #471, .T. ) ;
#524 = FACE_OUTER_BOUND ( 'NONE', #588, .T. ) ;
#525 = ORIENTED_EDGE ( 'NONE', *, *, #255, .F. ) ;
#526 = CYLINDRICAL_SURFACE ( 'NONE', #808, 1.149999999999999023 ) ;
#527 = EDGE_CURVE ( 'NONE', #111, #106, #129, .T. ) ;
#528 = DIRECTION ( 'NONE',  ( 1.000000000000000000, 2.168404344971006896E-16, -0.000000000000000000 ) ) ;
#529 = VERTEX_POINT ( 'NONE', #391 ) ;
#530 = CARTESIAN_POINT ( 'NONE',  ( 6.150000000000007461, 4.500000000000003553, 8.000000000000000000 ) ) ;
#531 = VECTOR ( 'NONE', #680, 1000.000000000000000 ) ;
#532 = ORIENTED_EDGE ( 'NONE', *, *, #54, .F. ) ;
#533 = LINE ( 'NONE', #1124, #571 ) ;
#534 = DIRECTION ( 'NONE',  ( -0.000000000000000000, -0.000000000000000000, 1.000000000000000000 ) ) ;
#535 = VECTOR ( 'NONE', #826, 1000.000000000000000 ) ;
#536 = ADVANCED_FACE ( 'NONE', ( #1083 ), #1014, .F. ) ;
#537 = CARTESIAN_POINT ( 'NONE',  ( 7.500000000000000000, 57.99999999999999289, 0.000000000000000000 ) ) ;
#538 = AXIS2_PLACEMENT_3D ( 'NONE', #1109, #245, #355 ) ;
#539 = ORIENTED_EDGE ( 'NONE', *, *, #559, .F. ) ;
#540 = LINE ( 'NONE', #600, #568 ) ;
#541 = CARTESIAN_POINT ( 'NONE',  ( 27.16250985671064200, 20.00000000000000000, 4.500000000000000888 ) ) ;
#542 = VERTEX_POINT ( 'NONE', #407 ) ;
#543 =( NAMED_UNIT ( * ) SI_UNIT ( $, .STERADIAN. ) SOLID_ANGLE_UNIT ( ) );
#544 = ORIENTED_EDGE ( 'NONE', *, *, #755, .F. ) ;
#545 = SURFACE_SIDE_STYLE ('',( #994 ) ) ;
#546 = CARTESIAN_POINT ( 'NONE',  ( 0.000000000000000000, 0.000000000000000000, 6.000000000000000000 ) ) ;
#547 = EDGE_LOOP ( 'NONE', ( #462, #236, #293, #1101 ) ) ;
#548 = EDGE_CURVE ( 'NONE', #618, #431, #302, .T. ) ;
#549 = VERTEX_POINT ( 'NONE', #1002 ) ;
#550 = LINE ( 'NONE', #900, #77 ) ;
#551 = VECTOR ( 'NONE', #703, 1000.000000000000000 ) ;
#552 = CARTESIAN_POINT ( 'NONE',  ( 7.500000000000004441, 20.00000000000000355, 0.000000000000000000 ) ) ;
#553 = ORIENTED_EDGE ( 'NONE', *, *, #686, .F. ) ;
#554 = PRODUCT_CONTEXT ( 'NONE', #865, 'mechanical' ) ;
#555 = VECTOR ( 'NONE', #233, 1000.000000000000000 ) ;
#556 = ORIENTED_EDGE ( 'NONE', *, *, #286, .F. ) ;
#557 = CARTESIAN_POINT ( 'NONE',  ( 0.000000000000000000, 0.000000000000000000, 8.000000000000000000 ) ) ;
#558 = EDGE_CURVE ( 'NONE', #411, #449, #735, .T. ) ;
#559 = EDGE_CURVE ( 'NONE', #439, #998, #576, .T. ) ;
#560 = DIRECTION ( 'NONE',  ( 0.000000000000000000, 0.000000000000000000, 1.000000000000000000 ) ) ;
#561 = PLANE ( 'NONE',  #156 ) ;
#562 = EDGE_LOOP ( 'NONE', ( #180, #1103, #11, #314, #858, #652, #436, #472 ) ) ;
#563 = DIRECTION ( 'NONE',  ( 0.000000000000000000, -0.000000000000000000, -1.000000000000000000 ) ) ;
#564 = CARTESIAN_POINT ( 'NONE',  ( 5.000000000000007994, 4.500000000000003553, 0.000000000000000000 ) ) ;
#565 = CARTESIAN_POINT ( 'NONE',  ( 25.66250985671063845, 1.300000000000000044, 6.000000000000000000 ) ) ;
#566 = ORIENTED_EDGE ( 'NONE', *, *, #721, .T. ) ;
#567 = DIRECTION ( 'NONE',  ( -0.000000000000000000, -0.000000000000000000, 1.000000000000000000 ) ) ;
#568 = VECTOR ( 'NONE', #345, 1000.000000000000000 ) ;
#569 = CARTESIAN_POINT ( 'NONE',  ( 6.150000000000007461, 55.50000000000000000, 0.000000000000000000 ) ) ;
#570 = FACE_OUTER_BOUND ( 'NONE', #490, .T. ) ;
#571 = VECTOR ( 'NONE', #178, 1000.000000000000000 ) ;
#572 = EDGE_CURVE ( 'NONE', #380, #879, #739, .T. ) ;
#573 = VERTEX_POINT ( 'NONE', #569 ) ;
#574 = VECTOR ( 'NONE', #468, 1000.000000000000000 ) ;
#575 = DIRECTION ( 'NONE',  ( -0.000000000000000000, -1.000000000000000000, -0.000000000000000000 ) ) ;
#576 = LINE ( 'NONE', #650, #784 ) ;
#577 = LINE ( 'NONE', #402, #885 ) ;
#578 = EDGE_LOOP ( 'NONE', ( #946, #718, #158, #971 ) ) ;
#579 = FACE_OUTER_BOUND ( 'NONE', #185, .T. ) ;
#580 = DIRECTION ( 'NONE',  ( 0.000000000000000000, 1.000000000000000000, 0.000000000000000000 ) ) ;
#581 = DIRECTION ( 'NONE',  ( 0.000000000000000000, 0.000000000000000000, 1.000000000000000000 ) ) ;
#582 = ORIENTED_EDGE ( 'NONE', *, *, #471, .F. ) ;
#583 = PLANE ( 'NONE',  #37 ) ;
#584 = EDGE_CURVE ( 'NONE', #549, #209, #492, .T. ) ;
#585 = VERTEX_POINT ( 'NONE', #912 ) ;
#586 = VECTOR ( 'NONE', #39, 1000.000000000000000 ) ;
#587 = DIRECTION ( 'NONE',  ( 0.000000000000000000, 1.000000000000000000, 0.000000000000000000 ) ) ;
#588 = EDGE_LOOP ( 'NONE', ( #1079, #683, #138, #924 ) ) ;
#589 = FACE_OUTER_BOUND ( 'NONE', #869, .T. ) ;
#590 = VECTOR ( 'NONE', #1065, 1000.000000000000000 ) ;
#591 = AXIS2_PLACEMENT_3D ( 'NONE', #729, #910, #201 ) ;
#592 = LINE ( 'NONE', #416, #827 ) ;
#593 = ORIENTED_EDGE ( 'NONE', *, *, #508, .T. ) ;
#594 = LINE ( 'NONE', #309, #954 ) ;
#595 = ORIENTED_EDGE ( 'NONE', *, *, #311, .F. ) ;
#596 = ADVANCED_FACE ( 'NONE', ( #482 ), #1092, .F. ) ;
#597 = DIRECTION ( 'NONE',  ( 0.000000000000000000, 0.000000000000000000, 1.000000000000000000 ) ) ;
#598 = ORIENTED_EDGE ( 'NONE', *, *, #896, .F. ) ;
#599 = ORIENTED_EDGE ( 'NONE', *, *, #686, .T. ) ;
#600 = CARTESIAN_POINT ( 'NONE',  ( 0.000000000000000000, 0.000000000000000000, 0.000000000000000000 ) ) ;
#601 = CARTESIAN_POINT ( 'NONE',  ( 40.00000000000000000, 4.898587196589413815E-15, 8.000000000000000000 ) ) ;
#602 = VECTOR ( 'NONE', #217, 1000.000000000000000 ) ;
#603 = ORIENTED_EDGE ( 'NONE', *, *, #262, .T. ) ;
#604 = CARTESIAN_POINT ( 'NONE',  ( 29.16250985671064555, 3.000000000000001332, 4.500000000000000888 ) ) ;
#605 = EDGE_CURVE ( 'NONE', #777, #585, #125, .T. ) ;
#606 = VERTEX_POINT ( 'NONE', #312 ) ;
#607 = LINE ( 'NONE', #794, #100 ) ;
#608 = AXIS2_PLACEMENT_3D ( 'NONE', #1128, #91, #617 ) ;
#609 = VECTOR ( 'NONE', #587, 1000.000000000000000 ) ;
#610 = DIRECTION ( 'NONE',  ( 1.000000000000000000, 1.936075308009830156E-16, -0.000000000000000000 ) ) ;
#611 = EDGE_LOOP ( 'NONE', ( #60, #595, #960, #645 ) ) ;
#612 =( NAMED_UNIT ( * ) PLANE_ANGLE_UNIT ( ) SI_UNIT ( $, .RADIAN. ) );
#613 = ORIENTED_EDGE ( 'NONE', *, *, #1119, .F. ) ;
#614 = PLANE ( 'NONE',  #806 ) ;
#615 = CARTESIAN_POINT ( 'NONE',  ( 14.46250985671064271, 1.299999999999997824, 4.500000000000000888 ) ) ;
#616 = ORIENTED_EDGE ( 'NONE', *, *, #841, .F. ) ;
#617 = DIRECTION ( 'NONE',  ( -1.826024711554534160E-16, 1.000000000000000000, 0.000000000000000000 ) ) ;
#618 = VERTEX_POINT ( 'NONE', #147 ) ;
#619 = LINE ( 'NONE', #3, #748 ) ;
#620 = CARTESIAN_POINT ( 'NONE',  ( 36.15000000000000568, 55.50000000000000000, 0.000000000000000000 ) ) ;
#621 = DIRECTION ( 'NONE',  ( 0.000000000000000000, 1.000000000000000000, 0.000000000000000000 ) ) ;
#622 = CARTESIAN_POINT ( 'NONE',  ( 12.96250985671064448, 20.00000000000000355, 4.500000000000000888 ) ) ;
#623 = VECTOR ( 'NONE', #306, 1000.000000000000000 ) ;
#624 = ORIENTED_EDGE ( 'NONE', *, *, #926, .T. ) ;
#625 = DIRECTION ( 'NONE',  ( 1.000000000000000000, 0.000000000000000000, 0.000000000000000000 ) ) ;
#626 = DIRECTION ( 'NONE',  ( 0.000000000000000000, 0.000000000000000000, -1.000000000000000000 ) ) ;
#627 = DIRECTION ( 'NONE',  ( 2.040851148208007998E-16, -1.000000000000000000, 0.000000000000000000 ) ) ;
#628 = AXIS2_PLACEMENT_3D ( 'NONE', #1133, #412, #254 ) ;
#629 = EDGE_LOOP ( 'NONE', ( #852, #51 ) ) ;
#630 = FILL_AREA_STYLE ('',( #134 ) ) ;
#631 = DIRECTION ( 'NONE',  ( 1.000000000000000000, 1.387778780781445429E-16, 0.000000000000000000 ) ) ;
#632 = EDGE_CURVE ( 'NONE', #760, #966, #330, .T. ) ;
#633 = PLANE ( 'NONE',  #58 ) ;
#634 = VERTEX_POINT ( 'NONE', #990 ) ;
#635 = CARTESIAN_POINT ( 'NONE',  ( 12.96250985671064448, 3.000000000000001332, 4.500000000000000888 ) ) ;
#636 = DIRECTION ( 'NONE',  ( 1.387778780781445429E-16, -1.000000000000000000, 0.000000000000000000 ) ) ;
#637 = ORIENTED_EDGE ( 'NONE', *, *, #486, .T. ) ;
#638 = ORIENTED_EDGE ( 'NONE', *, *, #951, .T. ) ;
#639 = DIRECTION ( 'NONE',  ( 0.000000000000000000, -1.000000000000000000, 0.000000000000000000 ) ) ;
#640 = EDGE_CURVE ( 'NONE', #409, #944, #417, .T. ) ;
#641 = AXIS2_PLACEMENT_3D ( 'NONE', #892, #1067, #980 ) ;
#642 = EDGE_CURVE ( 'NONE', #283, #1136, #540, .T. ) ;
#643 = AXIS2_PLACEMENT_3D ( 'NONE', #552, #636, #809 ) ;
#644 = LINE ( 'NONE', #488, #987 ) ;
#645 = ORIENTED_EDGE ( 'NONE', *, *, #1035, .T. ) ;
#646 = APPLICATION_PROTOCOL_DEFINITION ( 'draft international standard', 'automotive_design', 1998, #499 ) ;
#647 = AXIS2_PLACEMENT_3D ( 'NONE', #98, #257, #366 ) ;
#648 = ORIENTED_EDGE ( 'NONE', *, *, #721, .F. ) ;
#649 =( NAMED_UNIT ( * ) SI_UNIT ( $, .STERADIAN. ) SOLID_ANGLE_UNIT ( ) );
#650 = CARTESIAN_POINT ( 'NONE',  ( 10.96250985671064271, 1.342520260664200099E-15, 7.000000000000000000 ) ) ;
#651 = LINE ( 'NONE', #655, #79 ) ;
#652 = ORIENTED_EDGE ( 'NONE', *, *, #996, .F. ) ;
#653 = CARTESIAN_POINT ( 'NONE',  ( 27.16250985671064555, 3.000000000000000888, 4.500000000000000888 ) ) ;
#654 = ADVANCED_FACE ( 'NONE', ( #891 ), #614, .F. ) ;
#655 = CARTESIAN_POINT ( 'NONE',  ( 40.00000000000000000, 4.898587196589413815E-15, 0.000000000000000000 ) ) ;
#656 = ORIENTED_EDGE ( 'NONE', *, *, #144, .T. ) ;
#657 = CARTESIAN_POINT ( 'NONE',  ( 29.16250985671064200, 0.000000000000000000, 7.000000000000000000 ) ) ;
#658 = DIRECTION ( 'NONE',  ( -1.020425574104004492E-16, 1.000000000000000000, -0.000000000000000000 ) ) ;
#659 = CARTESIAN_POINT ( 'NONE',  ( 7.500000000000004441, 20.00000000000000355, 8.000000000000000000 ) ) ;
#660 = ORIENTED_EDGE ( 'NONE', *, *, #1119, .T. ) ;
#661 = CIRCLE ( 'NONE', #261, 1.149999999999999911 ) ;
#662 = LINE ( 'NONE', #1012, #555 ) ;
#663 = VECTOR ( 'NONE', #722, 1000.000000000000000 ) ;
#664 = DIRECTION ( 'NONE',  ( -1.000000000000000000, 0.000000000000000000, -0.000000000000000000 ) ) ;
#665 = EDGE_CURVE ( 'NONE', #529, #855, #1040, .T. ) ;
#666 = DIRECTION ( 'NONE',  ( 0.000000000000000000, 1.000000000000000000, 0.000000000000000000 ) ) ;
#667 = ORIENTED_EDGE ( 'NONE', *, *, #1013, .T. ) ;
#668 = LINE ( 'NONE', #151, #696 ) ;
#669 = LINE ( 'NONE', #57, #609 ) ;
#670 = VERTEX_POINT ( 'NONE', #947 ) ;
#671 = CARTESIAN_POINT ( 'NONE',  ( 35.00000000000000711, 55.50000000000000000, 0.000000000000000000 ) ) ;
#672 = EDGE_CURVE ( 'NONE', #634, #444, #953, .T. ) ;
#673 = CIRCLE ( 'NONE', #131, 1.149999999999999911 ) ;
#674 = FACE_OUTER_BOUND ( 'NONE', #25, .T. ) ;
#675 = ORIENTED_EDGE ( 'NONE', *, *, #559, .T. ) ;
#676 = DIRECTION ( 'NONE',  ( 0.000000000000000000, 0.000000000000000000, 1.000000000000000000 ) ) ;
#677 = CIRCLE ( 'NONE', #935, 1.149999999999998135 ) ;
#678 = ORIENTED_EDGE ( 'NONE', *, *, #297, .T. ) ;
#679 = ADVANCED_FACE ( 'NONE', ( #93 ), #1034, .F. ) ;
#680 = DIRECTION ( 'NONE',  ( -0.000000000000000000, -0.000000000000000000, 1.000000000000000000 ) ) ;
#681 = ORIENTED_EDGE ( 'NONE', *, *, #351, .T. ) ;
#682 = CARTESIAN_POINT ( 'NONE',  ( 0.000000000000000000, 0.000000000000000000, 0.000000000000000000 ) ) ;
#683 = ORIENTED_EDGE ( 'NONE', *, *, #642, .F. ) ;
#684 = CARTESIAN_POINT ( 'NONE',  ( 6.150000000000007461, 4.500000000000003553, 0.000000000000000000 ) ) ;
#685 = CARTESIAN_POINT ( 'NONE',  ( 10.96250985671064271, 0.8000000000000000444, 7.000000000000000000 ) ) ;
#686 = EDGE_CURVE ( 'NONE', #728, #1129, #88, .T. ) ;
#687 = VERTEX_POINT ( 'NONE', #870 ) ;
#688 = VERTEX_POINT ( 'NONE', #440 ) ;
#689 = DIRECTION ( 'NONE',  ( -0.000000000000000000, -0.000000000000000000, 1.000000000000000000 ) ) ;
#690 = DIRECTION ( 'NONE',  ( -0.000000000000000000, -0.000000000000000000, -1.000000000000000000 ) ) ;
#691 = VECTOR ( 'NONE', #291, 1000.000000000000000 ) ;
#692 = EDGE_LOOP ( 'NONE', ( #277, #123, #648, #90 ) ) ;
#693 = VERTEX_POINT ( 'NONE', #702 ) ;
#694 = CARTESIAN_POINT ( 'NONE',  ( 29.16250985671064200, 20.00000000000000711, 0.000000000000000000 ) ) ;
#695 = VECTOR ( 'NONE', #689, 1000.000000000000000 ) ;
#696 = VECTOR ( 'NONE', #496, 1000.000000000000000 ) ;
#697 = CYLINDRICAL_SURFACE ( 'NONE', #264, 1.149999999999998135 ) ;
#698 = EDGE_CURVE ( 'NONE', #837, #760, #533, .T. ) ;
#699 = VERTEX_POINT ( 'NONE', #520 ) ;
#700 = PLANE ( 'NONE',  #608 ) ;
#701 = VERTEX_POINT ( 'NONE', #788 ) ;
#702 = CARTESIAN_POINT ( 'NONE',  ( 12.96250985671064271, 19.99999999999999645, 6.000000000000000000 ) ) ;
#703 = DIRECTION ( 'NONE',  ( -1.000000000000000000, -0.000000000000000000, -0.000000000000000000 ) ) ;
#704 = CARTESIAN_POINT ( 'NONE',  ( 0.000000000000000000, 0.000000000000000000, 8.000000000000000000 ) ) ;
#705 = DIRECTION ( 'NONE',  ( 0.000000000000000000, 0.000000000000000000, 1.000000000000000000 ) ) ;
#706 = VERTEX_POINT ( 'NONE', #272 ) ;
#707 = DIRECTION ( 'NONE',  ( 1.000000000000000000, 1.387778780781445429E-16, 0.000000000000000000 ) ) ;
#708 = LINE ( 'NONE', #458, #551 ) ;
#709 = ORIENTED_EDGE ( 'NONE', *, *, #770, .T. ) ;
#710 = ORIENTED_EDGE ( 'NONE', *, *, #434, .F. ) ;
#711 = LINE ( 'NONE', #557, #590 ) ;
#712 = EDGE_CURVE ( 'NONE', #804, #13, #619, .T. ) ;
#713 = EDGE_CURVE ( 'NONE', #420, #618, #961, .T. ) ;
#714 = CIRCLE ( 'NONE', #1007, 1.149999999999998135 ) ;
#715 = CARTESIAN_POINT ( 'NONE',  ( 10.96250985671064271, 19.99999999999999645, 4.500000000000000888 ) ) ;
#716 = VECTOR ( 'NONE', #46, 1000.000000000000000 ) ;
#717 = DIRECTION ( 'NONE',  ( -0.000000000000000000, -1.000000000000000000, -0.000000000000000000 ) ) ;
#718 = ORIENTED_EDGE ( 'NONE', *, *, #962, .F. ) ;
#719 = CARTESIAN_POINT ( 'NONE',  ( 3.850000000000008971, 55.50000000000000000, 0.000000000000000000 ) ) ;
#720 = CARTESIAN_POINT ( 'NONE',  ( 29.16250985671064200, 0.000000000000000000, 6.000000000000000000 ) ) ;
#721 = EDGE_CURVE ( 'NONE', #455, #111, #182, .T. ) ;
#722 = DIRECTION ( 'NONE',  ( 1.141265444721583757E-16, -1.000000000000000000, 0.000000000000000000 ) ) ;
#723 = ORIENTED_EDGE ( 'NONE', *, *, #169, .T. ) ;
#724 = CARTESIAN_POINT ( 'NONE',  ( 36.15000000000000568, 4.500000000000003553, 8.000000000000000000 ) ) ;
#725 = FACE_OUTER_BOUND ( 'NONE', #115, .T. ) ;
#726 = CARTESIAN_POINT ( 'NONE',  ( 7.500000000000000000, 57.99999999999999289, 0.000000000000000000 ) ) ;
#727 = ADVANCED_FACE ( 'NONE', ( #967 ), #526, .F. ) ;
#728 = VERTEX_POINT ( 'NONE', #514 ) ;
#729 = CARTESIAN_POINT ( 'NONE',  ( 0.000000000000000000, 0.000000000000000000, 4.500000000000000888 ) ) ;
#730 = DIRECTION ( 'NONE',  ( 1.000000000000000000, 0.000000000000000000, 0.000000000000000000 ) ) ;
#731 = AXIS2_PLACEMENT_3D ( 'NONE', #18, #639, #563 ) ;
#732 = CARTESIAN_POINT ( 'NONE',  ( 5.000000000000007994, 55.50000000000000000, 0.000000000000000000 ) ) ;
#733 = ORIENTED_EDGE ( 'NONE', *, *, #404, .F. ) ;
#734 = EDGE_CURVE ( 'NONE', #843, #873, #253, .T. ) ;
#735 = LINE ( 'NONE', #1087, #623 ) ;
#736 = DIRECTION ( 'NONE',  ( -1.000000000000000000, -3.097720492815728152E-16, 0.000000000000000000 ) ) ;
#737 = VERTEX_POINT ( 'NONE', #452 ) ;
#738 = CARTESIAN_POINT ( 'NONE',  ( 35.00000000000000711, 4.500000000000003553, 0.000000000000000000 ) ) ;
#739 = LINE ( 'NONE', #295, #932 ) ;
#740 = DIRECTION ( 'NONE',  ( 1.000000000000000000, 0.000000000000000000, 0.000000000000000000 ) ) ;
#741 = ORIENTED_EDGE ( 'NONE', *, *, #95, .T. ) ;
#742 = CARTESIAN_POINT ( 'NONE',  ( 33.85000000000000853, 55.50000000000000000, 0.000000000000000000 ) ) ;
#743 = EDGE_CURVE ( 'NONE', #693, #757, #607, .T. ) ;
#744 = CIRCLE ( 'NONE', #53, 1.149999999999998135 ) ;
#745 = EDGE_CURVE ( 'NONE', #13, #106, #8, .T. ) ;
#746 = DIRECTION ( 'NONE',  ( 1.000000000000000000, 0.000000000000000000, 0.000000000000000000 ) ) ;
#747 = DIRECTION ( 'NONE',  ( 0.000000000000000000, 0.000000000000000000, -1.000000000000000000 ) ) ;
#748 = VECTOR ( 'NONE', #1048, 1000.000000000000000 ) ;
#749 = ORIENTED_EDGE ( 'NONE', *, *, #427, .T. ) ;
#750 = VECTOR ( 'NONE', #1076, 1000.000000000000000 ) ;
#751 = DIRECTION ( 'NONE',  ( 0.000000000000000000, -0.000000000000000000, -1.000000000000000000 ) ) ;
#752 = AXIS2_PLACEMENT_3D ( 'NONE', #341, #348, #179 ) ;
#753 = CARTESIAN_POINT ( 'NONE',  ( 10.96250985671064626, 3.000000000000001332, 4.500000000000000888 ) ) ;
#754 = DIRECTION ( 'NONE',  ( -0.000000000000000000, -1.000000000000000000, -0.000000000000000000 ) ) ;
#755 = EDGE_CURVE ( 'NONE', #78, #380, #1058, .T. ) ;
#756 = EDGE_CURVE ( 'NONE', #431, #893, #195, .T. ) ;
#757 = VERTEX_POINT ( 'NONE', #284 ) ;
#758 = LINE ( 'NONE', #502, #825 ) ;
#759 = DIRECTION ( 'NONE',  ( -0.000000000000000000, -0.000000000000000000, 1.000000000000000000 ) ) ;
#760 = VERTEX_POINT ( 'NONE', #724 ) ;
#761 = CARTESIAN_POINT ( 'NONE',  ( 3.850000000000008082, 4.500000000000003553, 0.000000000000000000 ) ) ;
#762 = ORIENTED_EDGE ( 'NONE', *, *, #498, .F. ) ;
#763 = AXIS2_PLACEMENT_3D ( 'NONE', #927, #907, #55 ) ;
#764 = LINE ( 'NONE', #1114, #886 ) ;
#765 = MANIFOLD_SOLID_BREP ( 'Cut-Extrude9', #974 ) ;
#766 = ORIENTED_EDGE ( 'NONE', *, *, #59, .T. ) ;
#767 = FACE_BOUND ( 'NONE', #484, .T. ) ;
#768 = AXIS2_PLACEMENT_3D ( 'NONE', #164, #773, #705 ) ;
#769 = ORIENTED_EDGE ( 'NONE', *, *, #320, .T. ) ;
#770 = EDGE_CURVE ( 'NONE', #142, #97, #112, .T. ) ;
#771 = CARTESIAN_POINT ( 'NONE',  ( 0.000000000000000000, 60.00000000000000000, 0.000000000000000000 ) ) ;
#772 = EDGE_LOOP ( 'NONE', ( #266, #593 ) ) ;
#773 = DIRECTION ( 'NONE',  ( -1.000000000000000000, 0.000000000000000000, 0.000000000000000000 ) ) ;
#774 = EDGE_LOOP ( 'NONE', ( #710, #109 ) ) ;
#775 = DIRECTION ( 'NONE',  ( 1.000000000000000000, -0.000000000000000000, 0.000000000000000000 ) ) ;
#776 = DIRECTION ( 'NONE',  ( -1.000000000000000000, -0.000000000000000000, -0.000000000000000000 ) ) ;
#777 = VERTEX_POINT ( 'NONE', #381 ) ;
#778 = DIRECTION ( 'NONE',  ( -0.000000000000000000, -0.000000000000000000, 1.000000000000000000 ) ) ;
#779 = AXIS2_PLACEMENT_3D ( 'NONE', #682, #251, #343 ) ;
#780 = EDGE_LOOP ( 'NONE', ( #964, #519, #177, #281 ) ) ;
#781 = CARTESIAN_POINT ( 'NONE',  ( 27.16250985671064200, 20.00000000000000000, 6.000000000000000000 ) ) ;
#782 = ADVANCED_FACE ( 'NONE', ( #299 ), #294, .F. ) ;
#783 = CYLINDRICAL_SURFACE ( 'NONE', #538, 1.149999999999998135 ) ;
#784 = VECTOR ( 'NONE', #995, 1000.000000000000000 ) ;
#785 = ORIENTED_EDGE ( 'NONE', *, *, #584, .T. ) ;
#786 = FACE_OUTER_BOUND ( 'NONE', #321, .T. ) ;
#787 = EDGE_LOOP ( 'NONE', ( #1050, #762, #506, #678 ) ) ;
#788 = CARTESIAN_POINT ( 'NONE',  ( 29.16250985671064555, 3.000000000000001332, 4.500000000000000888 ) ) ;
#789 = VECTOR ( 'NONE', #905, 1000.000000000000000 ) ;
#790 = DIRECTION ( 'NONE',  ( -1.000000000000000000, 0.000000000000000000, -0.000000000000000000 ) ) ;
#791 = DIRECTION ( 'NONE',  ( 0.000000000000000000, -0.000000000000000000, 1.000000000000000000 ) ) ;
#792 = CARTESIAN_POINT ( 'NONE',  ( 0.000000000000000000, 60.00000000000000000, 8.000000000000000000 ) ) ;
#793 = EDGE_LOOP ( 'NONE', ( #821, #675, #828, #603 ) ) ;
#794 = CARTESIAN_POINT ( 'NONE',  ( 7.500000000000004441, 20.00000000000000355, 6.000000000000000000 ) ) ;
#795 = CARTESIAN_POINT ( 'NONE',  ( 0.000000000000000000, 0.000000000000000000, 7.000000000000000000 ) ) ;
#796 = DIRECTION ( 'NONE',  ( -0.000000000000000000, -0.000000000000000000, -1.000000000000000000 ) ) ;
#797 = ADVANCED_FACE ( 'NONE', ( #14 ), #377, .T. ) ;
#798 = PRODUCT_RELATED_PRODUCT_CATEGORY ( 'part', '', ( #1135 ) ) ;
#799 = ORIENTED_EDGE ( 'NONE', *, *, #1072, .T. ) ;
#800 = CARTESIAN_POINT ( 'NONE',  ( 10.96250985671064271, 1.342520260664200099E-15, 6.000000000000000000 ) ) ;
#801 = FACE_OUTER_BOUND ( 'NONE', #793, .T. ) ;
#802 = LINE ( 'NONE', #815, #1066 ) ;
#803 = SHAPE_DEFINITION_REPRESENTATION ( #883, #40 ) ;
#804 = VERTEX_POINT ( 'NONE', #989 ) ;
#805 =( LENGTH_UNIT ( ) NAMED_UNIT ( * ) SI_UNIT ( .MILLI., .METRE. ) );
#806 = AXIS2_PLACEMENT_3D ( 'NONE', #102, #775, #368 ) ;
#807 = EDGE_CURVE ( 'NONE', #728, #542, #661, .T. ) ;
#808 = AXIS2_PLACEMENT_3D ( 'NONE', #972, #447, #432 ) ;
#809 = DIRECTION ( 'NONE',  ( 1.000000000000000000, 1.387778780781445429E-16, 0.000000000000000000 ) ) ;
#810 = VECTOR ( 'NONE', #1008, 1000.000000000000000 ) ;
#811 = LINE ( 'NONE', #902, #1026 ) ;
#812 = ORIENTED_EDGE ( 'NONE', *, *, #640, .F. ) ;
#813 = FACE_BOUND ( 'NONE', #256, .T. ) ;
#814 = LINE ( 'NONE', #4, #34 ) ;
#815 = CARTESIAN_POINT ( 'NONE',  ( 10.96250985671064626, 3.000000000000001332, 6.000000000000000000 ) ) ;
#816 = ORIENTED_EDGE ( 'NONE', *, *, #206, .T. ) ;
#817 = DIRECTION ( 'NONE',  ( -0.000000000000000000, -0.000000000000000000, 1.000000000000000000 ) ) ;
#818 = CARTESIAN_POINT ( 'NONE',  ( 27.16250985671064200, 20.00000000000000000, 4.500000000000000888 ) ) ;
#819 = EDGE_CURVE ( 'NONE', #1075, #549, #711, .T. ) ;
#820 = DIRECTION ( 'NONE',  ( 1.000000000000000000, -0.000000000000000000, 0.000000000000000000 ) ) ;
#821 = ORIENTED_EDGE ( 'NONE', *, *, #121, .T. ) ;
#822 = CARTESIAN_POINT ( 'NONE',  ( 32.50000000000000000, 57.99999999999999289, 8.000000000000000000 ) ) ;
#823 = VECTOR ( 'NONE', #580, 1000.000000000000000 ) ;
#824 = LINE ( 'NONE', #214, #172 ) ;
#825 = VECTOR ( 'NONE', #850, 1000.000000000000000 ) ;
#826 = DIRECTION ( 'NONE',  ( -1.000000000000000000, -1.734723475976807094E-16, -0.000000000000000000 ) ) ;
#827 = VECTOR ( 'NONE', #76, 1000.000000000000000 ) ;
#828 = ORIENTED_EDGE ( 'NONE', *, *, #66, .T. ) ;
#829 = DIRECTION ( 'NONE',  ( -0.000000000000000000, -0.000000000000000000, 1.000000000000000000 ) ) ;
#830 = DIRECTION ( 'NONE',  ( -1.826024711554534160E-16, 1.000000000000000000, -0.000000000000000000 ) ) ;
#831 = CARTESIAN_POINT ( 'NONE',  ( 35.00000000000000711, 55.50000000000000000, 0.000000000000000000 ) ) ;
#832 = ORIENTED_EDGE ( 'NONE', *, *, #59, .F. ) ;
#833 = CARTESIAN_POINT ( 'NONE',  ( 33.85000000000000853, 4.500000000000003553, 8.000000000000000000 ) ) ;
#834 = EDGE_CURVE ( 'NONE', #323, #409, #128, .T. ) ;
#835 = DIRECTION ( 'NONE',  ( -1.224646799147353454E-16, 1.000000000000000000, 0.000000000000000000 ) ) ;
#836 = DIRECTION ( 'NONE',  ( -0.000000000000000000, -1.000000000000000000, -0.000000000000000000 ) ) ;
#837 = VERTEX_POINT ( 'NONE', #473 ) ;
#838 = LINE ( 'NONE', #761, #1046 ) ;
#839 = AXIS2_PLACEMENT_3D ( 'NONE', #396, #835, #1097 ) ;
#840 = DIRECTION ( 'NONE',  ( 0.000000000000000000, 0.000000000000000000, -1.000000000000000000 ) ) ;
#841 = EDGE_CURVE ( 'NONE', #687, #873, #1070, .T. ) ;
#842 = CARTESIAN_POINT ( 'NONE',  ( 10.96250985671064271, 0.7999999999999998224, 6.000000000000000000 ) ) ;
#843 = VERTEX_POINT ( 'NONE', #822 ) ;
#844 = VECTOR ( 'NONE', #707, 1000.000000000000000 ) ;
#845 = PLANE ( 'NONE',  #135 ) ;
#846 = VECTOR ( 'NONE', #610, 1000.000000000000000 ) ;
#847 = EDGE_LOOP ( 'NONE', ( #741, #909, #393, #220 ) ) ;
#848 = CARTESIAN_POINT ( 'NONE',  ( 5.000000000000007994, 55.50000000000000000, 0.000000000000000000 ) ) ;
#849 = ORIENTED_EDGE ( 'NONE', *, *, #230, .T. ) ;
#850 = DIRECTION ( 'NONE',  ( -1.826024711554534160E-16, 1.000000000000000000, -0.000000000000000000 ) ) ;
#851 = DIRECTION ( 'NONE',  ( -0.000000000000000000, -0.000000000000000000, 1.000000000000000000 ) ) ;
#852 = ORIENTED_EDGE ( 'NONE', *, *, #986, .F. ) ;
#853 = DIRECTION ( 'NONE',  ( 2.168404344971006896E-16, -1.000000000000000000, 0.000000000000000000 ) ) ;
#854 = EDGE_CURVE ( 'NONE', #78, #116, #390, .T. ) ;
#855 = VERTEX_POINT ( 'NONE', #895 ) ;
#856 = VECTOR ( 'NONE', #45, 1000.000000000000000 ) ;
#857 = FACE_OUTER_BOUND ( 'NONE', #1011, .T. ) ;
#858 = ORIENTED_EDGE ( 'NONE', *, *, #713, .F. ) ;
#859 = PLANE ( 'NONE',  #213 ) ;
#860 = VECTOR ( 'NONE', #267, 1000.000000000000000 ) ;
#861 = VECTOR ( 'NONE', #567, 1000.000000000000000 ) ;
#862 = ORIENTED_EDGE ( 'NONE', *, *, #713, .T. ) ;
#863 = DIRECTION ( 'NONE',  ( -1.000000000000000000, -0.000000000000000000, -0.000000000000000000 ) ) ;
#864 = AXIS2_PLACEMENT_3D ( 'NONE', #732, #581, #740 ) ;
#865 = APPLICATION_CONTEXT ( 'automotive_design' ) ;
#866 = DIRECTION ( 'NONE',  ( 1.000000000000000000, 0.000000000000000000, 0.000000000000000000 ) ) ;
#867 = ORIENTED_EDGE ( 'NONE', *, *, #854, .T. ) ;
#868 = CARTESIAN_POINT ( 'NONE',  ( 0.000000000000000000, 0.000000000000000000, 0.000000000000000000 ) ) ;
#869 = EDGE_LOOP ( 'NONE', ( #1073, #71, #931, #769 ) ) ;
#870 = CARTESIAN_POINT ( 'NONE',  ( 7.500000000000000000, 57.99999999999999289, 0.000000000000000000 ) ) ;
#871 = EDGE_CURVE ( 'NONE', #875, #804, #550, .T. ) ;
#872 = DIRECTION ( 'NONE',  ( 1.000000000000000000, 0.000000000000000000, 0.000000000000000000 ) ) ;
#873 = VERTEX_POINT ( 'NONE', #290 ) ;
#874 = DIRECTION ( 'NONE',  ( 1.734723475976807094E-16, -1.000000000000000000, 0.000000000000000000 ) ) ;
#875 = VERTEX_POINT ( 'NONE', #983 ) ;
#876 = CARTESIAN_POINT ( 'NONE',  ( 5.000000000000007994, 55.50000000000000000, 8.000000000000000000 ) ) ;
#877 = CARTESIAN_POINT ( 'NONE',  ( 14.46250985671064271, 20.00000000000000000, 4.500000000000000888 ) ) ;
#878 = VECTOR ( 'NONE', #113, 1000.000000000000000 ) ;
#879 = VERTEX_POINT ( 'NONE', #205 ) ;
#880 = PLANE ( 'NONE',  #779 ) ;
#881 = EDGE_LOOP ( 'NONE', ( #862, #899, #289, #87 ) ) ;
#882 = DIRECTION ( 'NONE',  ( 1.000000000000000000, 0.000000000000000000, 0.000000000000000000 ) ) ;
#883 = PRODUCT_DEFINITION_SHAPE ( 'NONE', 'NONE',  #428 ) ;
#884 = VECTOR ( 'NONE', #575, 1000.000000000000000 ) ;
#885 = VECTOR ( 'NONE', #736, 1000.000000000000000 ) ;
#886 = VECTOR ( 'NONE', #759, 1000.000000000000000 ) ;
#887 = DIRECTION ( 'NONE',  ( -0.000000000000000000, -0.000000000000000000, 1.000000000000000000 ) ) ;
#888 = ADVANCED_FACE ( 'NONE', ( #117, #463, #813, #1017, #925 ), #941, .T. ) ;
#889 = PLANE ( 'NONE',  #957 ) ;
#890 = ORIENTED_EDGE ( 'NONE', *, *, #962, .T. ) ;
#891 = FACE_OUTER_BOUND ( 'NONE', #425, .T. ) ;
#892 = CARTESIAN_POINT ( 'NONE',  ( 5.000000000000007994, 4.500000000000003553, 8.000000000000000000 ) ) ;
#893 = VERTEX_POINT ( 'NONE', #479 ) ;
#894 = ORIENTED_EDGE ( 'NONE', *, *, #918, .T. ) ;
#895 = CARTESIAN_POINT ( 'NONE',  ( 29.16250985671064200, 20.00000000000000000, 8.000000000000000000 ) ) ;
#896 = EDGE_CURVE ( 'NONE', #737, #209, #399, .T. ) ;
#897 = CARTESIAN_POINT ( 'NONE',  ( 29.16250985671064200, 20.00000000000000000, 4.500000000000000888 ) ) ;
#898 = ORIENTED_EDGE ( 'NONE', *, *, #1001, .T. ) ;
#899 = ORIENTED_EDGE ( 'NONE', *, *, #548, .T. ) ;
#900 = CARTESIAN_POINT ( 'NONE',  ( 25.66250985671063845, 20.00000000000000355, 4.500000000000000888 ) ) ;
#901 = LINE ( 'NONE', #720, #494 ) ;
#902 = CARTESIAN_POINT ( 'NONE',  ( 14.46250985671064271, 1.299999999999997824, 4.500000000000000888 ) ) ;
#903 = UNCERTAINTY_MEASURE_WITH_UNIT (LENGTH_MEASURE( 1.000000000000000082E-05 ), #805, 'distance_accuracy_value', 'NONE');
#904 = VERTEX_POINT ( 'NONE', #322 ) ;
#905 = DIRECTION ( 'NONE',  ( -0.000000000000000000, -0.000000000000000000, 1.000000000000000000 ) ) ;
#906 = ADVANCED_FACE ( 'NONE', ( #921 ), #61, .F. ) ;
#907 = DIRECTION ( 'NONE',  ( 0.000000000000000000, 0.000000000000000000, 1.000000000000000000 ) ) ;
#908 = CARTESIAN_POINT ( 'NONE',  ( 7.500000000000000000, 57.99999999999999289, 0.000000000000000000 ) ) ;
#909 = ORIENTED_EDGE ( 'NONE', *, *, #230, .F. ) ;
#910 = DIRECTION ( 'NONE',  ( -0.000000000000000000, 0.000000000000000000, 1.000000000000000000 ) ) ;
#911 =( GEOMETRIC_REPRESENTATION_CONTEXT ( 3 ) GLOBAL_UNCERTAINTY_ASSIGNED_CONTEXT ( ( #210 ) ) GLOBAL_UNIT_ASSIGNED_CONTEXT ( ( #86, #612, #543 ) ) REPRESENTATION_CONTEXT ( 'NONE', 'WORKASPACE' ) );
#912 = CARTESIAN_POINT ( 'NONE',  ( 29.16250985671064555, 3.000000000000001332, 6.000000000000000000 ) ) ;
#913 = DIRECTION ( 'NONE',  ( -0.000000000000000000, -0.000000000000000000, 1.000000000000000000 ) ) ;
#914 = ORIENTED_EDGE ( 'NONE', *, *, #110, .F. ) ;
#915 = VECTOR ( 'NONE', #465, 1000.000000000000000 ) ;
#916 = CARTESIAN_POINT ( 'NONE',  ( 35.00000000000000711, 4.500000000000003553, 8.000000000000000000 ) ) ;
#917 = CIRCLE ( 'NONE', #146, 1.149999999999998135 ) ;
#918 = EDGE_CURVE ( 'NONE', #444, #634, #714, .T. ) ;
#919 = DIRECTION ( 'NONE',  ( 0.000000000000000000, 1.000000000000000000, 0.000000000000000000 ) ) ;
#920 = ORIENTED_EDGE ( 'NONE', *, *, #434, .T. ) ;
#921 = FACE_OUTER_BOUND ( 'NONE', #388, .T. ) ;
#922 = CARTESIAN_POINT ( 'NONE',  ( 0.000000000000000000, 0.000000000000000000, 8.000000000000000000 ) ) ;
#923 = DIRECTION ( 'NONE',  ( -1.000000000000000000, 0.000000000000000000, 0.000000000000000000 ) ) ;
#924 = ORIENTED_EDGE ( 'NONE', *, *, #95, .F. ) ;
#925 = FACE_BOUND ( 'NONE', #774, .T. ) ;
#926 = EDGE_CURVE ( 'NONE', #634, #342, #247, .T. ) ;
#927 = CARTESIAN_POINT ( 'NONE',  ( 35.00000000000000711, 4.500000000000003553, 8.000000000000000000 ) ) ;
#928 = CARTESIAN_POINT ( 'NONE',  ( 10.96250985671064271, 1.342520260664200099E-15, 6.000000000000000000 ) ) ;
#929 = ORIENTED_EDGE ( 'NONE', *, *, #1001, .F. ) ;
#930 = DIRECTION ( 'NONE',  ( 1.000000000000000000, 1.936075308009830156E-16, 0.000000000000000000 ) ) ;
#931 = ORIENTED_EDGE ( 'NONE', *, *, #558, .F. ) ;
#932 = VECTOR ( 'NONE', #830, 1000.000000000000000 ) ;
#933 = DIRECTION ( 'NONE',  ( -1.000000000000000000, 0.000000000000000000, 0.000000000000000000 ) ) ;
#934 = ORIENTED_EDGE ( 'NONE', *, *, #347, .F. ) ;
#935 = AXIS2_PLACEMENT_3D ( 'NONE', #237, #485, #1090 ) ;
#936 = DIRECTION ( 'NONE',  ( -0.000000000000000000, -0.000000000000000000, 1.000000000000000000 ) ) ;
#937 = AXIS2_PLACEMENT_3D ( 'NONE', #831, #913, #1094 ) ;
#938 = CARTESIAN_POINT ( 'NONE',  ( 35.00000000000000711, 55.50000000000000000, 0.000000000000000000 ) ) ;
#939 = ADVANCED_FACE ( 'NONE', ( #242 ), #845, .F. ) ;
#940 = ORIENTED_EDGE ( 'NONE', *, *, #286, .T. ) ;
#941 = PLANE ( 'NONE',  #243 ) ;
#942 = ORIENTED_EDGE ( 'NONE', *, *, #197, .T. ) ;
#943 = LINE ( 'NONE', #422, #118 ) ;
#944 = VERTEX_POINT ( 'NONE', #394 ) ;
#945 = LINE ( 'NONE', #1051, #478 ) ;
#946 = ORIENTED_EDGE ( 'NONE', *, *, #351, .F. ) ;
#947 = CARTESIAN_POINT ( 'NONE',  ( 32.50000000000000711, 20.00000000000000711, 8.000000000000000000 ) ) ;
#948 = DIRECTION ( 'NONE',  ( -0.000000000000000000, -0.000000000000000000, -1.000000000000000000 ) ) ;
#949 = ADVANCED_FACE ( 'NONE', ( #589 ), #583, .F. ) ;
#950 = ORIENTED_EDGE ( 'NONE', *, *, #383, .T. ) ;
#951 = EDGE_CURVE ( 'NONE', #542, #150, #838, .T. ) ;
#952 = FACE_BOUND ( 'NONE', #780, .T. ) ;
#953 = CIRCLE ( 'NONE', #459, 1.149999999999998135 ) ;
#954 = VECTOR ( 'NONE', #48, 1000.000000000000000 ) ;
#955 = ORIENTED_EDGE ( 'NONE', *, *, #756, .F. ) ;
#956 = DIRECTION ( 'NONE',  ( 1.000000000000000000, 0.000000000000000000, 0.000000000000000000 ) ) ;
#957 = AXIS2_PLACEMENT_3D ( 'NONE', #992, #1062, #627 ) ;
#958 = CARTESIAN_POINT ( 'NONE',  ( 14.46250985671064271, 1.299999999999997824, 4.500000000000000888 ) ) ;
#959 = ORIENTED_EDGE ( 'NONE', *, *, #951, .F. ) ;
#960 = ORIENTED_EDGE ( 'NONE', *, *, #262, .F. ) ;
#961 = LINE ( 'NONE', #324, #860 ) ;
#962 = EDGE_CURVE ( 'NONE', #837, #699, #677, .T. ) ;
#963 = CARTESIAN_POINT ( 'NONE',  ( 12.96250985671064448, 3.000000000000001332, 4.500000000000000888 ) ) ;
#964 = ORIENTED_EDGE ( 'NONE', *, *, #401, .T. ) ;
#965 = CARTESIAN_POINT ( 'NONE',  ( 29.16250985671064200, 0.8000000000000000444, 7.000000000000000000 ) ) ;
#966 = VERTEX_POINT ( 'NONE', #833 ) ;
#967 = FACE_OUTER_BOUND ( 'NONE', #985, .T. ) ;
#968 = CARTESIAN_POINT ( 'NONE',  ( 25.66250985671063845, 1.300000000000000044, 4.500000000000000888 ) ) ;
#969 = DIRECTION ( 'NONE',  ( -1.000000000000000000, -1.141265444721583757E-16, 0.000000000000000000 ) ) ;
#970 = DIRECTION ( 'NONE',  ( 1.000000000000000000, 0.000000000000000000, 0.000000000000000000 ) ) ;
#971 = ORIENTED_EDGE ( 'NONE', *, *, #632, .T. ) ;
#972 = CARTESIAN_POINT ( 'NONE',  ( 5.000000000000007994, 55.50000000000000000, 0.000000000000000000 ) ) ;
#973 = VECTOR ( 'NONE', #276, 1000.000000000000000 ) ;
#974 = CLOSED_SHELL ( 'NONE', ( #906, #288, #239, #679, #361, #939, #119, #536, #218, #1045, #132, #888, #1134, #273, #183, #727, #310, #70, #21, #1059, #372, #1105, #72, #596, #249, #1010, #797, #782, #435, #949, #1093, #654, #161 ) ) ;
#975 = CARTESIAN_POINT ( 'NONE',  ( 7.500000000000000000, 57.99999999999999289, 8.000000000000000000 ) ) ;
#976 = EDGE_CURVE ( 'NONE', #670, #843, #758, .T. ) ;
#977 = CARTESIAN_POINT ( 'NONE',  ( 7.500000000000004441, 20.00000000000000355, 0.000000000000000000 ) ) ;
#978 = ORIENTED_EDGE ( 'NONE', *, *, #153, .F. ) ;
#979 = DIRECTION ( 'NONE',  ( -0.000000000000000000, -0.000000000000000000, 1.000000000000000000 ) ) ;
#980 = DIRECTION ( 'NONE',  ( 1.000000000000000000, 0.000000000000000000, 0.000000000000000000 ) ) ;
#981 = DIRECTION ( 'NONE',  ( 1.141265444721583757E-16, -1.000000000000000000, 0.000000000000000000 ) ) ;
#982 = ORIENTED_EDGE ( 'NONE', *, *, #198, .T. ) ;
#983 = CARTESIAN_POINT ( 'NONE',  ( 25.66250985671063845, 20.00000000000000711, 4.500000000000000888 ) ) ;
#984 = CARTESIAN_POINT ( 'NONE',  ( 29.16250985671064555, 3.000000000000001332, 4.500000000000000888 ) ) ;
#985 = EDGE_LOOP ( 'NONE', ( #127, #16, #1004, #660 ) ) ;
#986 = EDGE_CURVE ( 'NONE', #706, #342, #316, .T. ) ;
#987 = VECTOR ( 'NONE', #658, 1000.000000000000000 ) ;
#988 = ORIENTED_EDGE ( 'NONE', *, *, #745, .F. ) ;
#989 = CARTESIAN_POINT ( 'NONE',  ( 25.66250985671063845, 20.00000000000000355, 6.000000000000000000 ) ) ;
#990 = CARTESIAN_POINT ( 'NONE',  ( 33.85000000000000853, 55.50000000000000000, 0.000000000000000000 ) ) ;
#991 = AXIS2_PLACEMENT_3D ( 'NONE', #470, #820, #1099 ) ;
#992 = CARTESIAN_POINT ( 'NONE',  ( 27.16250985671064200, 20.00000000000000000, 4.500000000000000888 ) ) ;
#993 = ORIENTED_EDGE ( 'NONE', *, *, #743, .T. ) ;
#994 = SURFACE_STYLE_FILL_AREA ( #630 ) ;
#995 = DIRECTION ( 'NONE',  ( 1.000000000000000000, 0.000000000000000000, 0.000000000000000000 ) ) ;
#996 = EDGE_CURVE ( 'NONE', #737, #420, #594, .T. ) ;
#997 = CARTESIAN_POINT ( 'NONE',  ( 27.16250985671064555, 3.000000000000000888, 4.500000000000000888 ) ) ;
#998 = VERTEX_POINT ( 'NONE', #657 ) ;
#999 = CARTESIAN_POINT ( 'NONE',  ( 7.500000000000004441, 20.00000000000000355, 0.000000000000000000 ) ) ;
#1000 = EDGE_CURVE ( 'NONE', #1089, #420, #1005, .T. ) ;
#1001 = EDGE_CURVE ( 'NONE', #376, #757, #662, .T. ) ;
#1002 = CARTESIAN_POINT ( 'NONE',  ( 0.000000000000000000, 0.000000000000000000, 8.000000000000000000 ) ) ;
#1003 = CARTESIAN_POINT ( 'NONE',  ( 29.16250985671064200, 0.000000000000000000, 8.000000000000000000 ) ) ;
#1004 = ORIENTED_EDGE ( 'NONE', *, *, #360, .T. ) ;
#1005 = LINE ( 'NONE', #1096, #515 ) ;
#1006 = LINE ( 'NONE', #140, #602 ) ;
#1007 = AXIS2_PLACEMENT_3D ( 'NONE', #671, #65, #332 ) ;
#1008 = DIRECTION ( 'NONE',  ( 1.000000000000000000, 1.387778780781445429E-16, 0.000000000000000000 ) ) ;
#1009 = VECTOR ( 'NONE', #919, 1000.000000000000000 ) ;
#1010 = ADVANCED_FACE ( 'NONE', ( #579 ), #143, .F. ) ;
#1011 = EDGE_LOOP ( 'NONE', ( #959, #517, #599, #920 ) ) ;
#1012 = CARTESIAN_POINT ( 'NONE',  ( 14.46250985671064271, 20.00000000000000000, 4.500000000000000888 ) ) ;
#1013 = EDGE_CURVE ( 'NONE', #618, #142, #668, .T. ) ;
#1014 = PLANE ( 'NONE',  #839 ) ;
#1015 = CARTESIAN_POINT ( 'NONE',  ( 0.000000000000000000, 0.000000000000000000, 8.000000000000000000 ) ) ;
#1016 = ORIENTED_EDGE ( 'NONE', *, *, #918, .F. ) ;
#1017 = FACE_BOUND ( 'NONE', #629, .T. ) ;
#1018 = ORIENTED_EDGE ( 'NONE', *, *, #841, .T. ) ;
#1019 = LINE ( 'NONE', #387, #336 ) ;
#1020 = ORIENTED_EDGE ( 'NONE', *, *, #1035, .F. ) ;
#1021 = CARTESIAN_POINT ( 'NONE',  ( 10.96250985671064271, 1.342520260664200099E-15, 6.000000000000000000 ) ) ;
#1022 = EDGE_CURVE ( 'NONE', #701, #585, #359, .T. ) ;
#1023 = CIRCLE ( 'NONE', #403, 1.149999999999999023 ) ;
#1024 = CARTESIAN_POINT ( 'NONE',  ( 10.96250985671064271, 0.8000000000000000444, 7.000000000000000000 ) ) ;
#1025 = EDGE_LOOP ( 'NONE', ( #47, #1110, #238, #413 ) ) ;
#1026 = VECTOR ( 'NONE', #717, 1000.000000000000000 ) ;
#1027 = DIRECTION ( 'NONE',  ( 1.000000000000000000, 0.000000000000000000, 0.000000000000000000 ) ) ;
#1028 = VECTOR ( 'NONE', #69, 1000.000000000000000 ) ;
#1029 = ORIENTED_EDGE ( 'NONE', *, *, #145, .T. ) ;
#1030 = CARTESIAN_POINT ( 'NONE',  ( 14.46250985671064271, 1.299999999999997824, 6.000000000000000000 ) ) ;
#1031 = ORIENTED_EDGE ( 'NONE', *, *, #464, .T. ) ;
#1032 = FACE_OUTER_BOUND ( 'NONE', #1047, .T. ) ;
#1033 = VERTEX_POINT ( 'NONE', #80 ) ;
#1034 = CYLINDRICAL_SURFACE ( 'NONE', #1064, 1.149999999999999911 ) ;
#1035 = EDGE_CURVE ( 'NONE', #1123, #777, #270, .T. ) ;
#1036 = CARTESIAN_POINT ( 'NONE',  ( 3.850000000000008971, 55.50000000000000000, 0.000000000000000000 ) ) ;
#1037 = ORIENTED_EDGE ( 'NONE', *, *, #854, .F. ) ;
#1038 = CARTESIAN_POINT ( 'NONE',  ( 29.16250985671064200, 0.000000000000000000, 8.000000000000000000 ) ) ;
#1039 = ORIENTED_EDGE ( 'NONE', *, *, #584, .F. ) ;
#1040 = LINE ( 'NONE', #694, #441 ) ;
#1041 = CIRCLE ( 'NONE', #641, 1.149999999999999911 ) ;
#1042 = LINE ( 'NONE', #155, #846 ) ;
#1043 = ORIENTED_EDGE ( 'NONE', *, *, #508, .F. ) ;
#1044 = DIRECTION ( 'NONE',  ( 1.000000000000000000, 2.168404344971006896E-16, 0.000000000000000000 ) ) ;
#1045 = ADVANCED_FACE ( 'NONE', ( #186 ), #859, .F. ) ;
#1046 = VECTOR ( 'NONE', #936, 1000.000000000000000 ) ;
#1047 = EDGE_LOOP ( 'NONE', ( #1116, #1085, #349, #898 ) ) ;
#1048 = DIRECTION ( 'NONE',  ( 1.000000000000000000, 1.387778780781445429E-16, 0.000000000000000000 ) ) ;
#1049 = LINE ( 'NONE', #162, #1028 ) ;
#1050 = ORIENTED_EDGE ( 'NONE', *, *, #976, .T. ) ;
#1051 = CARTESIAN_POINT ( 'NONE',  ( 0.000000000000000000, 0.000000000000000000, 0.000000000000000000 ) ) ;
#1052 = ORIENTED_EDGE ( 'NONE', *, *, #206, .F. ) ;
#1053 = DIRECTION ( 'NONE',  ( 2.040851148208008245E-16, -1.000000000000000000, 0.000000000000000000 ) ) ;
#1054 = DIRECTION ( 'NONE',  ( -1.000000000000000000, 0.000000000000000000, -0.000000000000000000 ) ) ;
#1055 = LINE ( 'NONE', #370, #1100 ) ;
#1056 = DIRECTION ( 'NONE',  ( 1.000000000000000000, 1.224646799147353454E-16, 0.000000000000000000 ) ) ;
#1057 = EDGE_LOOP ( 'NONE', ( #1107, #525, #2, #418, #504, #362, #709, #532, #357, #934, #988, #385 ) ) ;
#1058 = LINE ( 'NONE', #353, #844 ) ;
#1059 = ADVANCED_FACE ( 'NONE', ( #1137 ), #700, .F. ) ;
#1060 = LINE ( 'NONE', #280, #1113 ) ;
#1061 = AXIS2_PLACEMENT_3D ( 'NONE', #876, #171, #882 ) ;
#1062 = DIRECTION ( 'NONE',  ( -1.000000000000000000, -2.040851148208007998E-16, 0.000000000000000000 ) ) ;
#1063 = ORIENTED_EDGE ( 'NONE', *, *, #157, .T. ) ;
#1064 = AXIS2_PLACEMENT_3D ( 'NONE', #426, #259, #625 ) ;
#1065 = DIRECTION ( 'NONE',  ( -0.000000000000000000, -1.000000000000000000, -0.000000000000000000 ) ) ;
#1066 = VECTOR ( 'NONE', #275, 1000.000000000000000 ) ;
#1067 = DIRECTION ( 'NONE',  ( 0.000000000000000000, 0.000000000000000000, 1.000000000000000000 ) ) ;
#1068 = LINE ( 'NONE', #704, #301 ) ;
#1069 = ORIENTED_EDGE ( 'NONE', *, *, #734, .T. ) ;
#1070 = LINE ( 'NONE', #124, #861 ) ;
#1071 = LINE ( 'NONE', #190, #223 ) ;
#1072 = EDGE_CURVE ( 'NONE', #1136, #1033, #945, .T. ) ;
#1073 = ORIENTED_EDGE ( 'NONE', *, *, #255, .T. ) ;
#1074 = CARTESIAN_POINT ( 'NONE',  ( 0.000000000000000000, 0.000000000000000000, 0.000000000000000000 ) ) ;
#1075 = VERTEX_POINT ( 'NONE', #6 ) ;
#1076 = DIRECTION ( 'NONE',  ( -0.000000000000000000, -1.000000000000000000, -0.000000000000000000 ) ) ;
#1077 = PLANE ( 'NONE',  #643 ) ;
#1078 = VERTEX_POINT ( 'NONE', #1038 ) ;
#1079 = ORIENTED_EDGE ( 'NONE', *, *, #1072, .F. ) ;
#1080 =( NAMED_UNIT ( * ) PLANE_ANGLE_UNIT ( ) SI_UNIT ( $, .RADIAN. ) );
#1081 = EDGE_CURVE ( 'NONE', #699, #837, #1115, .T. ) ;
#1082 =( GEOMETRIC_REPRESENTATION_CONTEXT ( 3 ) GLOBAL_UNCERTAINTY_ASSIGNED_CONTEXT ( ( #903 ) ) GLOBAL_UNIT_ASSIGNED_CONTEXT ( ( #805, #1080, #649 ) ) REPRESENTATION_CONTEXT ( 'NONE', 'WORKASPACE' ) );
#1083 = FACE_OUTER_BOUND ( 'NONE', #160, .T. ) ;
#1084 = CARTESIAN_POINT ( 'NONE',  ( 0.000000000000000000, 0.000000000000000000, 4.500000000000000888 ) ) ;
#1085 = ORIENTED_EDGE ( 'NONE', *, *, #320, .F. ) ;
#1086 = SURFACE_STYLE_USAGE ( .BOTH. , #545 ) ;
#1087 = CARTESIAN_POINT ( 'NONE',  ( 25.66250985671063845, 1.300000000000000044, 4.500000000000000888 ) ) ;
#1088 = FACE_OUTER_BOUND ( 'NONE', #35, .T. ) ;
#1089 = VERTEX_POINT ( 'NONE', #622 ) ;
#1090 = DIRECTION ( 'NONE',  ( 1.000000000000000000, 0.000000000000000000, 0.000000000000000000 ) ) ;
#1091 = PRODUCT_DEFINITION_FORMATION_WITH_SPECIFIED_SOURCE ( 'ANY', '', #1135, .NOT_KNOWN. ) ;
#1092 = PLANE ( 'NONE',  #438 ) ;
#1093 = ADVANCED_FACE ( 'NONE', ( #1032 ), #424, .F. ) ;
#1094 = DIRECTION ( 'NONE',  ( 1.000000000000000000, 0.000000000000000000, 0.000000000000000000 ) ) ;
#1095 = ORIENTED_EDGE ( 'NONE', *, *, #548, .F. ) ;
#1096 = CARTESIAN_POINT ( 'NONE',  ( 10.96250985671064271, 19.99999999999999645, 4.500000000000000888 ) ) ;
#1097 = DIRECTION ( 'NONE',  ( -1.000000000000000000, -1.224646799147353454E-16, 0.000000000000000000 ) ) ;
#1098 = VECTOR ( 'NONE', #778, 1000.000000000000000 ) ;
#1099 = DIRECTION ( 'NONE',  ( 0.000000000000000000, 0.000000000000000000, -1.000000000000000000 ) ) ;
#1100 = VECTOR ( 'NONE', #621, 1000.000000000000000 ) ;
#1101 = ORIENTED_EDGE ( 'NONE', *, *, #360, .F. ) ;
#1102 = DIRECTION ( 'NONE',  ( 1.000000000000000000, 0.000000000000000000, -0.000000000000000000 ) ) ;
#1103 = ORIENTED_EDGE ( 'NONE', *, *, #311, .T. ) ;
#1104 = DIRECTION ( 'NONE',  ( 1.000000000000000000, 1.387778780781445429E-16, 0.000000000000000000 ) ) ;
#1105 = ADVANCED_FACE ( 'NONE', ( #786 ), #350, .F. ) ;
#1106 = PLANE ( 'NONE',  #991 ) ;
#1107 = ORIENTED_EDGE ( 'NONE', *, *, #169, .F. ) ;
#1108 = DIRECTION ( 'NONE',  ( 0.000000000000000000, 0.000000000000000000, 1.000000000000000000 ) ) ;
#1109 = CARTESIAN_POINT ( 'NONE',  ( 35.00000000000000711, 4.500000000000003553, 0.000000000000000000 ) ) ;
#1110 = ORIENTED_EDGE ( 'NONE', *, *, #486, .F. ) ;
#1111 = CARTESIAN_POINT ( 'NONE',  ( 35.00000000000000711, 55.50000000000000000, 8.000000000000000000 ) ) ;
#1112 = ORIENTED_EDGE ( 'NONE', *, *, #347, .T. ) ;
#1113 = VECTOR ( 'NONE', #631, 1000.000000000000000 ) ;
#1114 = CARTESIAN_POINT ( 'NONE',  ( 32.50000000000000711, 20.00000000000000711, 0.000000000000000000 ) ) ;
#1115 = CIRCLE ( 'NONE', #356, 1.149999999999998135 ) ;
#1116 = ORIENTED_EDGE ( 'NONE', *, *, #152, .T. ) ;
#1117 = FACE_BOUND ( 'NONE', #430, .T. ) ;
#1118 = ORIENTED_EDGE ( 'NONE', *, *, #527, .T. ) ;
#1119 = EDGE_CURVE ( 'NONE', #944, #409, #1, .T. ) ;
#1120 = LINE ( 'NONE', #685, #229 ) ;
#1121 = ORIENTED_EDGE ( 'NONE', *, *, #558, .T. ) ;
#1122 = FACE_BOUND ( 'NONE', #331, .T. ) ;
#1123 = VERTEX_POINT ( 'NONE', #505 ) ;
#1124 = CARTESIAN_POINT ( 'NONE',  ( 36.15000000000000568, 4.500000000000003553, 0.000000000000000000 ) ) ;
#1125 = CARTESIAN_POINT ( 'NONE',  ( 33.85000000000000853, 55.50000000000000000, 8.000000000000000000 ) ) ;
#1126 = EDGE_CURVE ( 'NONE', #342, #706, #917, .T. ) ;
#1127 = VERTEX_POINT ( 'NONE', #419 ) ;
#1128 = CARTESIAN_POINT ( 'NONE',  ( 32.50000000000000000, 57.99999999999999289, 0.000000000000000000 ) ) ;
#1129 = VERTEX_POINT ( 'NONE', #530 ) ;
#1130 = DIRECTION ( 'NONE',  ( 2.040851148208008245E-16, -1.000000000000000000, 0.000000000000000000 ) ) ;
#1131 = VECTOR ( 'NONE', #196, 1000.000000000000000 ) ;
#1132 = VECTOR ( 'NONE', #528, 1000.000000000000000 ) ;
#1133 = CARTESIAN_POINT ( 'NONE',  ( 5.000000000000007994, 4.500000000000003553, 0.000000000000000000 ) ) ;
#1134 = ADVANCED_FACE ( 'NONE', ( #952, #767, #1122, #1117, #176, #524 ), #880, .F. ) ;
#1135 = PRODUCT ( 'mid-rp2040-v0', 'mid-rp2040-v0', '', ( #554 ) ) ;
#1136 = VERTEX_POINT ( 'NONE', #868 ) ;
#1137 = FACE_OUTER_BOUND ( 'NONE', #787, .T. ) ;
ENDSEC;
END-ISO-10303-21;
